<?xml version="1.0" standalone="no"?>
<!DOCTYPE svg PUBLIC "-//W3C//DTD SVG 1.1//EN" "http://www.w3.org/Graphics/SVG/1.1/DTD/svg11.dtd" >
<svg>
<metadata>
Created by FontForge 20110222 at Mon Mar  7 11:04:46 2011
 By www-data
</metadata>
<defs>
<font id="Allegro" horiz-adv-x="389" >
  <font-face 
    font-family="Allegro"
    font-weight="400"
    font-stretch="normal"
    units-per-em="1000"
    panose-1="0 0 0 0 0 0 0 0 0 0"
    ascent="800"
    descent="-200"
    x-height="278"
    cap-height="699"
    bbox="-108 -317 1607 918"
    underline-thickness="50"
    underline-position="-55"
    unicode-range="U+0020-25D9"
  />
    <missing-glyph />
    <glyph glyph-name="space" unicode=" " horiz-adv-x="194" 
 />
    <glyph glyph-name="space" unicode="&#xa0;" horiz-adv-x="194" 
 />
    <glyph glyph-name="exclam" unicode="!" horiz-adv-x="333" 
d="M274 62q14 0 21.5 -6.5t7.5 -18.5q0 -20 -9 -31t-30 -11q-12 0 -18.5 5.5t-6.5 21.5q0 17 8 28.5t27 11.5v0zM292 86l211 386l74 6l-267 -392h-18v0z" />
    <glyph glyph-name="quotedbl" unicode="&#x22;" horiz-adv-x="333" 
d="M381 436l-12 -156q-1 -11 -3 -18.5t-7 -7.5t-7 7.5t-3 18.5l-12 156q-1 8 -1 15v13q0 18 4.5 31.5t18.5 13.5t18.5 -13.5t4.5 -31.5v-13t-1 -15v0zM514 436l-12 -156q-1 -11 -3.5 -18.5t-7.5 -7.5t-7 7.5t-3 18.5l-12 156q-1 8 -1 15v13q0 18 4.5 31.5t18.5 13.5
q15 0 19.5 -13.5t4.5 -31.5v-13t-1 -15v0z" />
    <glyph glyph-name="numbersign" unicode="#" 
d="M526 180v-26h-85l-52 -154h-31l54 154h-94l-53 -154h-32l54 154h-72v26h82l37 108h-72v26h82l53 152h31l-53 -152h95l52 152h31l-52 -152h74v-26h-85l-39 -108h75v0zM459 288h-93l-38 -108h94l37 108v0z" />
    <glyph glyph-name="dollar" unicode="$" 
d="M321 163l54 101q-9 15 -14.5 33t-8.5 36q0 5 -0.5 10.5t-0.5 10.5q0 55 42.5 87.5t94.5 34.5l30 55h19l-30 -56q14 -2 28 -7t27 -11l39 74h20l-45 -84q17 -12 26.5 -27t9.5 -38q0 -37 -22 -60.5t-53 -23.5q-3 0 -5.5 0.5t-5.5 0.5q-6 2 -11.5 4.5t-10.5 6.5l-51 -94
q6 -13 10 -23.5t7 -20.5q3 -12 4 -24.5t1 -28.5q0 -51 -41.5 -89t-96.5 -38l-4 -1l-30 -57h-18l30 58q-2 1 -4 1t-4 1q-15 1 -28.5 3.5t-24.5 5.5l-37 -69h-18l41 77q-30 12 -44.5 36t-14.5 54q0 36 24.5 60.5t60.5 24.5q15 0 28.5 -7t26.5 -16v0zM304 97l-44 -82
q7 -4 17.5 -6.5t21.5 -3.5q5 -1 10.5 -1.5t10.5 -0.5l95 178q-2 6 -4.5 11l-5.5 11q-2 4 -4 8.5t-4 8.5q-4 7 -7 13.5t-6 13.5l-52 -97q2 -3 2.5 -6t1.5 -5q1 -3 1 -6v-6q0 -11 -6 -19t-13 -11q-2 0 -3.5 -0.5t-2.5 -0.5h-2h-2t-2 0.5t-2 0.5v0zM425 163l-85 -160
q38 3 60.5 24.5t30.5 46.5q2 7 3 14t1 13q0 24 -3 37.5t-7 24.5v0zM245 21l46 86q-4 0 -6 4t-3 8q-1 3 -1 6v5v4t1 4q0 2 0.5 4t0.5 4q-4 9 -12.5 13t-18.5 5h-2h-2q-28 0 -41.5 -20.5t-13.5 -46.5q0 -25 14 -44.5t38 -31.5v0zM501 464l-89 -163l8 -16l8 -16t8 -16.5
t8 -17.5l45 85q0 1 -1 2t-1 2q-1 1 -1.5 2.5t-0.5 2.5q-1 2 -1.5 4.5t-0.5 3.5q0 16 8.5 26.5t25.5 10.5l39 71q-6 5 -15.5 9t-18.5 6q-6 1 -11 2l-10 2v0zM404 318l78 146q-37 -4 -64 -28.5t-27 -65.5v-7.5t1 -7.5q1 -8 4 -17t8 -20v0zM570 435l-36 -69q7 -5 10.5 -12
t6.5 -14v-0.5v-0.5q1 -3 2 -5.5t2 -4.5q0 -2 1.5 -3t4.5 -1q1 -1 2.5 -1h2.5q3 0 6 1t6 4q8 6 15 20t7 34q0 16 -9 29t-21 23v0z" />
    <glyph glyph-name="percent" unicode="%" horiz-adv-x="779" 
d="M391 -6h-22l37 51l370 512h22l-37 -51l-370 -512v0zM807 362q43 0 56 -25t13 -55q0 -23 -8.5 -52.5t-23.5 -59.5q-23 -48 -58.5 -91.5t-72.5 -63.5q-12 -7 -24.5 -11t-24.5 -4q-38 0 -56.5 24t-23.5 53q-1 7 -1.5 13.5t-0.5 12.5q0 16 3.5 33t9.5 34q20 57 65.5 108
t95.5 73q13 5 26 8t25 3v0zM854 293q0 31 -11 41.5t-24 11.5h-2.5h-2.5q-15 0 -31 -8t-33 -23q-27 -23 -53.5 -59.5t-44.5 -74.5q-14 -29 -22 -56.5t-8 -50.5v-2.5v-2.5q1 -20 12.5 -36.5t33.5 -16.5q15 0 35.5 13.5t41.5 35.5q26 28 50.5 65.5t39.5 76.5q9 22 14 44t5 42v0
zM523 551q43 0 56 -25t13 -56q0 -23 -8.5 -52.5t-23.5 -59.5q-24 -47 -58.5 -90.5t-72.5 -64.5q-12 -7 -25 -11t-25 -4q-38 0 -56.5 24t-23.5 53q-1 7 -1.5 13.5t-0.5 12.5q0 16 3.5 33.5t9.5 34.5q21 58 66.5 109.5t96.5 71.5q13 5 25.5 8t24.5 3v0zM570 481q0 32 -11 42.5
t-24 11.5h-2.5h-2.5q-15 0 -31 -8t-32 -22q-28 -23 -54.5 -59.5t-45.5 -76.5q-14 -29 -22 -56.5t-8 -50.5v-2.5v-2.5q1 -20 12.5 -36.5t33.5 -16.5q16 0 36.5 13.5t41.5 36.5q26 27 50.5 64.5t39.5 76.5q9 22 14 44t5 42v0z" />
    <glyph glyph-name="ampersand" unicode="&#x26;" horiz-adv-x="501" 
d="M566 -24q0 -107 -83.5 -197t-210.5 -90q-5 0 -10.5 0.5t-11.5 0.5q-51 6 -94 39.5t-43 89.5q-1 40 18.5 65.5t42.5 39.5q19 12 36.5 16.5t22.5 4.5q3 0 4 -1l2 -2v-1.5v-0.5q0 -2 -1.5 -3t-4.5 -1q-5 -2 -16 -4.5t-28 -10.5l-12.5 -7.5t-15.5 -10.5q-13 -11 -24.5 -28.5
t-11.5 -43.5q0 -41 25.5 -65.5t55.5 -34.5q12 -4 23.5 -6t21.5 -2h9.5t9.5 1q104 8 190 91.5t86 187.5q0 9 -1 21.5t-4 25.5q-2 13 -5 25.5t-6 21.5q-34 -41 -83.5 -71.5t-111.5 -30.5q-56 0 -96 32t-40 85q0 83 57.5 127.5t126.5 70.5l28 10t27 9q-4 14 -5.5 27.5
t-1.5 26.5q0 10 1 20t3 20q9 50 41 91t87 41q35 0 55 -21t20 -56q0 -49 -37 -80.5t-82 -52.5l-34 -14t-32 -12q3 -18 14.5 -46.5t24.5 -59.5q3 -4 5 -9l4 -10q10 -21 19 -40t16 -34q9 10 17.5 21t17.5 22q4 5 8 10.5t8 10.5q21 27 40.5 53.5t33.5 46.5q8 11 17.5 24t20.5 26
q26 30 59 56.5t68 30.5q3 1 5.5 1h5.5q16 0 26.5 -8.5t10.5 -25.5t-10 -26.5t-27 -9.5q-10 0 -16 5.5t-10 12.5q-1 1 -1.5 2.5t-1.5 2.5q-3 5 -7 9t-10 4q-9 0 -29 -13.5t-41 -35.5q-10 -10 -19.5 -20.5t-17.5 -22.5l-6 -8l-6 -8q-11 -15 -22 -29.5t-22 -29.5
q-22 -29 -44.5 -57.5t-42.5 -53.5q13 -32 19 -65.5t6 -67.5v-1zM253 96q0 -37 21.5 -63.5t60.5 -26.5q58 0 107 30t84 72q-7 19 -15 36.5t-16 34.5q-2 4 -3.5 7.5t-3.5 6.5q-13 30 -25.5 59.5t-21.5 62.5q-72 -28 -130 -80.5t-58 -138.5v0zM443 393v-15t1 -15
q0 -8 1.5 -15.5t3.5 -15.5q13 5 27.5 10t29.5 11q45 17 82.5 46t37.5 81q0 26 -16.5 44.5t-44.5 18.5q-46 0 -76 -34t-41 -75q-2 -11 -3.5 -21t-1.5 -20v0z" />
    <glyph glyph-name="quotesingle" unicode="'" horiz-adv-x="500" 
 />
    <glyph glyph-name="parenleft" unicode="(" horiz-adv-x="501" 
d="M319 34q0 22 2.5 44t7.5 44q34 154 170.5 299.5t332.5 251.5q3 1 5.5 2.5t4.5 3.5q16 8 29.5 14t16.5 6q2 0 3 -1t1 -3v-1.5t-1 -1.5q-2 -2 -9.5 -5.5t-29.5 -14.5q-24 -13 -48.5 -28.5t-49.5 -33.5q-114 -84 -216.5 -211t-149.5 -262q-14 -41 -21.5 -81.5t-7.5 -78.5
q0 -44 8.5 -75t19.5 -52q10 -21 18.5 -32.5t8.5 -14.5q0 -1 -0.5 -1.5t-2.5 -0.5q-3 0 -12.5 9t-25.5 34q-15 24 -25 46t-17 43q-7 24 -9.5 48.5t-2.5 52.5v0z" />
    <glyph glyph-name="parenright" unicode=")" horiz-adv-x="501" 
d="M604 464q0 -20 -2 -41t-7 -41q-32 -155 -169.5 -301.5t-334.5 -253.5q-3 -1 -5.5 -2.5t-4.5 -3.5q-16 -8 -29.5 -14t-16.5 -6q-1 0 -2.5 1t-1.5 3v1.5t1 1.5q2 2 9.5 5.5t29.5 14.5q24 13 48.5 28.5t49.5 33.5q115 84 218.5 212t149.5 265q13 39 20 78.5t7 77.5
q0 44 -8.5 75t-18.5 52q-11 21 -19.5 32.5t-8.5 14.5q0 1 1 1.5t2 0.5q3 0 12.5 -9t25.5 -34q15 -23 25 -44.5t16 -42.5q7 -25 10 -50.5t3 -54.5v0z" />
    <glyph glyph-name="asterisk" unicode="*" 
d="M355 486q-7 0 -11.5 7t-4.5 15q0 4 3 8t11 7q13 7 41 14.5t75 20.5q-61 40 -82.5 54t-24.5 23q-1 1 -1 2.5v3.5q0 8 5 14t12 6q3 0 5.5 -0.5t4.5 -1.5q10 -4 26.5 -23.5t62.5 -65.5l6 102q1 15 6 21t15 6q11 0 16.5 -5.5t5.5 -12.5t-9 -28t-26 -83q10 3 21 8.5t22 10.5
q3 2 6 3.5t6 2.5q21 11 39 20.5t26 9.5q4 0 8 -3t6 -7q1 -2 2 -4.5t1 -3.5q0 -10 -5.5 -15.5t-20.5 -9.5t-41.5 -9t-68.5 -16l6 -4l6 -4q1 0 1.5 -0.5t1.5 -0.5q38 -23 69.5 -43.5t31.5 -28.5q0 -10 -6 -17t-17 -7q-8 0 -25.5 20.5t-71.5 72.5q-3 -100 -9 -118.5t-17 -18.5
q-8 0 -12.5 5t-4.5 13q0 9 4 26t9 35q1 2 1.5 4t0.5 4q4 15 8 28t6 22q-7 -4 -21.5 -12t-30.5 -16q-2 -1 -3.5 -2t-2.5 -1q-20 -11 -37.5 -19.5t-23.5 -8.5v0z" />
    <glyph glyph-name="plus" unicode="+" horiz-adv-x="400" 
d="M353 154v124h30v-124h125v-30h-125v-124h-30v124h-124v30h124v0z" />
    <glyph glyph-name="comma" unicode="," horiz-adv-x="222" 
d="M337 38q0 -7 -2 -14.5t-5 -15.5q-12 -23 -36.5 -46.5t-52.5 -39.5q-19 -11 -37.5 -18t-32.5 -7q-3 0 -4.5 1t-1.5 3t1 3t3 2q3 1 9 2.5t17 5.5q43 16 58.5 34t17.5 48q3 37 12 51.5t28 14.5q11 0 18.5 -5.5t7.5 -18.5v0z" />
    <glyph glyph-name="hyphen" unicode="-" horiz-adv-x="333" 
d="M456 158l-12 -38h-221l12 38h221v0z" />
    <glyph glyph-name="period" unicode="." horiz-adv-x="222" 
d="M308 62q14 0 21.5 -6.5t7.5 -18.5q0 -20 -9 -31t-30 -11q-12 0 -18.5 5.5t-6.5 21.5q0 17 8 28.5t27 11.5v0z" />
    <glyph glyph-name="slash" unicode="/" horiz-adv-x="278" 
d="M91 -6l154 193l406 512h35l-154 -193l-406 -512h-35v0z" />
    <glyph glyph-name="zero" unicode="0" 
d="M231 120q0 27 8 57.5t22 61.5q27 58 70 112t89 87q23 16 45.5 25t43.5 9q38 0 53.5 -20.5t15.5 -61.5q0 -29 -6.5 -60t-17.5 -62q-24 -64 -62.5 -124t-80.5 -99q-25 -24 -50 -37t-46 -13q-43 0 -63.5 35.5t-20.5 89.5v0zM271 61q0 -24 9.5 -39.5t35.5 -15.5q18 0 37 10.5
t38 28.5q35 33 68 84.5t58 106.5q20 47 32.5 91t12.5 77q0 26 -12 41t-41 15q-19 0 -40 -13.5t-42 -35.5q-33 -35 -64.5 -86.5t-53.5 -106.5q-18 -42 -28 -83t-10 -74v0z" />
    <glyph glyph-name="one" unicode="1" 
d="M264 0q27 43 55 86.5t57 86.5q43 67 86 132t81 129l-2 2q-42 -43 -92.5 -91.5t-116.5 -101.5q-39 -31 -54.5 -42t-22.5 -11q-2 0 -3 1.5t-1 3.5v0v0q0 7 27 25t115 92q93 79 128.5 119.5t43.5 40.5q2 0 3.5 -2.5t1.5 -7.5q0 -10 -46 -105.5t-106 -208.5l-14 -26l-14 -26
q-12 -23 -25 -46t-25 -44q-19 0 -38 -2l-38 -4v0z" />
    <glyph glyph-name="two" unicode="2" 
d="M313 323q0 -20 11.5 -32.5t32.5 -12.5q23 0 45.5 20t38.5 45q7 11 13 22t9 20q8 21 11.5 28t5.5 7h0.5h1.5q1 -1 2 -2.5t1 -4.5q0 -12 -3 -25.5t-8 -27.5q-15 -37 -45 -67.5t-70 -30.5q-23 0 -40.5 14t-17.5 44q0 5 0.5 10t1.5 10q10 49 59.5 90.5t111.5 41.5
q52 0 80.5 -24t28.5 -68q0 -77 -51.5 -116.5t-112.5 -67.5l-11 -5.5t-11 -4.5q-17 -8 -34 -16.5t-32 -17.5q-13 -8 -26 -16.5t-25 -17.5q-26 -20 -44.5 -37.5t-18.5 -22.5v-1.5v-1.5v-1l1 1v-2l9 8.5t23 18.5q11 7 24.5 14t27.5 10q4 1 8 1.5t8 0.5q3 0 6.5 -0.5t6.5 -0.5
q17 -3 32 -16t15 -42q0 -16 5 -23.5t19 -7.5q11 0 25.5 10t30.5 25q8 8 16 16.5t15 17.5q3 3 5.5 6t4.5 6q11 14 16.5 19.5t6.5 5.5q2 0 3.5 -1.5t1.5 -4.5q0 -1 -8.5 -14.5t-40.5 -48.5q-19 -23 -45.5 -40.5t-55.5 -17.5q-31 0 -43.5 15.5t-15.5 37.5q0 3 -0.5 6t-1.5 6
q-2 14 -5.5 19t-14.5 5q-8 0 -21 -6t-27 -16q-11 -7 -21.5 -16.5t-18.5 -19.5q-18 -22 -24 -29.5t-9 -7.5t-4.5 2.5t-1.5 5.5q0 4 7.5 21t21.5 36q5 8 12 16t14 15t15.5 14t16.5 14q32 25 75.5 53t104.5 72q24 17 44.5 40.5t34.5 48.5q11 21 17.5 40.5t6.5 35.5
q0 34 -19.5 45.5t-48.5 11.5q-52 0 -96 -34t-57 -75q-3 -7 -4 -14t-1 -14v0z" />
    <glyph glyph-name="three" unicode="3" 
d="M587 396q0 -47 -33.5 -74t-74.5 -45q-14 -7 -28 -12.5t-27 -11.5q-3 -2 -7 -3.5t-7 -3.5v-2q44 0 69.5 -22.5t25.5 -58.5q0 -62 -59 -112.5t-130 -55.5h-5.5h-5.5q-56 0 -79.5 23t-26.5 52v4.5v5.5t0.5 5.5t0.5 4.5q3 14 13 25.5t24 11.5q17 0 24 -8.5t7 -19.5
q0 -14 -8 -22.5t-25 -13.5q-9 -2 -11.5 -6t-2.5 -9q1 -17 18.5 -29.5t51.5 -12.5q9 0 19 2t20 7q36 15 69 50.5t49 74.5q6 14 9 27.5t3 26.5q0 18 -11.5 28t-33.5 10q-15 0 -27.5 -4t-21.5 -9l-15 -10t-9 -4t-5 2t-2 6q0 1 0.5 2.5t1.5 2.5q5 3 22.5 10.5t56.5 31.5
q72 44 99.5 82t27.5 71q0 23 -12.5 35t-40.5 12q-5 0 -10 -0.5t-10 -1.5q-42 -6 -78.5 -35.5t-42.5 -64.5q-1 -2 -1 -4.5v-5.5q0 -11 6.5 -17.5t13.5 -9.5q3 0 5 -0.5t4 -0.5q7 0 13.5 2t13.5 5q19 10 37 29t32 42q6 10 8 16l3 9q1 2 2 2.5t3 0.5t2.5 -2t0.5 -6q1 -8 -1 -17
t-6 -19q-11 -28 -37.5 -51t-59.5 -23q-22 0 -37 10.5t-15 32.5q0 9 3.5 19.5t9.5 20.5q19 30 58.5 55.5t86.5 25.5h6t6 -1q31 -3 56 -21.5t25 -53.5v0z" />
    <glyph glyph-name="four" unicode="4" 
d="M430 466l81 6q-5 -7 -9.5 -13.5t-9.5 -13.5q-1 -1 -1.5 -2l-1.5 -3q-61 -86 -123.5 -171.5t-130.5 -163.5l2 -2q11 5 24 8t28 3q18 0 30 -1t22 -3h2h1q10 -2 20 -3t25 -1q111 166 135 203t30 38h0.5h0.5q3 0 5 -1.5t2 -3.5q0 -4 -20 -39.5t-98 -194.5q20 0 34 6t26 14
q1 0 2 0.5t2 1.5q1 0 2 0.5t2 1.5q11 7 14 9.5t4 2.5h1v0q1 0 2 -1l2 -2v-1.5v-0.5q0 -3 -5.5 -8.5t-15.5 -12.5q-13 -8 -32.5 -15t-43.5 -7l-44 -96h-17h-21q-5 0 -9.5 -0.5t-9.5 -0.5q-7 0 -13 -0.5t-10 -0.5l66 96q-18 0 -29 1.5t-20 2.5h-2t-2 1q-8 1 -17 2t-23 1
q-16 0 -28.5 -3.5t-21.5 -7.5q-10 -4 -16 -7.5t-8 -3.5t-3 1.5t-1 4.5q0 8 57.5 83t163.5 297v0z" />
    <glyph glyph-name="five" unicode="5" 
d="M428 413l-111 -173v2l2 -2l1.5 1.5l1.5 1.5q16 16 40.5 29t53.5 13q47 0 72.5 -28.5t25.5 -70.5q0 -60 -50.5 -112t-111.5 -71q-13 -4 -26 -6t-26 -2q-51 0 -75 23t-24 53q0 26 12 41.5t31 15.5q17 0 24 -7t7 -20q0 -17 -10.5 -24t-25.5 -9q-9 -1 -10.5 -7t-1.5 -14v-3.5
t1 -3.5q2 -13 15 -23.5t41 -10.5q56 -1 100.5 45t65.5 101q7 20 11 39.5t4 36.5q0 20 -15 32.5t-37 12.5q-24 0 -44 -10.5t-35 -22.5q-15 -13 -25 -23.5t-15 -10.5q-4 0 -6 2t-2 4v0v0q0 4 21 35t121 198q5 7 7 11.5t5 6.5q1 2 2.5 2.5t3.5 0.5q6 0 13.5 -2.5t17.5 -5.5
q11 -3 26 -5.5t37 -2.5q21 0 36.5 3.5t26.5 7.5t17 7.5t7 3.5q2 0 3 -1t1 -3q0 -3 -8 -12.5t-23 -19.5q-18 -13 -47.5 -23.5t-68.5 -10.5h-7.5t-6.5 1q-11 1 -21.5 3.5t-20.5 6.5v0z" />
    <glyph glyph-name="six" unicode="6" 
d="M508 199q0 -13 -2.5 -26t-7.5 -26q-19 -58 -71 -105t-112 -47q-43 0 -64.5 30.5t-21.5 84.5q0 17 2.5 33.5t7.5 33.5q23 77 83 147.5t128 110.5q30 17 59.5 27t55.5 10q39 0 62 -17.5t23 -49.5q0 -18 -9 -30t-19 -15q-2 -1 -3.5 -1h-3.5q-14 0 -22.5 7.5t-8.5 22.5
q0 12 4.5 18t9.5 10q1 1 2.5 1.5t2.5 1.5q4 3 6.5 5.5t2.5 7.5q0 11 -12.5 19t-36.5 8q-12 0 -24.5 -3t-25.5 -9q-37 -16 -73.5 -51t-65.5 -73q-25 -34 -42.5 -65t-23.5 -50l2 -2q4 6 8.5 12.5t10.5 13.5q17 22 42 40.5t56 18.5q35 0 58 -27t23 -66v0zM263 51
q0 -20 11.5 -32.5t27.5 -12.5q5 0 10.5 1t11.5 3q33 11 64 48t51 79q11 24 17.5 47.5t6.5 41.5q0 27 -8.5 40.5t-29.5 13.5h-2.5h-3.5q-38 -4 -74 -45t-58 -90q-11 -26 -17.5 -50.5t-6.5 -43.5v0z" />
    <glyph glyph-name="seven" unicode="7" 
d="M382 481l22 5q-5 -7 -9.5 -14t-8.5 -13q-3 -4 -5 -7.5t-4 -6.5q-7 -11 -14 -21t-14 -19l2 -2q5 4 12.5 11t16.5 14l8 6t9 6q11 7 21.5 12.5t17.5 5.5q13 0 24 -6t21 -13q2 -1 3 -2t3 -2q11 -9 24 -16t30 -7q18 0 30 5.5t22 14.5l4 4t3 4q4 6 6.5 11l4.5 9q2 5 5.5 8.5
t9.5 3.5h0.5h1.5q2 -1 3.5 -3t1.5 -6q0 -12 -16.5 -28.5t-42.5 -53.5q-20 -28 -37 -52t-32 -47q-5 -6 -9 -12l-8 -12q-32 -48 -67.5 -106.5t-87.5 -151.5h-10h-9q-21 0 -35 -1t-26 -4q20 31 44.5 65.5t51.5 69.5q12 16 24 31.5t24 30.5q56 71 107.5 130.5t77.5 86.5l-2 2
q-3 -2 -6 -3.5t-6 -2.5q-17 -9 -35.5 -16t-39.5 -7q-7 0 -14.5 2.5t-14.5 5.5q-6 3 -11 6l-10 6q-13 8 -24 14t-19 6q-18 0 -33 -14t-27 -31q-12 -18 -22.5 -32t-19.5 -14q-5 0 -9 3t-4 9q0 11 9 21t20 20q7 5 13.5 11t10.5 11q3 4 9 13.5t12 20.5q1 1 1.5 2t0.5 2
q7 11 12.5 21.5t8.5 15.5v0z" />
    <glyph glyph-name="eight" unicode="8" 
d="M483 149q0 -58 -47 -106t-120 -48q-51 0 -78 27.5t-27 61.5q0 40 31.5 72t69.5 54q19 11 37 19.5t32 14.5q-13 23 -24.5 49t-11.5 54q0 52 44 88t96 37h1.5h1.5q40 0 65 -18.5t25 -59.5q0 -46 -32 -75t-70 -49q-8 -4 -16 -7.5t-16 -7.5q2 -3 3.5 -6t3.5 -6
q12 -22 22 -45.5t10 -48.5v0zM433 121q0 10 -2 20.5t-6 21.5q-5 17 -13 33t-17 28q-2 3 -3.5 5.5t-3.5 4.5q-9 -4 -18 -8.5l-19 -9.5q-40 -21 -73 -54.5t-33 -80.5q0 -40 20.5 -57.5t57.5 -17.5q48 0 79 34t31 81v0zM556 399q0 30 -18 45.5t-50 15.5q-36 0 -64.5 -30
t-28.5 -69q0 -28 13 -51t29 -44q46 18 82.5 51t36.5 82v0z" />
    <glyph glyph-name="nine" unicode="9" 
d="M309 275q0 11 1.5 22t5.5 22q17 57 67.5 105t107.5 48q49 0 68 -30.5t19 -76.5q0 -114 -63 -203.5t-139 -132.5q-29 -17 -57 -25.5t-53 -8.5q-40 0 -70.5 18t-30.5 63q0 15 8.5 25.5t26.5 10.5q12 0 19 -7t9 -15q0 -2 0.5 -4t0.5 -4q0 -10 -4 -16t-9 -11l-3.5 -3.5
l-3.5 -3.5t-4 -5t-2 -7q0 -13 14.5 -21.5t44.5 -8.5q61 0 115.5 50t90.5 110q17 30 29.5 59t16.5 51l-2 2q-10 -16 -19 -29t-18 -24q-21 -24 -42 -35.5t-45 -11.5q-43 0 -61 30t-18 67v0zM502 460q-39 0 -69 -36t-49 -79q-15 -34 -23 -64.5t-8 -43.5q0 -20 10 -33.5
t32 -13.5q11 0 22.5 5t23.5 14q27 20 52.5 57t38.5 76q6 17 9 33t3 31q0 25 -9.5 39.5t-32.5 14.5v0z" />
    <glyph glyph-name="colon" unicode=":" horiz-adv-x="333" 
d="M308 62q14 0 21.5 -6.5t7.5 -18.5q0 -20 -9 -31t-30 -11q-12 0 -18.5 5.5t-6.5 21.5q0 17 8 28.5t27 11.5v0zM430 260q14 0 21.5 -6.5t7.5 -18.5q0 -20 -9 -31.5t-30 -11.5q-12 0 -18.5 6t-6.5 22q0 17 8 28.5t27 11.5v0z" />
    <glyph glyph-name="semicolon" unicode=";" horiz-adv-x="333" 
d="M337 38q0 -7 -2 -14.5t-5 -15.5q-12 -23 -36.5 -46.5t-52.5 -39.5q-19 -11 -37.5 -18t-32.5 -7q-3 0 -4.5 1t-1.5 3t1 3t3 2q3 1 9 2.5t17 5.5q43 16 58.5 34t17.5 48q3 37 12 51.5t28 14.5q11 0 18.5 -5.5t7.5 -18.5v0zM430 260q14 0 21.5 -6.5t7.5 -18.5
q0 -20 -9 -31.5t-30 -11.5q-12 0 -18.5 6t-6.5 22q0 17 8 28.5t27 11.5v0z" />
    <glyph glyph-name="less" unicode="&#x3c;" horiz-adv-x="400" 
d="M497 26v-30l-278 128v30l278 128v-30l-244 -113l244 -113v0z" />
    <glyph glyph-name="equal" unicode="=" horiz-adv-x="400" 
d="M508 100v-30h-279v30h279v0zM508 208v-30h-279v30h279v0z" />
    <glyph glyph-name="greater" unicode="&#x3e;" horiz-adv-x="400" 
d="M255 -4v30l244 113l-244 113v30l279 -128v-30l-279 -128v0z" />
    <glyph glyph-name="question" unicode="?" 
d="M268 62q14 0 21.5 -6.5t7.5 -18.5q0 -20 -9 -31t-30 -11q-12 0 -18.5 5.5t-6.5 21.5q0 17 8 28.5t27 11.5v0zM498 490q40 0 63 -26t23 -65q0 -57 -33.5 -88t-73.5 -54q-5 -3 -9.5 -5.5t-9.5 -5.5q-6 -4 -12.5 -7.5t-12.5 -7.5q-12 -8 -22.5 -15.5t-19.5 -15.5
q-46 -40 -64 -73t-26 -33q-2 0 -3 2t-1 4q0 4 18.5 31t46.5 59q11 13 23 26t25 24q74 65 104 109.5t30 83.5q0 23 -15.5 34t-37.5 11h-5.5t-4.5 -1q-33 -3 -60.5 -25.5t-27.5 -51.5q1 -1 2.5 -1.5t3.5 -0.5q10 -5 17 -11t7 -20q0 -10 -8 -18.5t-21 -8.5q-16 0 -23.5 10.5
t-7.5 26.5q0 38 33.5 69t73.5 41l14 2t14 1v0z" />
    <glyph glyph-name="at" unicode="@" horiz-adv-x="801" 
d="M806 472l11 41h44l-66 -258q-2 -7 -3 -12.5t-2 -10.5v-2v-2v-3.5t1 -3.5q3 -17 19 -30.5t36 -13.5q71 0 109 60.5t46 133.5q1 10 1.5 19.5t0.5 19.5q0 17 -3.5 35.5t-9.5 37.5q-26 73 -101.5 134.5t-194.5 61.5q-139 0 -230 -92.5t-91 -250.5q0 -130 87.5 -223t243.5 -93
q60 0 102 11.5t80 27.5q5 3 10 5l10 4l14 -17q-2 -1 -3.5 -1.5t-3.5 -1.5q-48 -20 -99 -36.5t-109 -16.5q-152 0 -241 72t-122 158q-11 28 -16 54.5t-5 51.5q0 166 111 267t262 101q142 0 238.5 -85.5t96.5 -215.5q0 -16 -2 -32.5t-6 -33.5q-16 -66 -62 -121.5t-118 -55.5
q-29 0 -47.5 11.5t-28.5 25.5q-8 11 -11.5 21t-3.5 14h-2q-4 -6 -11 -14.5t-18 -17.5q-16 -15 -39 -27t-51 -12q-45 0 -71.5 31.5t-26.5 94.5q0 19 7 47.5t21 58.5q23 50 66 91.5t107 41.5q31 0 47.5 -15t26.5 -34v0zM792 420q0 32 -14.5 49t-52.5 17h-2.5h-3.5
q-49 -4 -92.5 -55.5t-55.5 -113.5q-2 -9 -3 -19t-1 -19q0 -50 19.5 -69.5t52.5 -19.5q13 0 29.5 8t33.5 23q30 27 56.5 77.5t33.5 121.5v0z" />
    <glyph glyph-name="A" unicode="A" horiz-adv-x="1057" 
d="M1054 58l-22 -58h-72l28 62q-3 0 -6.5 0.5t-6.5 1.5q-51 8 -100 24.5t-89 46.5q-67 -59 -158 -99.5t-203 -40.5q-103 0 -179.5 55.5t-76.5 145.5q0 84 55 139t121 77q20 7 40 10.5t38 3.5q92 0 140.5 -46t48.5 -105q0 -70 -54 -113t-118 -52q-8 -1 -15.5 -1.5t-15.5 -0.5
q-31 0 -38.5 2t-7.5 7q0 3 1 4.5t5 1.5q2 0 4.5 -0.5t6.5 -0.5q3 -1 8 -1.5t11 -0.5q78 0 137.5 41.5t59.5 111.5q0 50 -38.5 82.5t-115.5 32.5q-11 0 -21.5 -1t-21.5 -3q-77 -14 -140.5 -69.5t-63.5 -136.5q0 -73 70 -122t154 -50h1.5h1.5q101 0 186 33.5t167 103.5
q-52 41 -88.5 94.5t-36.5 122.5q0 71 40.5 111t88.5 47q6 1 11.5 1.5t10.5 0.5q69 0 124.5 -43t83.5 -101q157 172 267.5 247.5t144.5 75.5q3 0 4 -2t1 -5q0 -4 -45 -56.5t-118 -171.5q-35 -57 -64.5 -113t-57.5 -112q-6 -13 -12.5 -26t-12.5 -26q-14 -29 -28.5 -58.5
t-29.5 -58.5q21 0 42.5 5t45.5 14q10 4 18.5 8t15.5 9q22 14 32.5 25.5t13.5 11.5q2 0 3.5 -1.5t1.5 -3.5q0 -3 -11 -14.5t-33 -25.5q-23 -14 -56 -26t-77 -14v0zM1024 233q0 10 -0.5 20t-1.5 21q-3 22 -7.5 42.5t-10.5 35.5q-19 -18 -36.5 -37t-35.5 -38q-1 0 -2 -1t-1 -2
q-32 -34 -64.5 -67t-68.5 -63q26 -20 57.5 -33.5t63.5 -22.5q19 -5 38 -8.5t37 -5.5q14 38 23 78t9 81v0zM1028 148l2 -2q63 145 152 278t204 243l-2 2q-30 -4 -118.5 -73t-188.5 -169q-16 -16 -31.5 -32t-31.5 -33q6 -15 10.5 -30.5t6.5 -30.5q3 -15 4 -30.5t1 -30.5
q0 -24 -2 -47t-6 -45v0zM688 342q0 -67 28.5 -113t67.5 -77q41 35 79 73t76 77q6 7 12.5 13.5l12.5 12.5q9 10 17.5 19t17.5 18q-27 50 -67 87t-102 37h-2.5h-3.5q-51 -2 -93.5 -37.5t-42.5 -109.5v0z" />
    <glyph glyph-name="B" unicode="B" horiz-adv-x="945" 
d="M930 366v-2q56 -13 96 -52t40 -99q0 -76 -61.5 -135.5t-135.5 -77.5q-13 -2 -25.5 -3.5t-24.5 -1.5q-45 0 -80 26t-35 71q0 29 13 54.5t29 43.5q3 4 5.5 6.5l5.5 5.5l4.5 4.5l4.5 4.5t4.5 4t5.5 4q12 11 22.5 19t12.5 8h0.5t1.5 -1q1 0 2 -1.5t1 -3.5q0 -3 -12.5 -11.5
t-35.5 -30.5q-13 -12 -23.5 -27t-17.5 -31q-5 -11 -8 -22.5t-3 -21.5q0 -42 28 -66t68 -24q68 0 117 53.5t65 118.5q4 14 6 28.5t2 28.5q0 59 -21.5 86.5t-47.5 32.5q-4 1 -8 1.5t-8 0.5q-10 0 -16.5 -1.5t-11.5 -3.5q-1 0 -2 -0.5t-2 -0.5q-6 -2 -14.5 -4t-23.5 -2
q-10 0 -14.5 4t-4.5 10q0 8 8.5 12t30.5 4q8 0 13 -0.5t10 -0.5q4 0 7 -0.5t6 -0.5q47 0 80 38t45 84q4 13 6 26t2 25q0 38 -11 62t-37 40q-58 -39 -100 -100t-78 -126q-11 -21 -22 -41t-21 -40q-10 -18 -19.5 -34.5t-19.5 -32.5q-7 -12 -15.5 -24t-16.5 -24
q-61 -87 -149.5 -158.5t-198.5 -71.5q-52 0 -86.5 24.5t-34.5 60.5q0 17 12 28.5t29 11.5q18 0 27.5 -8.5t9.5 -27.5q0 -5 -1.5 -9.5t-3.5 -8.5q-2 -5 -3.5 -9t-1.5 -8q0 -17 13.5 -30t44.5 -13q35 0 68 9.5t66 31.5q45 30 89.5 87.5t92.5 150.5q4 7 7.5 14t7.5 14
q61 116 128 198t162 144q-33 15 -70.5 23t-75.5 11q-11 1 -22.5 1.5t-22.5 0.5q-14 0 -28.5 -1t-28.5 -3q-15 -1 -29.5 -4t-28.5 -6q15 -14 25 -35t15 -43q2 -10 3 -20.5t1 -20.5q0 -13 -1.5 -25.5t-3.5 -25.5q-21 -99 -105 -181t-189 -82q-45 0 -76.5 27.5t-31.5 79.5
q0 90 76 170t167 124q25 13 49 22t47 14q-24 19 -53 27.5t-59 8.5q-76 0 -138 -37.5t-97 -81.5q-2 -3 -4 -5.5t-4 -5.5q-38 -56 -47 -79.5t-11 -29.5l-1.5 -1.5t-1.5 -0.5q-2 0 -3.5 0.5t-1.5 4.5t12.5 35t43.5 74q40 57 107.5 98t146.5 41h5.5h4.5q32 -2 61.5 -13t53.5 -30
q22 5 43.5 9t42.5 6q11 1 21.5 1.5t21.5 0.5q52 0 103 -9.5t99 -29.5l8 4t8 5l8 4l8 4q10 5 19.5 8.5t18.5 3.5q2 0 3 -1t1 -3q0 -1 -0.5 -1.5t-2.5 -1.5q-5 -3 -19.5 -7.5t-37.5 -20.5q41 -21 66 -55.5t25 -78.5q0 -55 -40.5 -92t-89.5 -55q-8 -4 -17 -6.5t-17 -4.5v0z
M321 348q0 -40 22.5 -64t68.5 -24q4 0 8 0.5t9 0.5q66 8 127.5 68.5t95.5 130.5q14 30 22 59t8 54q0 36 -7.5 61t-20.5 39q-25 -6 -52.5 -16t-56.5 -24q-84 -42 -154 -115.5t-70 -169.5v0z" />
    <glyph glyph-name="C" unicode="C" horiz-adv-x="668" 
d="M1020 635q0 -23 -13.5 -47.5t-37.5 -49.5q-58 -60 -162.5 -114t-218.5 -77q-27 -5 -54 -8.5t-53 -4.5q-23 -49 -38.5 -101.5t-15.5 -107.5q0 -61 21.5 -89t85.5 -30q0 3 -0.5 5.5t-0.5 4.5t-0.5 3t-0.5 3q0 3 -0.5 7t-0.5 8q0 117 56 194t137 77q38 0 58 -25t20 -61
q0 -69 -59 -127.5t-129 -84.5q-17 -6 -33.5 -9.5t-32.5 -4.5q1 -16 3.5 -29t4.5 -24q4 -17 7 -27.5t3 -12.5q0 -3 -1.5 -4.5t-3.5 -1.5t-5 8t-7 21q-1 6 -3 12.5t-3 13.5q-3 12 -4.5 23.5t-2.5 19.5q-85 0 -129 47.5t-44 126.5q0 17 3.5 36t9.5 39q6 22 14.5 43.5t17.5 38.5
q1 3 2.5 5.5t2.5 4.5q-76 7 -133 59t-57 128q0 90 67.5 148t173.5 58q23 0 49.5 -5t53.5 -15q37 -14 72.5 -37.5t63.5 -58.5l18 10t19 10q27 14 56.5 27.5t60.5 22.5q22 8 45 12t44 4q32 0 53 -15t21 -49v0zM790 223q0 31 -15 50t-47 19q-7 0 -15 -1.5t-15 -4.5
q-48 -17 -89.5 -77t-55.5 -129q-3 -13 -4.5 -26t-1.5 -26v-22q17 1 36 5.5t38 12.5q63 25 116 80.5t53 118.5v0zM954 687q-18 0 -36.5 -3t-37.5 -8q-33 -9 -65.5 -23t-59.5 -29q-12 -6 -22.5 -13l-19.5 -13q4 -6 8.5 -11.5t8.5 -11.5q19 -29 30.5 -53t11.5 -25q0 -3 -1 -4.5
t-5 -1.5t-14 26t-48 76q-65 -42 -117 -99.5t-92 -125.5q146 0 269.5 53.5t188.5 116.5q26 27 40.5 52t14.5 47q0 20 -12 35t-42 15v0zM454 717q-94 0 -154.5 -54t-60.5 -122q0 -62 45 -103t99 -57q13 -4 25.5 -6t24.5 -3q26 44 66 84.5t82 73.5q30 24 59 43.5t53 33.5
q-43 54 -107 82t-132 28v0z" />
    <glyph glyph-name="D" unicode="D" horiz-adv-x="890" 
d="M259 27q0 10 10.5 13.5t31.5 3.5q26 0 49 -3.5t44 -8.5q7 -2 15 -3.5t16 -2.5q12 -3 25 -4.5t27 -1.5q62 0 117 70t103 154q8 15 16.5 30t16.5 30q43 79 82.5 137.5t77.5 102.5q18 20 36 37.5t36 32.5q-25 26 -65 43t-84 25q-15 2 -30.5 3.5t-30.5 1.5h-15t-16 -1
q-13 -1 -26.5 -2.5t-24.5 -3.5q18 -17 29.5 -41.5t17.5 -50.5q4 -14 5.5 -28t1.5 -27q0 -15 -2 -31t-6 -32q-21 -91 -93.5 -167.5t-167.5 -76.5q-61 0 -100.5 38.5t-39.5 100.5q0 110 85 191.5t187 116.5q14 4 28.5 8t28.5 7q-19 13 -41.5 20.5t-46.5 10.5q-8 1 -15.5 1.5
t-15.5 0.5q-79 0 -139.5 -38t-104.5 -100q-3 -5 -6 -9.5t-6 -9.5q-37 -59 -47.5 -112.5t-15.5 -74.5q-1 -6 -2 -8.5t-3 -2.5q-1 0 -2.5 1.5t-1.5 5.5q0 6 7 52.5t32 100.5q4 11 10 21.5t12 20.5q53 83 123 124t146 41q15 0 31.5 -2.5t34.5 -7.5q17 -5 33.5 -13t31.5 -19
q27 4 49.5 6t37.5 2q14 0 29 -1t30 -3q47 -7 91.5 -25t75.5 -48q9 7 19.5 14.5t20.5 14.5q31 20 57.5 34t28.5 14t3.5 -2.5t1.5 -6.5t-34 -20t-75 -55l-4 -4l-4 -4q35 -38 53 -86.5t20 -98.5v-5.5v-5.5q0 -209 -155.5 -312.5t-346.5 -103.5q-10 0 -20 1t-21 2q-10 1 -20 1.5
t-21 0.5q-13 0 -26 -0.5t-26 -1.5t-25.5 -2t-25.5 -1q-57 0 -84.5 7.5t-27.5 24.5v0zM489 10v-2h2h2h18.5t21.5 -1q9 0 19.5 -0.5t23.5 -0.5q182 0 326 105.5t144 294.5q0 11 -0.5 22.5t-2.5 22.5q-5 41 -21 80t-45 68q-41 -46 -72 -99t-60 -108q-5 -10 -10.5 -20t-10.5 -19
q-9 -18 -19 -35.5t-20 -35.5q-12 -20 -26 -41t-30 -43q-47 -61 -109 -115.5t-131 -72.5v0zM365 322q0 -46 26.5 -65t67.5 -19q87 0 154.5 70t89.5 154q4 17 6.5 33.5t2.5 32.5q0 9 -0.5 17.5t-1.5 17.5q-5 32 -17.5 62t-35.5 52q-5 -2 -10.5 -3.5t-11.5 -3.5
q-101 -37 -185.5 -132t-84.5 -216v0z" />
    <glyph glyph-name="E" unicode="E" horiz-adv-x="557" 
d="M552 400v2q-16 6 -31 15.5t-29 22.5q-15 -4 -30 -6t-30 -2q-82 0 -137.5 38t-55.5 105t51 106t112 48q9 1 17 1.5t16 0.5q50 0 97 -18.5t84 -49.5q38 18 79.5 32t84.5 14q27 0 42.5 -11.5t15.5 -39.5q0 -11 -4 -22t-12 -22q-20 -32 -61.5 -62t-86.5 -53
q-43 -22 -82.5 -36t-61.5 -15q5 -16 15.5 -29t29.5 -13q2 0 6 0.5t8 1.5q5 1 11 1.5t12 0.5h2.5h2.5q13 -1 24 -5.5t11 -9.5q0 -7 -6 -10t-17 -3q-13 0 -22 2t-16 4t-11.5 4t-9.5 2q-20 0 -45.5 -8t-52.5 -24q-53 -32 -98 -92t-45 -142q0 -55 23 -84.5t69 -36.5
q-1 6 -2 12.5t-1 13.5q-1 3 -1 6.5v6.5q0 114 60 188t136 74q37 0 57 -26t20 -60q0 -71 -59.5 -132t-131.5 -84q-16 -6 -32 -8.5t-32 -2.5q0 -2 0.5 -4.5t0.5 -4.5l4 -22t5 -21q3 -16 6.5 -27t3.5 -14q0 -2 -1.5 -2.5t-3.5 -0.5q-1 0 -2 1t-2 3q-2 4 -4 13t-7 26l-2 6t-1 6
q-3 11 -5.5 22t-3.5 19q-68 0 -115 36.5t-47 108.5q0 87 67.5 149.5t148.5 91.5q19 7 38 11.5t37 7.5v0zM678 222q0 31 -16 50.5t-48 19.5q-10 0 -21 -3.5t-22 -9.5q-38 -21 -73 -70t-52 -104q-6 -19 -9.5 -38t-3.5 -37v-13t1 -11q15 -1 30.5 1.5t31.5 7.5q66 21 121 77
t61 119v5.5v5.5v0zM265 597q0 -69 53 -102t124 -33q8 0 17 0.5t18 1.5q-1 7 -1.5 14t-0.5 14q0 50 34.5 89t75.5 64q5 3 10.5 6t10.5 6q-37 29 -81.5 45.5t-91.5 16.5q-13 0 -28.5 -2.5t-31.5 -6.5q-40 -12 -74 -40.5t-34 -72.5v0zM826 665q0 17 -11 24.5t-35 7.5
q-11 0 -23.5 -2.5t-24.5 -6.5q-17 -6 -34 -14.5t-32 -17.5q-6 -4 -12 -7.5t-12 -7.5l1.5 -1.5l1.5 -1.5q0 -1 1 -1.5t1 -1.5q16 -17 29 -32t13 -16q0 -3 -1.5 -4.5t-3.5 -1.5h-0.5h-0.5q-4 2 -12.5 14t-38.5 40q-43 -31 -73.5 -73t-30.5 -94q22 3 46.5 9.5t48.5 16.5
q68 25 126.5 65t72.5 84q2 5 3 10.5t1 11.5v0z" />
    <glyph glyph-name="F" unicode="F" horiz-adv-x="890" 
d="M438 394q-9 0 -18 -0.5t-19 -2.5q-84 -11 -155 -68.5t-71 -140.5q0 -78 72 -127t184 -49q161 0 260.5 79.5t174.5 216.5q-36 -10 -66 -28t-53 -37q-4 -4 -8 -7.5t-8 -6.5q-18 -17 -23 -24.5t-8 -9.5q0 -1 -0.5 -1h-1.5q-3 0 -4 2t-1 4t17 22t50 44q22 16 51.5 31.5
t64.5 24.5q5 8 10 15.5t10 14.5l1.5 3t1.5 2q35 54 68.5 102t58.5 73q50 47 92.5 74t49.5 27q2 0 3 -1t1 -3q0 -4 -20 -15t-52 -39l-6 -6l-6 -6q-21 -22 -41.5 -53t-38.5 -64q-19 -33 -34.5 -63.5t-27.5 -52.5q6 1 11.5 2.5t10.5 2.5q27 7 53 14.5t49 15.5q19 7 35 13.5
t26 12.5q1 1 2 1.5t2 0.5q6 3 9.5 6t6.5 3t5 -2t2 -4t-20 -23.5t-44 -57.5q-13 -21 -26 -45t-22 -52q-12 -6 -28 -12.5t-33 -14.5q-7 -3 -13.5 -6t-13.5 -7l-2 2q7 20 27.5 49.5t46.5 60.5q8 9 15.5 17.5t15.5 17.5q9 10 18 19t17 18l-2 2q-32 -14 -67.5 -23.5t-72.5 -18.5
l-8 -2l-8 -2q-78 -148 -207.5 -232.5t-301.5 -84.5q-114 0 -194 54t-80 151q0 95 82.5 160.5t185.5 65.5q11 0 22 -1t22 -3q57 -9 105 -44t48 -100q0 -74 -58.5 -117.5t-129.5 -51.5q-7 0 -13.5 -0.5t-13.5 -0.5q-27 0 -52 6t-43 14q-13 5 -21 10.5t-8 7.5q0 3 1 5.5t3 2.5
q3 0 11 -5.5t23 -11.5t37.5 -11.5t52.5 -5.5q7 0 13.5 0.5t13.5 1.5q63 7 115.5 46t52.5 108q0 53 -41.5 85.5t-124.5 32.5v0zM896 665q-148 0 -225.5 -50t-88.5 -110q-1 -5 -1.5 -10t-0.5 -10q0 -37 27.5 -60t70.5 -23q72 0 131.5 34.5t99.5 77.5q33 36 43 55.5t14 19.5
q2 0 3.5 -1t1.5 -3q1 0 1 -0.5v-1.5q0 -2 -17 -34.5t-49 -70.5q-34 -40 -83.5 -73t-114.5 -33q-66 0 -105 34t-39 76q0 11 2 23t7 24q13 35 52 68.5t113 61.5q1 0 2 0.5t2 0.5q56 20 138.5 25.5t297.5 5.5q50 0 86.5 3t61.5 6t40 6t22 3q1 0 1.5 -1t0.5 -2v-1.5v-0.5
q0 -3 -8 -12t-24 -19q-20 -12 -50.5 -22t-72.5 -10q-27 0 -52 1.5t-50 4.5q-14 1 -27.5 2.5t-27.5 3.5q-40 5 -84 8.5t-98 3.5v0z" />
    <glyph glyph-name="G" unicode="G" horiz-adv-x="834" 
d="M994 351l-2 2l-28.5 -28.5t-33.5 -30.5q-34 -31 -73 -58.5t-80 -41.5q-14 -5 -28 -7.5t-28 -2.5q-52 0 -81.5 37t-29.5 86q0 3 0.5 6.5t0.5 7.5q1 3 1.5 6.5t1.5 6.5q-11 0 -22.5 1t-23.5 3q-67 14 -123 61.5t-56 119.5q0 98 71.5 154t164.5 56q68 0 132 -29.5t109 -80.5
q9 5 20.5 10.5t23.5 11.5q21 10 44.5 19.5t48.5 17.5q29 9 57.5 15t52.5 6q35 0 55 -15.5t20 -39.5v-3.5v-3.5q0 -22 -12 -45t-34 -47q-54 -58 -154.5 -111.5t-210.5 -80.5q-24 -6 -48.5 -10.5t-48.5 -6.5q-3 -6 -5.5 -14.5t-4.5 -17.5q-1 -5 -1.5 -10.5t-0.5 -10.5
q0 -49 15 -66t40 -17q6 0 12.5 0.5t12.5 1.5q48 8 93.5 37.5t83.5 64.5q44 38 74.5 70.5t39.5 32.5h0.5h1.5q2 -1 3.5 -2t1.5 -2v-0.5v-1.5q-2 -9 -29 -46.5t-103 -210.5q-67 -154 -196 -238.5t-275 -84.5q-112 0 -187 54.5t-75 138.5q0 85 65.5 145t144.5 79q16 4 32 6
t31 2q77 0 135.5 -39t58.5 -111q0 -70 -55.5 -113.5t-122.5 -50.5q-6 0 -11.5 -0.5t-11.5 -0.5q-32 0 -60.5 6t-47.5 13q-12 5 -19 9t-7 7v0.5t1 1.5l1 1t2 1q0 1 1 1h1q3 0 12 -4.5t24 -9.5t36.5 -9.5t50.5 -4.5q8 0 16 0.5t16 1.5q61 9 111.5 47t50.5 105q0 56 -47 87.5
t-112 31.5q-14 0 -28 -1.5t-28 -4.5q-80 -16 -147 -72.5t-67 -142.5q0 -65 65 -113.5t171 -48.5q119 0 201 59t152 165q69 104 122.5 187.5t75.5 106.5v0zM1176 639q0 26 -14.5 37t-47.5 11q-21 0 -44 -4t-46 -11q-39 -12 -76.5 -31t-65.5 -40q23 -34 39.5 -61.5t16.5 -35.5
q0 -2 -2.5 -4t-5.5 -2t-17 29.5t-41 65.5q-59 -42 -108.5 -97.5t-73.5 -125.5q23 0 46.5 2.5t46.5 6.5q110 19 209.5 71.5t148.5 110.5q17 20 26 40t9 38v0zM405 537q0 -66 53 -106.5t116 -52.5q12 -2 24 -3t24 -1q29 76 90.5 132t129.5 98q3 2 6.5 4.5t7.5 4.5
q-42 49 -104 76.5t-134 27.5q-93 0 -150.5 -53t-62.5 -116v-5.5v-5.5v0z" />
    <glyph glyph-name="H" unicode="H" horiz-adv-x="1057" 
d="M896 318l2 -2q10 5 36.5 15.5t57.5 21.5q2 1 4.5 2t4.5 2q31 11 58.5 20.5t40.5 14.5q18 25 48.5 60.5t67.5 73.5q30 30 63 59t67 53q39 27 76.5 44t70.5 17q25 0 41.5 -11t16.5 -37q0 -58 -66.5 -107.5t-145.5 -85.5q-50 -23 -96.5 -39.5t-76.5 -25.5
q-10 -17 -26.5 -45.5t-33.5 -63.5q-13 -25 -25.5 -53t-22.5 -56q-11 -33 -18.5 -65t-7.5 -61q0 -15 6 -24t16 -9q23 0 51.5 17.5t65.5 53.5q30 29 42.5 45t16.5 16q2 0 3.5 -1.5t1.5 -3.5q0 -3 -20.5 -26t-49.5 -50q0 -1 -1 -1.5t-2 -1.5q-9 -8 -18.5 -16t-18.5 -15
q-19 -14 -37.5 -23.5t-33.5 -9.5q-28 0 -47 21.5t-19 74.5q0 72 22.5 132t49.5 104q6 10 12 19t12 17l-2 2q-17 -5 -42 -13.5t-52 -18.5l-16 -6l-16 -6q-21 -8 -39 -15.5t-30 -14.5q-71 -127 -187 -214t-277 -87q-111 0 -182.5 52t-71.5 138q0 113 83.5 178t189.5 65h8t8 -1
q61 -4 111.5 -42t50.5 -104q0 -70 -57.5 -115.5t-127.5 -53.5q-7 -1 -14.5 -1.5t-14.5 -0.5h-1.5h-1.5q-24 0 -46.5 4.5t-37.5 9.5q-9 3 -14.5 6t-5.5 5q0 4 2 5.5t5 1.5q2 0 10 -3t20 -7q13 -4 29.5 -7t35.5 -3q11 0 22 1t22 3q60 11 109.5 50t49.5 104q0 48 -44 81
t-116 33h-1.5h-1.5q-94 -1 -173 -62t-79 -162q0 -67 64.5 -115.5t170.5 -48.5q125 0 224 79t154 185q-10 -4 -21.5 -9.5t-23.5 -12.5q-5 -2 -10 -5l-10 -6q-24 -15 -42.5 -27t-20.5 -12q-3 0 -5.5 1t-2.5 4q0 5 26.5 21.5t61.5 35.5q5 3 10.5 6t10.5 5q11 6 21 11l20 10
q17 27 41.5 67t54.5 83q27 39 57 76t60 64q3 2 5.5 4.5t5.5 4.5l-2 2q-10 -6 -20.5 -12t-21.5 -13q-22 -12 -45 -23.5t-46 -18.5q-11 -3 -22 -5t-22 -2q-35 0 -52 18t-17 53q0 15 1 26t2 19q1 9 2 15t1 11q0 10 -4 16t-11 6q-10 0 -46 -20t-96 -82q-51 -53 -72.5 -88
t-26.5 -35q-3 0 -4.5 1.5t-1.5 4.5q0 2 21 32.5t52 66.5q8 10 16.5 19t17.5 18q34 35 66.5 60t65.5 34q8 3 16 4t16 1q31 0 41.5 -19.5t11.5 -42.5v-1.5v-1.5q0 -7 -0.5 -12.5t-0.5 -11.5q0 -2 -0.5 -3.5t-0.5 -3.5q-1 -8 -1.5 -16t-0.5 -19q0 -22 5 -27.5t19 -5.5
q30 0 67.5 18t76.5 42q7 5 15 10t15 10q4 2 8 4.5t8 5.5q10 7 20.5 15t21.5 17q21 18 41.5 33t36.5 15q7 0 11.5 -2.5t4.5 -9.5t-5.5 -12t-15.5 -10q-15 -7 -39 -16.5t-50 -28.5q-6 -4 -13 -10t-13 -12q-14 -14 -29 -35.5t-30 -46.5q-10 -18 -20.5 -37t-21.5 -39
q-19 -35 -37.5 -68.5t-35.5 -59.5v0zM1521 649q0 19 -9 26.5t-28 7.5q-30 0 -68.5 -22t-78.5 -57q-38 -33 -75 -75.5t-66 -86.5q-5 -7 -9.5 -14t-8.5 -14q25 8 68.5 22.5t90.5 35.5q69 31 126.5 75t57.5 102v0z" />
    <glyph glyph-name="I" unicode="I" horiz-adv-x="779" 
d="M185 196q0 83 64 142t140 78q16 4 32 6t31 2h10t11 -1q66 -5 121.5 -43t55.5 -109t-61 -119t-150 -48h-5.5h-5.5q-22 2 -43 7.5t-38 11.5q-15 6 -24.5 11t-9.5 7q0 5 1.5 6t3.5 1q3 0 12.5 -5t24.5 -11q16 -6 37 -11t47 -5q87 0 143 44.5t56 108.5q0 60 -44 88.5
t-97 31.5q-5 1 -9.5 1h-8.5q-10 0 -19.5 -0.5t-19.5 -2.5q-86 -11 -157.5 -69.5t-71.5 -150.5q0 -69 51.5 -105.5t112.5 -48.5q18 -4 36 -5.5t34 -1.5q155 0 244 93.5t159 216.5q-46 4 -81 29.5t-35 77.5q0 95 82 152t180 86q70 21 133.5 29.5t98.5 8.5q2 0 3 -2t1 -4
l-0.5 -0.5t-1.5 -0.5q-6 -2 -36 -11t-80 -50q-46 -38 -79 -93.5t-63 -114.5l-4 -8t-4 -7q-10 -20 -20 -39.5t-21 -38.5q26 4 48 16t39 26q22 17 35 30.5t15 13.5t3 -1t1 -5q0 -5 -13 -18.5t-33 -28.5q-19 -14 -43 -26.5t-48 -18.5q-3 0 -5.5 -1t-5.5 -1q-3 -6 -6.5 -12
t-6.5 -12q-54 -97 -114.5 -158t-157.5 -102q-53 -22 -101.5 -29.5t-92.5 -7.5q-7 0 -15 0.5t-15 0.5q-83 7 -151.5 57.5t-68.5 142.5v0zM1168 680v2h-2t-2 1h-2h-2q-17 0 -72.5 -10t-119.5 -35q-74 -28 -136 -81t-62 -137q0 -36 17.5 -63t66.5 -29q7 13 14 26.5t15 26.5
q39 67 88 130t100 107q24 22 49 38t48 24v0z" />
    <glyph glyph-name="J" unicode="J" horiz-adv-x="834" 
d="M794 0l2 -2q37 12 67 28.5t54 34.5q5 5 10 9l10 8q37 32 51.5 51.5t17.5 19.5t4.5 -2t1.5 -4t-12 -16t-28 -31l-7.5 -7.5t-7.5 -6.5q-5 -5 -9.5 -8.5t-8.5 -7.5q-3 -2 -6 -4.5t-6 -5.5q-29 -23 -66.5 -43.5t-80.5 -32.5q-5 -7 -10 -14.5t-11 -14.5q-76 -100 -190 -184
t-242 -84q-115 0 -181.5 57t-66.5 148q0 94 71 161t163 67q65 0 116.5 -37t51.5 -107q0 -12 -2.5 -23.5t-5.5 -22.5q0 -2 -1 -4.5t-1 -4.5q-1 -4 -2 -7.5t-2 -6.5q64 26 129 48t132 34q12 19 24 41l24 44q3 5 6 11t6 11q28 52 54 100.5t46 81.5q-46 0 -83 30t-37 85
q0 99 90.5 165.5t199.5 102.5q65 21 126.5 31.5t103.5 10.5q6 0 8 -1.5t2 -3.5q0 -1 -0.5 -1.5t-2.5 -1.5q-12 -6 -71.5 -30t-131.5 -136q-44 -69 -70 -119t-49 -95q-2 -5 -4.5 -10t-5.5 -10q8 1 17.5 4t19.5 7q10 5 19.5 10t17.5 10q35 22 45.5 38t15.5 16q3 0 4 -1t1 -3
t-12 -17t-35 -33q-18 -15 -44.5 -28.5t-58.5 -18.5q-8 -14 -15.5 -28t-15.5 -28q-5 -9 -10 -18.5t-10 -18.5q-26 -47 -52 -92.5t-56 -89.5v0zM99 -132q0 -78 62 -124.5t136 -48.5h3.5h2.5q128 0 240 84t176 190q-22 -3 -55 -11.5t-68 -19.5q-14 -5 -28 -9.5t-27 -9.5
q-37 -13 -64 -25t-32 -19q-11 -14 -22.5 -27t-23.5 -23q-13 -11 -26 -17.5t-25 -6.5q-13 0 -17 5.5t-4 15.5q0 5 4.5 10.5t12.5 11.5t19 12t22 11q21 11 39 18t19 8q9 10 15.5 26t6.5 41q0 66 -42 91.5t-92 26.5h-1.5h-1.5q-87 0 -158 -59.5t-71 -149.5v-1zM1220 677l-2 2
q-17 -2 -34.5 -5t-34.5 -7q-129 -30 -236 -107t-107 -181q0 -37 24.5 -63.5t65.5 -25.5q27 49 51.5 89t48.5 74q40 56 81 100t93 85q12 10 24.5 19.5t25.5 19.5v0z" />
    <glyph glyph-name="K" unicode="K" horiz-adv-x="1112" 
d="M1058 595l-2 2q-9 -4 -19.5 -9t-21.5 -10q-10 -5 -21 -9.5t-21 -9.5q-17 -6 -33.5 -10t-31.5 -4q-34 0 -53 20t-19 65q0 11 0.5 17.5t1.5 11.5q1 4 1.5 7t0.5 6q0 4 -2.5 5.5t-10.5 1.5q-21 -1 -56.5 -23.5t-85.5 -80.5q-43 -49 -53.5 -71.5t-15.5 -22.5q-3 0 -4.5 1.5
t-1.5 3.5q0 3 20.5 35.5t52.5 70.5q28 33 62 62t69 40q9 3 17.5 4t16.5 1q23 0 36.5 -13t15.5 -54q2 -44 8 -55.5t19 -11.5q12 0 25.5 3t26.5 7q16 6 31.5 13.5t29.5 15.5q13 7 24.5 14.5t20.5 12.5q69 42 87.5 58.5t27.5 18.5q1 1 2 1h2q10 0 15 -5t5 -12q0 -9 -9.5 -15
t-24.5 -11q-9 -4 -19.5 -7.5t-20.5 -7.5q-14 -5 -27.5 -12.5t-23.5 -17.5q-40 -40 -92 -137.5t-129 -226.5q-80 -134 -194.5 -198t-243.5 -64q-122 0 -188.5 56.5t-66.5 138.5q0 99 80.5 169.5t184.5 70.5h8t8 -1q64 -4 118 -42t54 -109q0 -69 -58.5 -115.5t-129.5 -53.5
q-6 0 -11.5 -0.5t-11.5 -0.5h-1.5h-1.5q-23 0 -44.5 5t-36.5 11q-10 4 -16.5 8t-6.5 6t2 4t4 2q1 0 8.5 -3.5t19.5 -8.5q13 -4 30.5 -8t39.5 -4q7 0 14.5 0.5t14.5 1.5q63 9 116 51.5t53 107.5v1.5v1.5q-1 40 -41.5 74t-120.5 34q-94 0 -171.5 -58.5t-77.5 -157.5
q0 -87 70.5 -128.5t156.5 -41.5q111 0 208.5 60.5t187.5 226.5q10 19 20 36t20 33q16 28 33 53t36 49q24 31 52 62.5t63 68.5v0zM1014 340v-2q48 -18 73 -54t25 -80q0 -11 -3 -28t-6 -37q-2 -10 -3.5 -20.5t-2.5 -21.5q-2 -10 -2.5 -20t-0.5 -20q0 -20 6.5 -32.5t21.5 -12.5
q11 0 36.5 15t61.5 52q37 38 51.5 56.5t17.5 18.5h0.5h1.5q1 -1 2 -2.5t1 -3.5q0 -1 -12.5 -16.5t-42.5 -48.5q-37 -42 -68 -62.5t-57 -20.5q-4 0 -8.5 0.5t-8.5 2.5q-25 8 -46 38t-21 75q0 11 1 23l2 24q2 10 3.5 19.5t2.5 19.5q3 20 6 36.5t3 24.5q0 22 -9 36t-20 21
q-6 4 -12 6t-10 2q-2 0 -5.5 -1t-6.5 -2t-6.5 -2t-5.5 -1h-1.5h-0.5q-4 1 -7 3t-5 4q-2 1 -2.5 2.5t-0.5 2.5q0 4 4.5 7t11.5 3q48 0 92 31.5t79 69.5q11 12 21 24t19 23q43 53 91 97.5t96 72.5q31 17 61.5 27t59.5 10q44 0 70 -20t26 -52q0 -16 -10.5 -26t-27.5 -10h-4
t-4 1q-12 2 -22 9.5t-10 20.5q0 7 2 12t5 10l0.5 1t1.5 2q2 4 3.5 7.5t1.5 8.5q0 11 -12.5 17.5t-33.5 6.5q-26 0 -58 -20t-66 -54q-13 -12 -26 -27t-25 -31q-58 -77 -125.5 -132t-162.5 -83v0z" />
    <glyph glyph-name="L" unicode="L" horiz-adv-x="723" 
d="M259 110q20 0 46 -3.5t53 -8.5q23 -4 45 -9.5t41 -11.5q4 -1 7.5 -2.5t7.5 -2.5q21 19 36.5 36t27.5 33q10 13 19 26.5t17 27.5q16 28 33.5 64t45.5 87q-29 -5 -56.5 -8.5t-47.5 -3.5q-109 0 -179 53t-70 138q0 88 74.5 143t163.5 60q5 1 9.5 1h9.5q29 0 62 -5.5
t67 -18.5q42 -15 82.5 -42t73.5 -67l18.5 18.5t22.5 20.5q15 13 32 24.5t34 20.5q16 9 32 14t30 5q26 0 38 -12.5t12 -37.5q0 -20 -9 -40.5t-25 -41.5q-36 -46 -98 -90.5t-130 -77.5q-16 -8 -31.5 -15.5t-30.5 -13.5q-55 -99 -114.5 -180.5t-130.5 -123.5q20 -6 40 -11.5
t40 -11.5q33 -8 66.5 -13.5t68.5 -5.5q41 0 75 14t62 42q42 41 51.5 53t12.5 12q1 0 2 -1.5t2 -3.5v-1.5v-0.5q0 -1 -9 -12t-40 -43q-43 -45 -91 -66.5t-98 -21.5q-19 0 -39.5 3t-40.5 8q-21 6 -41 13t-39 14q-11 4 -21.5 8.5t-20.5 8.5q-23 -13 -49 -25t-53 -20
q-18 -5 -36.5 -7.5t-35.5 -2.5q-45 0 -75.5 17.5t-30.5 45.5q0 20 19.5 36t62.5 16v0zM443 54l-18 6t-18 5q-38 13 -76 23t-77 10q-32 0 -48.5 -12.5t-16.5 -29.5q0 -4 1.5 -8t4.5 -8q9 -13 30.5 -23.5t55.5 -10.5q33 0 62 7t57 19l21 10.5t22 11.5v0zM303 542
q0 -68 52 -108.5t115 -54.5q16 -3 32.5 -5t31.5 -2q32 0 63.5 3t62.5 7l4 6l4 6q4 6 7.5 11.5t7.5 10.5q30 46 63 90.5t73 81.5q-35 43 -82 71.5t-96 42.5q-26 8 -51 11.5t-49 3.5q-10 0 -20.5 -0.5t-20.5 -2.5q-74 -10 -135.5 -54.5t-61.5 -117.5v0zM736 396q70 23 133 63
t105 83q28 28 44 56t16 51q0 20 -9 29t-28 9q-13 0 -29 -6t-32 -16q-14 -9 -28 -20t-27 -22t-23.5 -22.5t-16.5 -20.5q16 -25 27 -44.5t11 -21.5q0 -3 -1 -4t-3 -1h-0.5h-1.5q-4 3 -11.5 18t-27.5 42q-20 -28 -37 -58.5t-33 -61.5q-3 -5 -6 -10.5t-5 -10.5q-4 -8 -8.5 -16
t-8.5 -16v0z" />
    <glyph glyph-name="M" unicode="M" horiz-adv-x="1168" 
d="M1194 649l-2 2q-28 -18 -72 -54.5t-91 -79.5q-11 -10 -21 -19.5t-20 -18.5q-19 -18 -37.5 -36t-34.5 -35q-24 -25 -47 -50.5t-46 -52.5q-15 -16 -29.5 -33t-29.5 -33q-87 -98 -178.5 -171t-204.5 -73q-15 0 -32 2.5t-34 7.5q-57 18 -104.5 67t-47.5 126q0 89 75 154.5
t177 65.5q94 0 142.5 -46t48.5 -106q0 -75 -60 -120.5t-136 -45.5q-8 0 -16 0.5t-16 2.5q-16 2 -31 6t-27 9q-14 5 -22.5 9.5t-8.5 6.5t1.5 4t4.5 2q2 0 10.5 -4.5t23.5 -9.5t35.5 -9.5t47.5 -4.5q8 0 16 0.5t16 2.5q55 8 100.5 44.5t45.5 98.5v2.5v3.5q-2 43 -40.5 79.5
t-120.5 36.5q-13 0 -27 -1.5t-27 -3.5q-72 -13 -132 -60.5t-60 -126.5q0 -74 59.5 -127t130.5 -55h3.5h2.5q89 0 163.5 50t146.5 125q38 39 76 83t79 88q24 27 49 53.5t51 52.5q122 119 207.5 180t92.5 61q5 0 6.5 -1t1.5 -4q0 -7 -67 -77.5t-230 -345.5q-6 -10 -12.5 -21.5
t-12.5 -23.5q-5 -9 -9 -18t-9 -17q-22 -45 -38 -83.5t-16 -45.5q0 -4 2.5 -6t6.5 -2q14 0 47 37t158 189q182 222 291 320.5t119 98.5q1 0 1.5 -0.5l0.5 -0.5l1.5 -1.5l1.5 -1.5l0.5 -0.5t0.5 -1.5q0 -4 -65.5 -96.5t-180.5 -293.5q-60 -105 -82 -171t-22 -89
q0 -16 5.5 -22.5t20.5 -6.5q14 0 31 8t34 21q12 9 23.5 19t21.5 20q27 26 46 47t21 21t3.5 -2t1.5 -4t-19.5 -25t-47.5 -50q-12 -11 -24.5 -21.5t-24.5 -19.5q-20 -15 -39 -24t-35 -9q-35 0 -53.5 21.5t-18.5 63.5q0 63 75 199.5t289 371.5l-2 2q-88 -73 -167 -157.5
t-152 -171.5q-61 -70 -118 -140t-113 -133q-29 -33 -44.5 -42t-28.5 -9t-21 11t-8 32q0 63 49 155.5t123 190.5q39 52 82.5 103t87.5 98q15 16 29.5 30.5l28.5 28.5v0z" />
    <glyph glyph-name="N" unicode="N" horiz-adv-x="1112" 
d="M1092 617h-2q-1 -2 -2.5 -4t-2.5 -4q-27 -44 -55 -93t-58 -98q-62 -106 -135 -203.5t-167 -155.5q-61 -37 -120 -50.5t-109 -13.5q-117 0 -195.5 49.5t-78.5 145.5q0 89 76 160.5t196 71.5q97 0 152 -41.5t55 -103.5q0 -76 -68 -125.5t-151 -49.5q-7 0 -15 0.5t-16 1.5
q-16 2 -31 6t-26 7q-6 3 -10 5.5t-4 4.5t1.5 3.5t3.5 1.5q3 0 9.5 -3t17.5 -6q12 -3 29 -6t42 -3q86 0 144 47t58 106q0 50 -45.5 85.5t-132.5 35.5q-13 0 -26.5 -1.5t-27.5 -4.5q-79 -15 -145 -72t-66 -141q0 -76 68 -119.5t178 -43.5q35 0 70 5t70 17q91 30 182.5 114.5
t187.5 248.5q74 127 129 220.5t63 93.5q2 0 4 -1t3 -3q1 -1 1.5 -2l0.5 -1q0 -7 -6.5 -19.5t-14.5 -35.5q-8 -24 -14.5 -61.5t-6.5 -95.5q0 -14 0.5 -27.5t1.5 -27.5t1.5 -27.5t0.5 -27.5v-25.5t-1 -25.5q-2 -63 -10 -125.5t-25 -123.5l2 -2q19 37 39.5 75.5t42.5 77.5
q37 66 76.5 130.5t79.5 121.5q68 96 133 158t117 62q16 0 28.5 -10.5t16.5 -22.5q1 -2 1.5 -5t0.5 -5q0 -14 -10.5 -25.5t-28.5 -11.5q-16 0 -22.5 7t-9.5 16q-1 2 -1.5 3.5t-0.5 3.5q-2 6 -5 11t-10 5q-41 0 -137 -110.5t-226 -344.5q-72 -129 -90.5 -173.5t-27.5 -51.5
q-1 -1 -2.5 -1.5t-3.5 -0.5h-1h-1q-2 1 -3 2t-1 4q0 4 0.5 6.5t1.5 4.5q2 5 4.5 10t5.5 13q5 13 8.5 36t3.5 66q0 17 -1 35t-3 35q-1 11 -2 21t-2 21q-3 27 -5.5 54t-2.5 52q0 65 9 111.5t20 79.5q10 30 18.5 50t10.5 33v0z" />
    <glyph glyph-name="O" unicode="O" horiz-adv-x="779" 
d="M974 457q0 -34 -8.5 -71.5t-24.5 -74.5q-51 -121 -161.5 -221.5t-235.5 -100.5q-79 0 -115 54.5t-40 120.5v8v8q0 19 2.5 38t6.5 38q26 107 108.5 207t179.5 164q-19 7 -40 10.5t-44 3.5q-117 0 -193.5 -86.5t-85.5 -189.5v-1.5v-1.5q-1 -10 -2.5 -13t-3.5 -3t-3.5 1.5
t-2.5 3.5v1.5v0.5q0 3 5.5 43t32.5 92q35 66 102 115.5t152 49.5q26 0 50 -4.5t45 -12.5q7 5 14 9l14 8q47 26 92 41t84 15q58 0 91 -30.5t33 -88.5q0 -3 -0.5 -10t-1.5 -15q-2 -10 -4.5 -18t-6.5 -8q-2 0 -2.5 2t-0.5 5q0 2 0.5 7.5t1.5 12.5v2.5t1 2.5q0 6 0.5 11.5
t0.5 9.5q0 53 -31 79t-81 26q-37 0 -77 -14t-81 -39q-7 -4 -13.5 -8.5t-13.5 -9.5q17 -7 32 -16.5t28 -21.5q20 11 38.5 16t34.5 5q56 0 90 -40t34 -112v0zM447 136q0 -58 25 -97t80 -39q23 0 46.5 5t47.5 15q97 38 183 134.5t118 204.5q7 24 11 48.5t4 47.5
q0 71 -29.5 106.5t-82.5 35.5q-16 0 -32 -4.5t-33 -12.5q30 -29 48 -67t23 -78q1 -8 1.5 -16t0.5 -16q0 -14 -2 -28t-6 -29q-17 -63 -65 -115.5t-115 -52.5q-40 0 -68 25t-28 68q0 96 51 173.5t112 120.5q8 5 15 9.5t14 8.5q-12 11 -27 20.5t-32 14.5q-99 -73 -176.5 -200
t-83.5 -264v-8.5v-9.5v0zM586 277q0 -37 18 -60t57 -23q58 0 96.5 49t56.5 107q7 23 10.5 45.5t3.5 42.5q0 41 -14 75.5t-40 61.5q-1 -1 -2.5 -1.5t-3.5 -1.5q-66 -36 -121.5 -115t-60.5 -167v-6.5v-6.5v0z" />
    <glyph glyph-name="P" unicode="P" horiz-adv-x="779" 
d="M233 76q0 17 9.5 29.5t27.5 12.5q17 0 29 -10.5t12 -27.5q0 -7 -1.5 -12t-3.5 -8q-1 -3 -2 -5l-2 -4q0 -1 -0.5 -2.5t-0.5 -3.5q0 -16 15 -27.5t49 -11.5q93 0 161.5 69.5t117.5 153.5q22 36 40 71t34 64q11 21 24.5 42.5t28.5 43.5q39 57 88.5 110t102.5 87
q-15 7 -31 12.5t-32 9.5q-27 7 -53.5 9.5t-50.5 2.5q-35 0 -64.5 -2t-58.5 -9q23 -26 31.5 -57.5t8.5 -64.5q0 -11 -1 -22t-3 -22q-19 -99 -104 -181.5t-187 -82.5q-44 0 -77 27.5t-33 82.5q0 84 70 160t155 122q30 16 59.5 27.5t55.5 16.5q-16 12 -36 19t-40 11
q-11 1 -21 2t-20 1q-58 0 -111 -23.5t-96 -66.5q-55 -55 -71.5 -99t-22.5 -44q-1 0 -2 1t-1 2q-1 0 -1 1v1q0 9 15.5 44t48.5 75q38 45 98 83t145 38h7.5t6.5 -1q35 -2 67 -14t49 -27q19 5 43 8t48 5q11 0 21.5 0.5t20.5 0.5q53 0 101 -9.5t81 -25.5q3 2 5.5 3.5t5.5 3.5
q17 10 30 19t20 9q2 0 3 -1.5t1 -3.5q0 -5 -16 -13.5t-36 -22.5q47 -25 76.5 -69t29.5 -100q0 -66 -52 -115t-115 -62q-10 -2 -19.5 -3t-18.5 -1q-4 0 -8 0.5t-7 1.5q-13 2 -24.5 7t-20.5 10q-10 6 -15.5 11t-5.5 7t1.5 3.5t4.5 1.5q2 0 7 -4t13 -9t18.5 -9t23.5 -4
q62 0 104 49t55 107q2 12 3.5 23.5t1.5 22.5q0 38 -16.5 69.5t-50.5 50.5q-30 -21 -56 -53t-51 -73q-29 -48 -59.5 -105t-66.5 -119q-67 -117 -171 -206t-220 -89q-46 0 -82 19t-36 62v0zM319 354q0 -46 23.5 -72t62.5 -26q9 0 18.5 1t18.5 4q72 17 136 86t90 148
q7 20 10.5 40.5t3.5 39.5q0 27 -4 51t-20 41q-7 -1 -14.5 -3t-14.5 -4q-91 -26 -172.5 -90.5t-116.5 -135.5q-10 -21 -15.5 -41t-5.5 -39v0z" />
    <glyph glyph-name="Q" unicode="Q" horiz-adv-x="723" 
d="M179 53q0 26 22.5 42.5t74.5 16.5q27 0 54.5 -4.5t54.5 -11.5q16 -4 32 -8.5t32 -9.5q12 -3 23 -6.5t22 -6.5q18 9 36.5 20t37.5 24q109 73 199.5 191.5t90.5 259.5q0 65 -33 96t-101 31q-4 0 -10.5 -0.5t-13.5 -0.5q-8 -1 -14.5 -2t-10.5 -2q7 -9 13.5 -18t11.5 -18
q12 -21 17 -43t5 -50q0 -16 -2.5 -32.5t-6.5 -33.5q-26 -92 -107 -168.5t-183 -76.5q-49 0 -76 32.5t-28 71.5v1.5v1.5q0 89 72.5 171t159.5 128q25 13 50 23t48 15q-16 14 -43.5 22.5t-61.5 8.5q-96 0 -165.5 -55t-108.5 -121q-8 -14 -15 -28.5t-12 -28.5q-1 -2 -1.5 -3.5
t-1.5 -3.5t-2.5 -3.5t-3.5 -1.5q-1 0 -2 1t-1 2v1.5v0.5q0 4 16.5 42t51.5 82q8 10 16.5 19.5t17.5 18.5q38 37 89 63.5t118 26.5q40 0 66 -8.5t43 -18.5q5 -3 9 -6t7 -6q3 1 5.5 1.5t5.5 0.5q14 3 27.5 5t27.5 2q84 0 132.5 -49.5t48.5 -132.5q0 -133 -90.5 -227.5
t-198.5 -162.5q-29 -18 -57.5 -35t-55.5 -32q8 -2 16 -5t16 -5q2 -1 4 -1.5t4 -1.5q30 -10 61.5 -18.5t66.5 -8.5q19 0 37 4t35 12q13 6 27 14.5t28 18.5q58 41 71.5 60t17.5 19t5 -1.5t1 -4.5t-18.5 -23t-48.5 -43q-3 -3 -5.5 -5t-5.5 -4q-36 -26 -65 -41.5t-57 -23.5
q-16 -3 -32 -5t-34 -2q-46 0 -88.5 11.5t-83.5 28.5q-17 -7 -33 -13t-32 -11q-27 -8 -55 -12t-62 -4q-47 0 -73 17t-28 38v1.5v1.5v0zM191 53q0 -22 24.5 -34.5t67.5 -12.5q30 0 62.5 4.5t64.5 15.5q10 3 19.5 7t18.5 8l-31.5 10.5t-33.5 12.5q-8 2 -15.5 5t-15.5 6
q-27 8 -52.5 14.5t-47.5 6.5q-28 0 -44.5 -10.5t-16.5 -32.5v0zM692 580q0 28 -7 52.5t-28 44.5q-18 -4 -36.5 -10t-37.5 -15q-72 -33 -137.5 -92.5t-95.5 -124.5q-9 -19 -14 -39t-5 -39q0 -46 21 -72.5t70 -26.5q9 0 17.5 1t17.5 3q64 17 123 80t89 135q11 27 17 53t6 50v0
z" />
    <glyph glyph-name="R" unicode="R" horiz-adv-x="890" 
d="M830 332v-2q23 -6 41 -28t28 -47q4 -12 6.5 -23t2.5 -21q0 -17 -4.5 -37.5t-10.5 -41.5q0 -2 -0.5 -3.5t-1.5 -3.5q-6 -23 -11.5 -44.5t-5.5 -38.5q0 -16 5 -26t20 -10q14 0 32.5 13t52.5 47q50 50 61 64t14 15h0.5h0.5q3 0 4.5 -1.5t1.5 -4.5q0 -1 -22 -25.5t-54 -56.5
q-37 -37 -56 -49t-34 -13h-2h-2q-29 0 -51 28.5t-25 63.5v4v4q0 27 5.5 49t11.5 43q0 1 0.5 1.5t0.5 1.5q6 20 11 41t5 47q0 4 -0.5 8.5t-2.5 9.5q-3 10 -10.5 18.5t-20.5 10.5h-0.5h-0.5h-0.5h-0.5q-3 0 -6.5 -0.5t-7.5 -1.5h-0.5t-0.5 -1q-4 0 -8 -1t-7 -1q-15 0 -24.5 5
t-9.5 11q0 1 0.5 2.5t2.5 3.5q3 4 10 7t17 3q4 0 8 -1t8 -3q1 -1 2.5 -1.5t2.5 -0.5l10 -4t8 -2q14 0 30.5 6.5t34.5 18.5q37 25 67.5 70.5t30.5 102.5q0 33 -12 62.5t-39 45.5q-50 -42 -88 -97.5t-67 -116.5q-14 -31 -31 -63.5t-37 -66.5q-67 -115 -164.5 -211t-226.5 -96
q-42 0 -68.5 13.5t-38.5 30.5q-6 8 -8.5 15.5t-2.5 13.5q0 21 11 35.5t33 14.5q16 0 27 -9.5t11 -26.5q0 -7 -2 -11.5t-4 -8.5q0 -1 -0.5 -2t-1.5 -2q-2 -3 -3 -6.5t-1 -7.5q0 -17 13 -26.5t28 -11.5h2.5h2.5q105 0 168 59.5t117 157.5q12 23 25 48t27 52q38 74 80.5 137.5
t104.5 124.5q18 18 38 35.5t42 35.5q-19 11 -48.5 17.5t-61.5 10.5q-16 1 -31.5 2t-29.5 1q-28 0 -56.5 -3t-56.5 -10q12 -14 21 -35.5t14 -44.5q2 -11 3 -21t1 -20q0 -12 -1.5 -24.5t-3.5 -24.5q-20 -98 -103.5 -180t-192.5 -82q-46 0 -75 29t-29 75q0 94 74.5 173.5
t164.5 123.5q26 13 51.5 22.5t49.5 14.5q-13 11 -32.5 18.5t-39.5 11.5q-12 3 -23.5 4t-22.5 1q-82 0 -158.5 -51.5t-126.5 -149.5q-5 -11 -7.5 -19t-4.5 -13q-1 -3 -2.5 -4.5t-3.5 -1.5l-0.5 0.5l-0.5 0.5q-1 1 -1.5 3.5t-0.5 4.5q0 7 17.5 43t51.5 77q39 46 98 84t139 38
q9 0 19 -1t19 -2q29 -4 55 -14.5t41 -25.5q18 4 36 7t37 5q15 2 30 2.5t29 0.5q11 0 22 -0.5t22 -1.5q38 -4 73 -12.5t58 -17.5q3 2 10.5 5.5t16.5 8.5q1 0 2 0.5t2 1.5q10 4 19.5 8t12.5 4q3 -1 4 -2.5t1 -3.5t-14 -7t-37 -22l4 -2l4 -2q32 -16 58.5 -51t26.5 -84
q0 -55 -37 -94t-81 -63q-28 -14 -53.5 -22t-42.5 -10v0zM283 344q0 -43 25.5 -64.5t66.5 -21.5q10 0 20 1.5t21 4.5q70 19 132 88.5t86 149.5q6 19 9 37.5t3 36.5q0 30 -5 54t-21 41q-22 -4 -45 -12t-46 -18q-93 -42 -169.5 -122t-76.5 -175v0z" />
    <glyph glyph-name="S" unicode="S" horiz-adv-x="779" 
d="M185 191q0 97 75 157.5t164 69.5q8 1 15.5 1.5t15.5 0.5q7 0 13.5 -0.5t13.5 -0.5q63 -6 115.5 -41.5t52.5 -107.5t-57.5 -116t-127.5 -49q-4 -1 -8.5 -1h-9.5q-32 0 -59 6t-46 13q-15 6 -23 11t-8 7t1.5 3.5t3.5 1.5t10 -4.5t23 -10.5q16 -6 39.5 -10.5t56.5 -4.5
q6 0 11.5 0.5t11.5 0.5q64 6 117 44.5t53 109.5q0 58 -41.5 84.5t-92.5 32.5q-8 1 -17 1.5t-17 0.5t-16 -0.5t-16 -1.5q-85 -11 -156 -72t-71 -151q0 -61 47.5 -97.5t104.5 -51.5q20 -5 39.5 -7.5t36.5 -2.5q172 0 250.5 100.5t138.5 232.5q6 11 11 22.5t10 22.5
q-5 0 -10.5 -0.5t-11.5 -1.5q-8 -1 -16.5 -1.5t-17.5 -0.5t-18 0.5t-18 1.5q-75 9 -138 53t-63 119q0 80 64.5 127.5t152.5 47.5q71 0 132.5 -32.5t102.5 -83.5q6 6 13 12.5t15 12.5q16 13 34.5 25.5t37.5 21.5q15 6 29 10t27 4q26 0 38 -12.5t12 -35.5q0 -9 -1.5 -18
t-4.5 -18q-17 -56 -76.5 -108t-127.5 -82q-22 -11 -44 -18t-43 -11q-1 -2 -2 -4.5t-2 -4.5q-48 -113 -109 -210.5t-185 -149.5q-24 -10 -51 -17t-54 -10q-18 -2 -35.5 -3.5t-34.5 -1.5q-12 0 -23.5 1t-23.5 2q-80 9 -146 56t-66 137v0zM582 568q0 -58 51 -97.5t112 -55.5
q17 -4 34.5 -6.5t33.5 -2.5q14 0 26.5 0.5t21.5 2.5q27 53 61.5 103.5t77.5 94.5q-33 42 -79.5 69t-96.5 36q-11 3 -23 4t-24 1q-80 0 -137.5 -39t-57.5 -110v0zM1202 651q0 16 -9.5 26t-27.5 10q-11 0 -22.5 -3.5t-23.5 -9.5q-18 -9 -35.5 -23t-32.5 -28q-8 -8 -15 -16.5
t-12 -15.5q3 -4 7.5 -11t9.5 -15q0 -1 0.5 -2t1.5 -2q7 -11 12 -20.5t5 -11.5t-1 -3t-3 -1t-10 15t-21 34q-2 2 -3.5 4.5t-3.5 4.5q-20 -24 -35.5 -51.5t-29.5 -54.5l-14 -30l-14 -30q19 3 38.5 8.5t39.5 14.5q68 28 126.5 80t70.5 109q1 6 1.5 11.5t0.5 10.5v0z" />
    <glyph glyph-name="T" unicode="T" horiz-adv-x="890" 
d="M438 394q-9 0 -18 -0.5t-19 -2.5q-84 -11 -155 -68.5t-71 -140.5q0 -78 72 -127t184 -49q192 0 284.5 98t165.5 218q2 4 4.5 7.5t4.5 7.5q33 54 68.5 107t81.5 97q5 5 10.5 10t11.5 10q36 31 67.5 48.5t38.5 17.5q2 0 3 -1t1 -3q0 -1 -0.5 -2t-1.5 -2q-4 -5 -20.5 -12
t-34.5 -21q-7 -5 -14 -11t-13 -14q-25 -31 -63 -93.5t-87 -155.5q-78 -148 -207.5 -232.5t-301.5 -84.5q-114 0 -194 54t-80 151q0 95 82.5 161.5t185.5 66.5q11 0 22 -1t22 -3q57 -9 105 -44.5t48 -101.5q0 -74 -58.5 -117.5t-129.5 -51.5q-7 0 -13.5 -0.5t-13.5 -0.5
q-27 0 -52 6t-43 14q-13 5 -21 10.5t-8 7.5q0 3 1 4.5t2 1.5q5 0 13.5 -5t23.5 -11t36.5 -11t51.5 -5q7 0 13.5 0.5t13.5 1.5q63 7 115.5 46t52.5 108q0 53 -41.5 85.5t-124.5 32.5v0zM978 693h236q42 0 70.5 2.5t47.5 5.5q20 3 33 5.5t23 2.5q1 0 2 -1t1 -2v-1.5v-0.5
q0 -2 -8 -11.5t-25 -19.5q-19 -12 -50 -22t-74 -10q-31 0 -54 2t-44 5q-10 1 -20 2.5t-21 3.5q-35 5 -83 9t-130 4q-135 0 -218.5 -56.5t-83.5 -124.5q0 -39 27.5 -61.5t70.5 -22.5q70 0 123.5 29.5t90.5 65.5q36 35 55.5 64.5t20.5 29.5q2 0 3.5 -1t1.5 -2q1 -1 1 -1.5
v-0.5q0 -5 -17.5 -37t-49.5 -70q-35 -40 -85 -73.5t-112 -33.5q-69 0 -107.5 32t-38.5 78q0 15 4 31t13 33q31 55 124 101t273 46v0z" />
    <glyph glyph-name="U" unicode="U" horiz-adv-x="834" 
d="M1156 684l50 3l-200 -313q-6 -9 -11.5 -17.5t-11.5 -17.5q-4 -7 -9 -14l-10 -14q-58 -88 -106.5 -165t-47.5 -114q0 -10 5.5 -18t16.5 -8q20 0 45 18t55 46q38 35 54.5 57t20.5 22q3 0 4.5 -1t2.5 -2v-1.5v-0.5q0 -1 -13 -16.5t-30 -33.5v-0.5t-1 -0.5q-3 -4 -6 -7.5
t-6 -6.5q-6 -7 -13.5 -14.5t-16.5 -14.5q-8 -7 -17 -14.5t-18 -13.5q-16 -12 -32.5 -19.5t-27.5 -7.5q-23 0 -33 15t-10 43q0 33 7 60t19 54q3 8 7.5 17t8.5 18l-2 2q-12 -17 -34 -41.5t-49 -50.5q-16 -16 -34.5 -32t-36.5 -30q-32 -24 -62.5 -39.5t-54.5 -15.5
q-22 0 -37.5 16.5t-15.5 45.5q0 52 30.5 112t72.5 122l18 26l18 26q52 75 95.5 143t43.5 118q0 40 -28 60t-62 23h-4.5h-5.5q-11 0 -22.5 -1t-23.5 -3q22 -18 31 -44t9 -55q0 -13 -1.5 -26t-5.5 -27q-20 -80 -90 -147.5t-158 -67.5q-47 0 -69.5 28t-22.5 69q0 5 0.5 9.5
t0.5 9.5q10 80 88.5 151.5t169.5 99.5q5 2 9 3l8 2q-15 8 -35 12.5t-46 4.5q-113 0 -210 -102.5t-111 -245.5v-2v-2q-1 -5 -2 -7t-4 -2q-4 0 -5 4t-1 10q0 11 5 35t13 51q4 10 7.5 20t7.5 19q41 91 121.5 162.5t178.5 71.5q32 0 56.5 -6.5t42.5 -17.5q14 3 27 4.5t26 1.5
q65 0 100.5 -32t35.5 -99q0 -46 -23.5 -99t-58.5 -108q-13 -21 -27.5 -42t-29.5 -42q-52 -74 -95.5 -138t-43.5 -105q0 -16 6 -22t22 -6q29 0 93 44t134 122q25 28 49 59t47 66q163 249 203.5 314.5t56.5 70.5q2 1 4.5 1.5t4.5 0.5v0zM658 603q0 23 -9 43t-29 33
q-89 -19 -164.5 -79t-101.5 -128q-6 -14 -8.5 -27.5t-2.5 -26.5q0 -36 18.5 -61t52.5 -25q17 0 35 5.5t36 14.5q49 26 93 76t65 104q7 18 11 36t4 35v0z" />
    <glyph glyph-name="V" unicode="V" horiz-adv-x="779" 
d="M596 584q0 -21 -7.5 -52.5t-21.5 -64.5q-25 -55 -68.5 -100.5t-107.5 -44.5q-53 0 -84.5 31.5t-31.5 84.5q0 10 1.5 20t3.5 20q20 81 100.5 148.5t173.5 72.5h5h6q65 0 88.5 -24t34.5 -53q2 -4 3 -8t3 -7q8 -23 19.5 -41t40.5 -21q7 13 18.5 29.5t25.5 34.5
q17 21 36.5 40.5t39.5 32.5q13 8 25 12.5t24 4.5q17 0 28 -9t11 -31q0 -10 -4.5 -21.5t-12.5 -23.5q-21 -31 -62.5 -57t-90.5 -30q-30 -140 -92.5 -269.5t-153.5 -239.5l2 -2q100 69 184.5 158t161.5 182q26 31 51.5 62.5t51.5 62.5l22 26l22 26q78 89 124 127.5t73 38.5
q17 0 29.5 -11.5t12.5 -27.5v-3.5t-1 -3.5q-2 -11 -10 -20.5t-20 -9.5t-18.5 4t-11.5 9t-11.5 9t-17.5 4q-33 0 -105 -82.5t-154 -181.5q-4 -5 -7.5 -9.5t-7.5 -9.5q-18 -20 -35 -40.5t-34 -40.5q-135 -156 -230.5 -229t-103.5 -73q-4 0 -6.5 2t-2.5 6q0 3 1 5t3 4q2 1 5 3
t7 5q40 32 72 109t60 163q12 37 23.5 73t23.5 68q11 33 23 60.5t24 47.5q-50 11 -75 30.5t-38 40.5q-6 9 -10.5 18.5t-8.5 17.5q-10 20 -23 33.5t-45 13.5q-17 0 -35 -3.5t-36 -10.5q-69 -26 -126.5 -89.5t-57.5 -138.5q0 -44 20 -68.5t59 -24.5q13 0 26.5 3t26.5 8
q27 11 53.5 32.5t46.5 50.5q41 61 51.5 105t14.5 44q3 0 5 -1.5t2 -5.5v0zM950 664q0 10 -6 16.5t-20 6.5q-30 0 -57 -27t-46 -59q-9 -16 -15.5 -31t-9.5 -27q54 4 93 31.5t54 58.5q3 8 5 16t2 15v0z" />
    <glyph glyph-name="W" unicode="W" horiz-adv-x="1001" 
d="M1048 581l-2 2q-12 -11 -23 -22l-22 -22q-101 -102 -170.5 -198.5t-123.5 -158.5l-24 -28l-24 -28q-57 -64 -108 -106.5t-67 -42.5q-4 0 -6.5 1.5t-2.5 5.5v1.5v1.5q2 5 8.5 10.5t14.5 14.5q43 50 72.5 123t54.5 150q3 11 6.5 21.5t6.5 20.5q19 56 38 108.5t42 93.5
q-54 8 -79 29.5t-39 45.5q-4 7 -7 13l-6 12q-11 22 -26.5 38t-48.5 16q-16 0 -33.5 -3.5t-35.5 -10.5q-62 -25 -116 -80.5t-66 -117.5q-1 -7 -1.5 -13.5t-0.5 -12.5q0 -44 20 -71.5t68 -27.5q19 0 36 5.5t34 16.5q13 8 25 18.5t25 23.5q5 6 10 11.5t10 10.5q43 53 54.5 98
t16.5 50q0 1 0.5 1h0.5q2 0 3.5 -2.5t1.5 -5.5q0 -8 -7 -40.5t-24 -69.5q-3 -6 -6 -11.5t-6 -11.5q-27 -46 -69.5 -83t-92.5 -37q-55 0 -83.5 36.5t-28.5 89.5q0 7 0.5 14t2.5 14q13 70 79.5 132t143.5 84q15 4 30.5 6.5t30.5 2.5q63 0 87.5 -24.5t36.5 -53.5q2 -5 4 -9.5
t3 -8.5q9 -23 20.5 -40t38.5 -20q7 11 15 23.5t16 24.5q29 41 65 75.5t73 34.5h1.5h1.5q13 -1 23.5 -12t10.5 -28q0 -38 -37 -72t-81 -50q-14 -5 -27 -7.5t-25 -2.5q-16 -70 -36 -138.5t-53 -132.5q-11 -21 -24 -45t-27 -49q-10 -18 -21 -36t-22 -35q-16 -24 -31.5 -44.5
t-29.5 -34.5l2 -2q18 7 51.5 37.5t70.5 70.5q8 10 17 20l18 20q6 8 12.5 15.5t12.5 14.5q16 20 31 38.5t30 37.5q2 3 4.5 6t4.5 6q32 41 66 85.5t83 100.5q54 64 97.5 107.5t75.5 83.5q6 8 12 16.5t12 17.5q4 5 7.5 7.5t7.5 2.5q1 0 2 -0.5t2 -0.5q3 -2 5 -5t2 -6
q0 -4 -5 -9.5t-13 -14.5q-4 -5 -8.5 -9.5t-7.5 -8.5q-17 -20 -30 -41t-23 -47q-6 -16 -14.5 -41.5t-17.5 -53.5q-10 -31 -19.5 -59.5t-15.5 -41.5q-15 -31 -28.5 -59.5t-27.5 -54.5q-13 -26 -26 -50t-28 -48q-19 -32 -42.5 -65.5t-52.5 -69.5q12 2 45.5 29.5t71.5 62.5
q5 5 10 9.5t9 9.5q28 27 52 51.5t38 40.5q47 54 82 96.5t67 83.5q2 2 3 3.5t3 3.5q16 20 32 40.5t34 42.5q11 14 23.5 29.5t25.5 30.5q17 20 34 39t35 36q32 31 62.5 51t55.5 20q17 0 28 -8t11 -27q0 -13 -10 -24t-24 -11q-11 0 -18.5 4.5t-13.5 9.5q-4 3 -6.5 5.5t-5.5 4.5
t-5.5 3t-5.5 1q-28 0 -84.5 -62t-187.5 -227q-172 -216 -273 -296.5t-113 -80.5q-4 0 -6 2t-2 6q0 5 25 38.5t56 100.5l6 14t6 15q16 39 28 72.5t24 65.5q3 6 5.5 12.5t4.5 12.5q6 17 13 34l14 34q11 26 23.5 49.5t24.5 45.5q19 32 37 56.5t31 37.5v0zM764 541q12 0 25 2.5
t26 8.5q39 14 71 44.5t32 65.5q0 14 -8.5 20.5t-20.5 6.5q-8 0 -17 -3.5t-18 -9.5q-18 -13 -35.5 -35t-31.5 -46q-8 -14 -14 -28t-9 -26v0z" />
    <glyph glyph-name="X" unicode="X" horiz-adv-x="723" 
d="M826 509l2 -2q13 15 29.5 31.5t35.5 33.5q28 26 61 50t67 42q29 16 58 25.5t55 9.5q28 0 44 -20.5t16 -46.5q0 -68 -73 -122t-161 -92q-52 -22 -101 -38.5t-83 -25.5q-1 -2 -2.5 -4.5t-3.5 -5.5q-16 -29 -31.5 -59t-29.5 -60q-19 -43 -31 -85t-12 -81q0 -22 9 -37.5
t34 -15.5q8 0 15.5 1.5t15.5 4.5q24 8 48 25.5t44 37.5q27 26 45 47.5t22 21.5q2 0 3 -1l2 -2v-1.5v-0.5l-19.5 -22.5t-48.5 -49.5q-14 -13 -29 -25t-30 -22q-17 -12 -34.5 -18.5t-32.5 -6.5q-39 0 -56.5 33.5t-17.5 92.5q0 6 0.5 12t1.5 11q1 4 1.5 8t0.5 8
q-11 -11 -24.5 -23t-28.5 -24q-30 -24 -66 -47.5t-74 -40.5q-30 -14 -60.5 -22t-57.5 -8q-6 0 -12.5 0.5t-13.5 1.5q-26 3 -48 18.5t-22 45.5q0 74 79 128.5t174 91.5q66 25 127 42t95 25q7 14 14 27.5t15 27.5q22 42 40.5 86t18.5 90q0 56 -26.5 83t-72.5 27
q-4 0 -8.5 -0.5t-9.5 -0.5q-7 -1 -14 -2.5t-12 -2.5q22 -21 29.5 -44t7.5 -52v-9.5t-1 -9.5q-8 -88 -81 -161t-162 -73q-37 0 -55 23.5t-18 57.5q0 7 0.5 14t2.5 13q11 59 60 113.5t106 90.5q22 14 44 24.5t42 16.5q-7 5 -18.5 8.5t-23.5 4.5q-10 2 -19 2.5t-16 0.5
q-111 0 -193.5 -84t-115.5 -184l-6 -20t-5 -20t-3.5 -18t-1.5 -12q-1 -5 -2.5 -7.5t-3.5 -2.5t-3.5 2t-1.5 5q0 29 12.5 69.5t37.5 83.5q42 75 116 137.5t173 62.5q22 0 41 -5t32 -10q5 -2 8.5 -4t6.5 -4q4 1 8.5 2t9.5 2q2 0 3.5 0.5t3.5 0.5q8 2 15.5 3t14.5 1
q53 0 91 -35.5t38 -125.5v-31v0zM271 70q0 -32 14.5 -48t47.5 -16q32 0 68.5 17.5t74.5 46.5q41 31 80.5 72t72.5 83q22 28 40 55t31 52q-28 -7 -85 -23t-120 -40q-84 -34 -154 -83.5t-70 -115.5v0zM674 605q0 22 -7.5 42t-27.5 33q-20 -6 -43.5 -17t-47.5 -26
q-58 -38 -108 -94.5t-55 -116.5v-5.5v-5.5q0 -26 13 -43.5t40 -17.5q14 0 28 3.5t28 9.5q47 20 90 63.5t67 92.5q11 21 17 42t6 40v0zM1168 639q0 24 -10 34t-30 10q-29 0 -63 -18t-69 -47q-29 -23 -57 -51.5t-53 -57.5q-35 -40 -61.5 -77.5t-40.5 -62.5q23 8 75 24t110 42
q75 34 137 84.5t62 119.5v0z" />
    <glyph glyph-name="Y" unicode="Y" horiz-adv-x="890" 
d="M982 356l-2 2q-11 -16 -30.5 -37.5t-43.5 -43.5q-17 -16 -35 -31t-37 -29q-31 -22 -60.5 -36.5t-51.5 -14.5q-32 0 -44 18.5t-12 48.5q0 55 27 105.5t60 96.5q33 47 60 89t27 81q0 41 -30 60t-65 21q-4 1 -7.5 1h-7.5q-27 0 -59.5 -7.5t-66.5 -21.5q-75 -31 -137 -88.5
t-62 -128.5q0 -32 24 -51.5t55 -19.5q23 0 48 8t51 24q21 14 42.5 32.5t41.5 42.5q2 2 3.5 4t3.5 4q35 47 45.5 88t15.5 57l3 6t3 2q3 0 5 -1.5t2 -6.5q0 -9 -7.5 -49.5t-31.5 -87.5q-25 -52 -75.5 -95.5t-135.5 -43.5q-49 0 -77 25t-28 60q0 75 69.5 140.5t153.5 96.5
q28 11 56.5 17t53.5 6q64 0 102 -31.5t38 -112.5q0 -18 -4 -36t-12 -36q-12 -30 -31 -60.5t-40 -58.5q-33 -46 -60 -87t-27 -72q0 -15 9.5 -21t22.5 -6q20 0 61.5 22.5t87.5 61.5q29 23 56 51.5t49 59.5q151 215 243 270.5t108 55.5q3 0 5 -1.5t2 -4.5q0 -1 -1 -2.5t-3 -2.5
q-14 -9 -72 -34t-125 -130q-9 -14 -18 -29.5t-18 -33.5q-18 -36 -46.5 -92t-61.5 -116q-11 -20 -21.5 -39t-21.5 -37q-29 -49 -57 -90.5t-51 -64.5q-81 -80 -187.5 -123.5t-222.5 -43.5q-10 0 -20 0.5t-20 1.5q-85 10 -155 61t-70 144q0 79 62 137t137 79q17 5 34.5 7.5
t34.5 2.5q89 0 143 -45t54 -105q0 -75 -57.5 -117.5t-126.5 -50.5q-7 0 -13.5 -0.5t-13.5 -0.5q-5 0 -10.5 0.5t-11.5 0.5q-14 2 -26.5 5t-21.5 6l-7 3.5t-3 3.5q0 3 1.5 4t3.5 1q3 0 7.5 -2t14.5 -4q9 -2 24.5 -4t39.5 -2q8 0 16 0.5t16 2.5q57 9 104.5 48.5t47.5 99.5
q0 67 -49 94t-107 28h-1.5h-1.5q-8 0 -15.5 -0.5t-14.5 -1.5q-88 -9 -161 -68.5t-73 -154.5q0 -63 47 -99t103 -51q23 -6 45.5 -9t41.5 -3q214 0 321 125t192 286q8 15 16 30.5t16 30.5q2 4 4.5 8.5t4.5 8.5v0z" />
    <glyph glyph-name="Z" unicode="Z" horiz-adv-x="779" 
d="M473 334q-56 0 -83 32t-27 85q0 78 65 145t143 97q23 9 45.5 13.5t43.5 4.5q59 0 89 -26t47 -57q7 -12 12 -23t11 -21q7 -13 14 -23t17 -14q13 13 28.5 27.5t32.5 30.5q41 37 89.5 68.5t98.5 31.5q24 0 39.5 -12t15.5 -32v-5.5t-1 -5.5q-9 -48 -79 -88.5t-153 -44.5h-7.5
h-6.5q-14 0 -26.5 1t-24.5 3q-20 -23 -40 -47t-41 -47l-80 -94t-82 -95q46 -17 70.5 -43.5t37.5 -54.5q9 -20 13.5 -39t8.5 -35q6 -20 12.5 -33t21.5 -13q13 0 29.5 7t33.5 19q10 7 19.5 14.5t18.5 15.5q53 48 64.5 63.5t14.5 16.5h0.5h0.5q2 0 3 -1.5t1 -4.5t-12 -16.5
t-27 -28.5l-2.5 -2.5l-2.5 -2.5q-5 -6 -10.5 -11t-10.5 -10q-42 -41 -78 -60t-62 -19q-34 0 -51.5 20.5t-26.5 45.5q-5 17 -8.5 32.5t-5.5 24.5q-2 6 -3.5 12t-2.5 11q-8 28 -19.5 46t-39.5 29q-15 -17 -33 -35l-37 -37q-26 -25 -54.5 -49.5t-57.5 -45.5q-38 -27 -74 -43
t-68 -16q-37 0 -60 15.5t-23 47.5q0 13 4.5 27t12.5 28q32 53 111 97t176 44q9 0 20 -0.5t23 -1.5q15 -1 29 -3.5t24 -5.5q49 64 100.5 124.5t105.5 121.5q8 10 17 20l18 20q-40 13 -61 34t-34 44q-5 9 -8.5 17t-7.5 16q-12 24 -28 41.5t-51 17.5q-19 0 -40.5 -5t-42.5 -15
q-66 -28 -122 -88t-63 -126q-1 -4 -1 -8v-8q0 -49 21.5 -72t70.5 -23h5.5t5.5 1q48 5 92.5 50t71.5 98q9 17 15.5 34.5t10.5 33.5q2 8 3 13.5t2 8.5q0 3 1 4t2 1q2 0 3 -2t1 -5q0 -21 -4.5 -45.5t-13.5 -49.5q-21 -61 -68 -111.5t-121 -50.5v0zM580 229q-8 3 -19.5 5.5
t-23.5 4.5q-13 1 -25 2t-20 1q-85 0 -156 -37.5t-106 -82.5q-12 -16 -18.5 -31.5t-6.5 -29.5q0 -29 20 -42t48 -13q24 0 50.5 9.5t52.5 25.5q34 20 66.5 47t61.5 56q22 23 41.5 45t34.5 40v0zM872 537q11 -3 22.5 -5.5t22.5 -2.5q14 0 28 1.5t29 4.5q59 14 110 47t57 70
q1 2 1 4v4q0 19 -12.5 26t-29.5 7q-7 0 -14.5 -1t-14.5 -2q-38 -9 -75.5 -36.5t-68.5 -58.5q-16 -15 -30 -30t-25 -28v0z" />
    <glyph glyph-name="bracketleft" unicode="[" horiz-adv-x="501" 
d="M159 -196l192 383l255 512h245l-12 -24h-187l-169 -336l-254 -511h189l-12 -24h-247v0z" />
    <glyph glyph-name="backslash" unicode="\" horiz-adv-x="278" 
d="M267 699h31l62 -193l162 -512h-32l-62 193l-161 512v0z" />
    <glyph glyph-name="bracketright" unicode="]" horiz-adv-x="501" 
d="M760 699l-192 -384l-255 -511h-245l12 24h187l168 335l255 512h-189l12 24h247v0z" />
    <glyph glyph-name="asciicircum" unicode="^" horiz-adv-x="400" 
d="M351 265h-30l101 201h25l103 -201h-31l-84 165l-84 -165v0z" />
    <glyph glyph-name="underscore" unicode="_" horiz-adv-x="501" 
d="M501 -125h-501v50h501v-50v0z" />
    <glyph glyph-name="grave" unicode="`" horiz-adv-x="222" 
d="M256 492q16 0 22.5 -10.5t10.5 -27.5q3 -11 6.5 -24t10.5 -26q2 -5 4.5 -9t5.5 -8q5 -7 10 -13t11 -11q13 -12 23.5 -19.5t10.5 -11.5q0 -2 -0.5 -2.5t-2.5 -0.5q0 -1 -0.5 -1h-1.5q-7 0 -25.5 12.5t-39.5 31.5q-10 9 -20.5 20t-19.5 22q-12 15 -20 29.5t-8 26.5
q0 2 0.5 3.5t0.5 3.5q2 5 7.5 10t14.5 5v0z" />
    <glyph glyph-name="a" unicode="a" 
d="M483 271l49 2q-9 -11 -28.5 -39.5t-41.5 -62.5q-3 -5 -6.5 -10.5t-6.5 -11.5q-25 -39 -43.5 -74.5t-18.5 -48.5q0 -6 3.5 -10t13.5 -4q23 0 61 34.5t82 85.5q8 10 10.5 13t4.5 3v0v0q2 0 3.5 -1t1.5 -3q1 0 1 -0.5v-1.5t-11.5 -14.5t-25.5 -28.5l-1.5 -1.5l-0.5 -0.5
q-4 -5 -8 -9.5t-8 -8.5q-35 -36 -63.5 -57.5t-48.5 -21.5t-32 14t-12 55v5.5t1 4.5v4v4l-16 -16t-20 -19q-8 -7 -17 -15t-18 -14q-14 -10 -27.5 -16.5t-25.5 -6.5q-37 0 -50 27.5t-13 60.5v1.5v1.5q0 6 0.5 12t0.5 12q1 5 2 11l2 12q-1 0 -1.5 -0.5t-1.5 -0.5l-1.5 -1.5
t-1.5 -0.5t-2 1l-2 2v1.5v0.5v1v1q1 2 4.5 5.5t11.5 13.5q28 34 64 61.5t74 42.5q17 6 33.5 9.5t32.5 3.5q23 0 33 -14.5t10 -34.5q0 -8 -0.5 -15t-2.5 -12l2 -2q17 27 24.5 41.5t13.5 21.5q3 4 7 6t10 2v0zM211 44q0 -14 5.5 -23t17.5 -9q15 0 35.5 12t41.5 32
q20 18 39 40.5t34 45.5q15 24 24 47t9 41q0 15 -7.5 25.5t-23.5 10.5q-7 0 -14.5 -1.5t-15.5 -4.5q-33 -14 -64 -49t-52 -75q-14 -25 -21.5 -49.5t-7.5 -42.5v0z" />
    <glyph glyph-name="b" unicode="b" horiz-adv-x="333" 
d="M473 593l64 10q-184 -307 -252.5 -423t-68.5 -142q0 -11 4.5 -18.5t18.5 -7.5q10 0 19.5 2t19.5 5q50 17 91 72t41 132q0 28 5.5 41.5t24.5 13.5q13 0 18.5 -12t5.5 -26q0 -9 -1.5 -18.5t-4.5 -19.5q-6 -18 -15 -36.5t-19 -34.5q-10 -15 -19 -27t-15 -19q2 -1 4.5 -1h4.5
q6 0 12 1t12 3q18 5 34 15.5t28 23.5t15 16.5t5 4.5h0.5h0.5q2 0 3.5 -1.5t1.5 -3.5q0 -3 -4.5 -7.5t-12.5 -13.5q-15 -17 -33 -28.5t-37 -16.5q-9 -3 -17.5 -4t-16.5 -1h-4t-3 1h-3h-1q-6 -6 -15.5 -14t-20.5 -17q-20 -14 -44 -26.5t-49 -14.5q-2 -1 -4.5 -1h-4.5
q-31 0 -45 20t-14 50q0 12 3 24t9 25q7 16 16 31.5t20 30.5q17 25 32 43.5t15 22.5q0 1 -0.5 1.5t-1.5 0.5q-2 0 -13.5 -14t-37.5 -42q-37 -40 -46 -51.5t-12 -12.5h-0.5h-0.5q-2 0 -3.5 1.5t-1.5 2.5q0 2 14.5 19.5t32.5 37.5q0 1 1 1.5l1 0.5q15 18 28.5 33t18.5 20
q20 23 66.5 96t98.5 161q5 10 11 20t12 21q8 12 15 24.5t14 25.5v0z" />
    <glyph glyph-name="c" unicode="c" horiz-adv-x="278" 
d="M435 229q0 -2 -0.5 -5t-0.5 -5q-3 -12 -12.5 -22.5t-23.5 -10.5q-13 0 -19 7.5t-6 17.5t4.5 14t10.5 7h0.5h0.5q6 3 10 6t4 11v1.5v0.5q-1 6 -6.5 10.5t-16.5 4.5q-13 0 -27.5 -6t-29.5 -16q-38 -27 -70 -79.5t-32 -113.5q0 -19 10 -29t32 -10q19 0 43.5 10.5t49.5 29.5
q9 7 17.5 15t17.5 17q40 41 48.5 53t10.5 12v0v0q3 0 4.5 -2t1.5 -4t-11.5 -15.5t-27.5 -30.5q-42 -46 -76 -68.5t-67 -27.5q-5 0 -9.5 -0.5t-8.5 -0.5q-38 0 -55.5 26t-21.5 57q-1 7 -1.5 13.5t-0.5 13.5q0 6 0.5 10.5t1.5 7.5q0 4 0.5 6t0.5 3t-0.5 1.5t-1.5 0.5t-2 -0.5
t-2 -1.5l-1.5 -1.5t-1.5 -0.5q-2 0 -3.5 1.5t-1.5 3.5t5 8.5t29 34.5q43 50 85.5 72.5t84.5 22.5q29 0 47 -12.5t18 -36.5v0z" />
    <glyph glyph-name="d" unicode="d" 
d="M430 212l219 389l59 2q-5 -9 -9.5 -17.5t-9.5 -17.5q-113 -200 -206.5 -354t-93.5 -183q0 -9 3.5 -14t13.5 -5q11 0 31.5 13.5t51.5 44.5q41 39 56.5 59t17.5 20t4 -1t2 -3t-5.5 -9.5t-15.5 -18.5q-53 -61 -88.5 -89t-63.5 -28q-17 0 -27 15t-10 38q0 10 1.5 18.5
t3.5 15.5q1 2 1.5 3.5t0.5 3.5l-2 2q-5 -8 -13 -17.5t-17 -19.5q-16 -17 -36 -32t-40 -22q-7 -2 -14 -3.5t-14 -1.5q-26 0 -39.5 22.5t-16.5 49.5q0 5 -0.5 9.5t-0.5 9.5v12t1 12q0 6 1 12l2 12l-1 -0.5l-1 -0.5l-1 -1v0l-2 -2l-1 -1h-0.5h-1.5q-1 1 -2 2.5t-1 3.5q0 1 4 7
t26 31q38 42 82.5 71.5t90.5 33.5q3 1 6.5 1h7.5q19 0 33 -11t14 -34v-13.5t-2 -11.5l2 -2v0zM418 234q0 17 -6 27.5t-23 10.5q-14 0 -30 -7.5t-32 -19.5q-31 -24 -58.5 -62t-42.5 -79q-6 -17 -9.5 -33.5t-3.5 -31.5q0 -14 6.5 -20.5t20.5 -6.5t35.5 13t43.5 35
q22 21 43 47.5t35 54.5q10 19 15.5 37t5.5 35v0z" />
    <glyph glyph-name="e" unicode="e" horiz-adv-x="278" 
d="M426 230q0 -35 -36 -61.5t-79 -43.5q-26 -10 -50 -17t-41 -10q-1 -8 -2.5 -16.5t-1.5 -16.5q0 -29 9.5 -40.5t32.5 -12.5q20 -1 57 16.5t83 62.5q29 30 39.5 44t13.5 14q2 0 3.5 -1.5t1.5 -4.5q0 -2 -12 -16.5t-28 -31.5l-6 -6t-5 -6q-5 -5 -9.5 -9t-8.5 -8
q-22 -20 -41.5 -33.5t-37.5 -20.5q-14 -6 -28 -9t-29 -3q-39 0 -58 30.5t-21 67.5v4v4q0 6 0.5 10.5t1.5 8.5q0 4 0.5 6.5t0.5 3.5v1.5v0.5h-1v0l-0.5 -0.5l-0.5 -0.5q-1 -1 -1 -1.5t-1 -0.5l-1 0.5t-1 1.5q-1 0 -1.5 0.5t-0.5 1.5l-0.5 1l-0.5 1q0 2 5.5 8.5t11.5 13.5
l1.5 1.5t1.5 0.5q5 6 9.5 11t7.5 8q20 20 40.5 36.5t41.5 29.5q24 14 47 21.5t44 7.5q23 0 36.5 -13.5t13.5 -34.5v0zM376 266q-12 0 -26.5 -6.5t-29.5 -18.5q-18 -14 -35 -32.5t-31 -38.5q-11 -16 -19 -31.5t-11 -28.5q14 2 29 6t31 11q42 17 77 49t35 71q0 10 -5 14.5
t-15 4.5v0z" />
    <glyph glyph-name="f" unicode="f" horiz-adv-x="222" 
d="M335 258l-119 -238q32 2 69 25.5t79 69.5q16 18 21 24.5t8 8.5h0.5h1.5q2 0 3.5 -1.5t1.5 -3.5t-9 -13.5t-21 -24.5q-2 -1 -3 -2.5t-3 -2.5q-3 -4 -7 -8l-7 -7q-31 -32 -67.5 -54t-74.5 -28l-143 -267l-61 -8l155 282q-7 5 -9.5 13t-2.5 16q0 14 8 22.5t20 8.5
q4 0 7.5 -0.5t5.5 -2.5l115 205l-2 2q-22 -19 -36.5 -34.5t-27.5 -30.5q-5 -6 -10 -11t-10 -11q-22 -24 -33 -38.5t-14 -14.5q-2 0 -3 1l-2 2v1.5v0.5q0 2 17 22.5t65 72.5q26 29 41.5 43t26.5 25q6 5 10.5 10.5t8.5 13.5q1 1 1.5 2.5t1.5 2.5q13 24 34 60.5t47 75.5
q27 40 57.5 78t62.5 61q17 13 34 20t33 7q20 0 28.5 -12t8.5 -34q0 -73 -93 -152.5t-214 -176.5v0zM345 283l2 -2q22 19 55.5 45.5t69.5 56.5q34 29 66 61t54 64q16 23 25 45.5t9 44.5q0 12 -7 17.5t-21 5.5q-33 0 -68 -36t-71 -93q-23 -37 -46.5 -80.5t-46.5 -88.5
q-6 -10 -11 -20l-10 -20v0z" />
    <glyph glyph-name="g" unicode="g" 
d="M481 269l66 5l-169 -278l2 -2q11 6 23 12t23 14q24 16 47.5 36.5t43.5 42.5q7 7 13.5 14t12.5 14q10 12 13.5 16.5t5.5 5.5h1.5h0.5q2 0 3 -1.5t1 -3.5q0 -4 -7 -12t-29 -32q-13 -14 -26.5 -27t-26.5 -25q-30 -25 -58 -43t-49 -25q-11 -22 -32 -58t-48 -74
q-21 -31 -45 -60.5t-49 -51.5q-23 -21 -45.5 -34t-43.5 -13q-22 0 -36 12.5t-14 38.5q0 22 9.5 42t27.5 40q33 35 90.5 71.5t137.5 81.5q11 25 26.5 56.5t43.5 85.5l-2 2q-7 -10 -17 -22.5t-22 -25.5q-15 -17 -33 -32.5t-37 -25.5q-11 -6 -21.5 -9.5t-20.5 -3.5
q-35 0 -48.5 24t-13.5 63q0 9 1 16.5t3 13.5q0 4 1 7t1 7q1 2 1 4v4t-1 2.5t-3 0.5t-3.5 -1t-3.5 -2q0 -1 -1 -2l-1 -1q-1 -1 -1.5 -1h-0.5q-1 0 -2.5 2t-1.5 4t5.5 9t26.5 29l6 6t7 6q20 19 45.5 36t52.5 30q21 10 41 15.5t38 5.5q24 0 38 -11t14 -37q0 -10 -1 -18.5
t-3 -16.5l2 -2q5 8 10.5 17t10.5 18q5 10 10.5 20.5t10.5 20.5v0zM85 -262q0 -16 5 -26.5t24 -10.5q15 0 31.5 10t33.5 26q20 20 39.5 46.5t37.5 55.5q22 35 38 68.5t22 51.5q-19 -11 -46 -27t-56 -36q-48 -32 -88.5 -72.5t-40.5 -84.5v-1zM399 266q-11 0 -23 -3.5
t-24 -10.5q-31 -17 -60 -50t-48 -70q-14 -24 -21.5 -47t-7.5 -42q0 -13 6.5 -22t19.5 -9q14 0 30.5 7.5t32.5 20.5q22 17 43 40.5t38 49.5q19 29 31.5 56t12.5 43q0 17 -6 27t-24 10v0z" />
    <glyph glyph-name="h" unicode="h" 
d="M189 6l-62 -6q41 73 83 141t84 131l-1 2q-7 -8 -13.5 -15.5t-12.5 -15.5q-1 0 -1.5 -1l-0.5 -1q-11 -13 -22 -26.5t-28 -31.5q-30 -32 -37 -41t-9 -10h-0.5h-0.5q-2 0 -3 1.5t-1 4.5q0 6 47.5 56t104.5 130q14 20 28 41t27 44l108 187l62 7q-16 -28 -61 -103.5
t-96 -160.5q-40 -66 -77 -128.5t-60 -103.5l2 -2q72 83 125 128t79 45q22 0 31 -16t9 -36q0 -18 -14 -42.5t-32 -49.5q-2 -3 -4.5 -6t-4.5 -6q-21 -28 -38 -53.5t-17 -42.5q0 -5 4 -9.5t11 -4.5h1.5h1.5q23 2 48.5 23t66.5 63q4 4 7.5 8t7.5 8q13 15 23 27t13 12
q2 0 3.5 -1.5t1.5 -3.5t-15 -20t-35 -39q-54 -58 -82.5 -73.5t-46.5 -15.5q-15 0 -27.5 11t-12.5 44t17 62.5t38 54.5t38 45.5t17 35.5q0 5 -3 8.5t-6 4.5h-0.5h-1.5q-18 0 -53 -27.5t-73 -66.5q-10 -10 -20.5 -21t-19.5 -22q-34 -37 -61 -71.5t-36 -51.5v0z" />
    <glyph glyph-name="i" unicode="i" horiz-adv-x="222" 
d="M282 274l63 4q-90 -148 -114.5 -188.5t-24.5 -56.5q0 -12 5 -16t12 -5h0.5h1.5q12 0 27 7.5t30 18.5q11 8 21 16.5t19 17.5l7.5 7.5l6.5 6.5l7.5 7.5l7.5 7.5q1 2 2.5 3.5l3.5 3.5q15 17 27 30.5t13 13.5q2 0 4 -1t2 -4q0 -2 -14.5 -19.5t-46.5 -50.5q-37 -38 -67 -57.5
t-51 -19.5q-23 0 -35.5 15t-12.5 37v5.5t1 5.5q3 32 20 63.5t38 60.5q9 14 18.5 26.5t17.5 24.5l-2 2q-9 -9 -29 -30t-56 -62q-6 -7 -8.5 -9.5l-3.5 -3.5h-1.5h-0.5q-2 0 -3 2t-1 4t5.5 8t24.5 28q8 9 17 19t19 21q15 16 29 31.5t21 25.5v0zM380 436v4t1 4q3 11 11.5 20.5
t22.5 9.5q11 0 17 -7.5t6 -18.5v-4t-1 -4q-3 -11 -11.5 -20.5t-22.5 -9.5q-10 0 -16.5 7.5t-6.5 18.5v0z" />
    <glyph glyph-name="j" unicode="j" horiz-adv-x="222" 
d="M300 274l63 4q-14 -25 -34 -62t-41 -76q-1 -2 -2.5 -4.5t-2.5 -4.5q-25 -45 -48 -85.5t-37 -60.5l2 -3q45 23 89 59t85 85q11 13 14.5 17.5t5.5 5.5h1h1q2 0 3 -1.5t1 -3.5v-1.5v-0.5q-1 -3 -5.5 -7.5t-13.5 -15.5q-34 -41 -79 -80.5t-114 -74.5q-12 -22 -31 -55t-42 -68
q-27 -41 -58.5 -78.5t-63.5 -57.5q-13 -7 -25.5 -11.5t-24.5 -4.5q-23 0 -37 10.5t-14 34.5q0 48 50 94t109 85q27 18 53 33.5t47 28.5q53 109 90 181t50 91l-2 2q-12 -10 -22 -18.5t-18 -16.5l-4 -4l-4 -4q-9 -8 -17.5 -16.5l-19.5 -19.5q-20 -21 -25 -27.5t-7 -7.5h-0.5
h-0.5q-2 0 -3.5 2t-1.5 4t5.5 8t30.5 33q9 10 20 20.5t22 21.5q4 4 8 7.5t8 6.5q10 10 20.5 19t19.5 17v0zM-83 -274q1 -13 10 -19t23 -6q7 0 13.5 2t13.5 5q28 14 55.5 51t51.5 78q20 36 35 69t23 51l-2 1q-19 -11 -43.5 -27t-49.5 -35q-47 -34 -86.5 -77.5t-42.5 -91.5z
M384 434v4t1 4q3 11 11.5 20.5t22.5 9.5q11 0 17 -7.5t6 -18.5v-4t-1 -4q-3 -11 -11.5 -20.5t-22.5 -9.5q-10 0 -16.5 7.5t-6.5 18.5v0z" />
    <glyph glyph-name="k" unicode="k" 
d="M480 597l63 6l-52 -87l-299 -512l-68 -4l160 259l-2 2q-7 -8 -16.5 -19.5t-20.5 -24.5q0 -1 -1 -1.5t-2 -1.5q-7 -9 -14.5 -17.5t-13.5 -15.5q-32 -35 -40 -45t-10 -10h-1v0q-1 0 -2.5 1.5t-1.5 4.5v0v0q0 5 14.5 19.5t70.5 79.5q23 27 40.5 49.5t33.5 44.5q7 10 14 20.5
t13 21.5q27 41 57 94t78 136v0zM513 220q-16 0 -21 10t-6 26q-10 -2 -17 -6.5t-14 -12.5q-3 -4 -7 -10t-8 -13q-11 -17 -30 -30.5t-40 -20.5q-4 -1 -7.5 -1.5t-6.5 -1.5v-2q14 -3 27 -14.5t20 -25.5q3 -5 4.5 -10.5t1.5 -10.5q0 -6 -2 -13.5t-5 -16.5q-1 -2 -2 -5t-2 -5
q-4 -11 -7.5 -19t-3.5 -11q0 -6 4.5 -10.5t10.5 -4.5q9 0 20 5t22 13q7 5 13.5 10.5t12.5 10.5q10 9 18.5 17.5l14.5 14.5q38 41 47 52.5t11 12.5h0.5h0.5q3 0 4.5 -1.5t1.5 -3.5t-11.5 -15.5t-25.5 -29.5q-1 -1 -2 -1.5t-1 -1.5q-3 -3 -5.5 -6t-5.5 -6q-4 -4 -7.5 -8
t-7.5 -8q-10 -9 -19.5 -18t-19.5 -17q-18 -14 -34.5 -23t-30.5 -9q-20 0 -32 15.5t-17 33.5q-2 7 -3 13.5t-1 12.5q0 11 3 20t7 16q3 7 6 12.5t4 11.5v1v2q0 5 -4.5 9.5t-9.5 5.5q-1 1 -2 1h-2h-2h-2q-3 -1 -6 -3t-7 -4q-4 -3 -9.5 -5t-12.5 -2t-11 3.5t-4 8.5q0 1 0.5 2.5
t1.5 3.5q2 4 9.5 7t23.5 3h1.5h0.5q1 0 2.5 -0.5t3.5 -0.5t4.5 -0.5t6.5 -0.5q7 0 22 8t31 22q9 7 18 16.5t17 19.5q13 17 23 27t20 14q6 3 12 4t13 1q17 0 27.5 -8.5t10.5 -22.5q0 -13 -8.5 -20t-19.5 -7v0z" />
    <glyph glyph-name="l" unicode="l" horiz-adv-x="222" 
d="M485 596l67 7q-196 -308 -270.5 -426t-74.5 -152v-1.5v-0.5q1 -4 5.5 -7.5t10.5 -3.5q23 0 51 19.5t65 56.5q34 35 43.5 48t13.5 13q2 0 3 -1l2 -2v-1.5v-0.5q0 -1 -6.5 -9.5t-15.5 -17.5q0 -1 -0.5 -1.5l-1.5 -1.5q-4 -4 -7.5 -8t-6.5 -7q-43 -46 -78.5 -72.5
t-64.5 -26.5q-25 0 -34 15.5t-9 34.5q0 12 2 23t5 21q10 28 33.5 62t61.5 96l-2 2q-1 -1 -1.5 -2t-1.5 -1q-12 -15 -26 -31t-37 -42q-28 -31 -35.5 -40t-11.5 -9v0v0q-2 0 -2.5 1t-1.5 2v1.5v0.5q0 5 53 61.5t117 150.5q9 12 17.5 25.5t17.5 27.5l120 197v0z" />
    <glyph glyph-name="m" unicode="m" horiz-adv-x="612" 
d="M426 6l-63 -6q7 13 27.5 44.5t43.5 67.5q2 3 4 6.5t4 6.5q25 41 45 77t20 49q0 7 -3 10.5t-11 4.5v0v0h-1v0q-16 1 -48 -30t-68 -73q-7 -7 -13.5 -15t-12.5 -16q-33 -40 -60 -76t-37 -50l-65 -6q73 116 113 178t40 74q0 8 -3.5 11t-11.5 3q-18 0 -39 -14.5t-42 -35.5
q-3 -4 -6.5 -7.5l-7.5 -7.5q-35 -37 -46.5 -52t-14.5 -15q-2 0 -3 1t-2 3v1v1q0 2 15.5 20t43.5 49q35 39 60 54t43 15q19 0 29.5 -9.5t10.5 -28.5q0 -12 -3.5 -25t-8.5 -26q-5 -12 -11 -23.5t-12 -21.5q-6 -11 -11.5 -20.5t-10.5 -18.5l2 -2q11 12 29.5 35t39.5 48
q9 9 17.5 19t17.5 19q23 23 44 38.5t38 15.5t26 -10.5t9 -34.5q0 -8 -1 -16t-4 -16q-4 -16 -11.5 -32t-15.5 -31q-5 -9 -9.5 -16.5t-8.5 -14.5l2 -2q11 12 29.5 34.5t39.5 46.5q10 11 20 21l20 20q23 22 44.5 36.5t38.5 14.5q14 0 24.5 -12t10.5 -39q0 -15 -6.5 -31.5
t-16.5 -32.5q-6 -10 -13.5 -20t-14.5 -20q-18 -25 -33.5 -47.5t-17.5 -41.5v-0.5v-0.5v-0.5v-0.5q0 -7 4.5 -13.5t11.5 -6.5q14 0 38.5 18t52.5 46q45 47 54.5 59t12.5 13h0.5h0.5q2 0 3.5 -1t1.5 -4t-13.5 -18t-29.5 -32q-1 -1 -1.5 -2t-1.5 -1q-3 -3 -5.5 -6t-5.5 -6
q-37 -39 -63 -58.5t-47 -19.5q-22 0 -32.5 18t-10.5 46q0 32 16.5 60.5t36.5 53.5t36.5 45t16.5 34v1.5v0.5q-1 3 -4 5t-9 2q-19 0 -50.5 -27.5t-65.5 -65.5q-8 -10 -17 -20t-17 -20q-34 -41 -61 -77t-36 -50v0z" />
    <glyph glyph-name="n" unicode="n" horiz-adv-x="444" 
d="M248 6l-67 -6q7 13 30 45.5t49 70.5q1 2 2.5 4t3.5 4q29 42 52 78.5t23 48.5q0 8 -4.5 11.5t-10.5 3.5h-2h-1q-20 -1 -43 -19t-60 -58q-32 -35 -39.5 -44.5t-9.5 -10.5h-0.5h-0.5q-2 0 -3.5 1.5t-1.5 4.5q0 1 7 9.5t15 18.5h0.5t0.5 1q4 4 8 8.5t7 8.5q36 42 67 67t60 25
q20 0 28.5 -13t8.5 -36q0 -11 -4 -24t-10 -26q-5 -11 -11.5 -21.5t-12.5 -19.5q-7 -10 -13.5 -19t-11.5 -16l2 -2q12 12 33.5 35t46.5 49l14.5 14.5l14.5 14.5q28 27 53.5 45.5t43.5 18.5q16 0 24.5 -11.5t10.5 -25.5q1 -2 1 -4.5v-5.5q0 -22 -9.5 -41.5t-20.5 -35.5
q-2 -2 -3.5 -4.5t-3.5 -4.5q-34 -46 -51 -73.5t-17 -39.5q0 -7 4.5 -13.5t11.5 -6.5q16 0 42 19.5t54 48.5q3 3 5.5 6t5.5 6q32 34 40 44.5t11 12.5h0.5h1.5q2 0 2.5 -1t1.5 -2v-1.5v-0.5q0 -2 -9.5 -13.5t-20.5 -24.5q-1 0 -1.5 -1t-1.5 -2q-9 -10 -17.5 -19t-12.5 -13
q-33 -33 -59.5 -52t-43.5 -19q-22 0 -33 18.5t-11 45.5v6t1 6q3 27 19 53.5t35 49.5q20 25 37 45t17 30q0 5 -3.5 8.5t-10.5 3.5q-17 0 -52 -30t-74 -71q-8 -8 -16 -16.5t-15 -17.5q-36 -39 -64.5 -74.5t-38.5 -50.5v0z" />
    <glyph glyph-name="o" unicode="o" horiz-adv-x="333" 
d="M444 209q0 -11 -2.5 -22.5t-7.5 -23.5q-8 -23 -21 -43.5t-28 -35.5q2 -1 4.5 -1.5t6.5 -0.5q26 0 50 13.5t43 35.5q9 10 12 13t5 4h0.5h0.5q3 0 4 -1.5t1 -3.5q0 -1 -4 -6.5t-22 -23.5q-19 -19 -44.5 -31t-54.5 -12h-8t-5 1l-1.5 -1.5l-1.5 -1.5q-23 -25 -53.5 -46.5
t-71.5 -21.5q-30 0 -46 24.5t-16 64.5q0 14 1 22.5t2 14.5q0 6 1 9.5t1 5.5q0 3 -0.5 4.5t-2.5 1.5q-3 0 -6 -2.5t-5 -5.5t-4 -5.5t-3 -2.5q-2 0 -4 1.5t-2 3.5q0 3 11 15t25 26q1 1 2 2.5t3 2.5l8.5 8.5l8.5 8.5q7 7 14 12.5t14 11.5q37 28 72.5 41.5t63.5 13.5
q29 0 44.5 -19.5t15.5 -49.5v0zM422 221q0 18 -8 31.5t-27 13.5q-10 0 -21 -3.5t-22 -10.5q-30 -18 -57.5 -53.5t-44.5 -74.5q-8 -20 -13 -39t-5 -36q0 -21 8 -29t18 -8q8 0 16 1.5t15 4.5q42 14 79 57.5t53 92.5q4 14 6.5 27t2.5 26v0z" />
    <glyph glyph-name="p" unicode="p" 
d="M398 445l52 9l-213 -361l2 -2q11 14 31 37.5t44 49.5q12 13 24.5 25t24.5 23q25 22 48.5 37t42.5 15q20 0 28.5 -15.5t8.5 -36.5q0 -19 -11 -40t-27 -43q-4 -5 -7.5 -10.5t-7.5 -10.5q-21 -27 -37.5 -51.5t-16.5 -44.5q0 -7 4.5 -10.5t11.5 -3.5q16 0 43 17t74 69
q29 32 36 41t9 10h1v0q2 0 3 -1l2 -2v-1.5v-0.5v-1v-1q-1 -3 -6.5 -8.5t-24.5 -27.5q-52 -61 -85 -83.5t-55 -22.5q-23 0 -33 18t-10 46q0 30 16.5 57.5t37.5 51.5q20 24 36.5 44.5t16.5 35.5q0 5 -4 9t-9 4q-28 0 -123.5 -91.5t-203.5 -278.5q-1 -2 -2 -3.5t-2 -3.5
l-83 -147l-67 -4l29 46l314 511l-2 2q-11 -13 -23 -27.5t-25 -29.5l-1.5 -1.5t-0.5 -1.5q-32 -39 -59 -71.5t-29 -32.5q-3 0 -4.5 1.5t-1.5 3.5v0.5v0.5q1 3 10.5 13.5t48.5 57.5q36 44 58 71t39 51q3 2 5 5l4 6q14 20 30 43.5t39 58.5v0z" />
    <glyph glyph-name="q" unicode="q" 
d="M483 270l56 2l-267 -450l2 -2q39 50 79.5 97.5t82.5 92.5q23 26 46 51t45 50q23 25 29 32t8 7v0v0q2 0 4 -2t2 -4q0 -1 -12.5 -15t-27.5 -30q-11 -11 -21 -21.5t-15 -16.5q-19 -22 -57.5 -64t-81.5 -92q-8 -9 -15.5 -18t-15.5 -18q-30 -36 -56 -70.5t-43 -62.5l-64 -8
l226 372l-2 2q-6 -7 -18 -20.5t-29 -27.5q-13 -12 -28 -23t-30 -19q-11 -5 -22 -8.5t-21 -3.5q-29 0 -43.5 25t-14.5 65q0 9 1 18t3 17q1 7 2 11.5t1 5.5t-0.5 1.5t-2.5 0.5q-3 0 -5 -1.5t-3 -3.5q-2 -2 -2.5 -3.5t-1.5 -1.5l-1 0.5l-1 0.5q-1 1 -2 2.5t-1 3.5t10.5 13.5
t27.5 29.5t36 32t39 25q32 19 62.5 28t52.5 9q21 0 35 -11t14 -38q0 -3 -0.5 -7.5t-1.5 -9.5q-1 0 -1 -1v-2l-2 -8t-1 -6l2 -2l44 77v0zM219 40v-2v-3q1 -8 5.5 -15.5t11.5 -7.5q15 0 31 6.5t32 17.5q26 18 51 45t44 55q16 26 26.5 50.5t10.5 42.5q0 20 -8.5 28.5t-28.5 8.5
q-15 0 -32.5 -8.5t-36.5 -23.5q-32 -27 -61 -68t-40 -85q-2 -11 -3.5 -21t-1.5 -20v0z" />
    <glyph glyph-name="r" unicode="r" horiz-adv-x="333" 
d="M248 6l-63 -6q76 122 115 177t39 75q0 6 -4.5 10t-12.5 4q-10 0 -29 -10.5t-49 -41.5q-46 -47 -58.5 -63.5t-15.5 -16.5q-2 0 -3.5 1.5t-1.5 3.5q0 3 13.5 18t29.5 33q4 4 8 9t8 9q32 35 56.5 52.5t45.5 17.5q19 0 29 -14.5t10 -32.5q0 -12 -5 -27t-12 -31
q-4 -9 -9 -18.5t-11 -18.5q-7 -12 -14 -22.5t-12 -17.5l2 -2q40 47 72 74.5t39 47.5q1 2 2 4.5t2 4.5q8 20 23.5 36.5t38.5 16.5q13 0 19 -4t6 -12q0 -5 -3 -10.5t-7 -10.5q-8 -9 -20.5 -18t-25.5 -19q-22 -15 -39.5 -34.5t-17.5 -45.5q0 -15 10 -24.5t23 -9.5q12 0 23.5 5
t21.5 15q17 17 24.5 27.5t10.5 10.5q2 0 4 -1.5t2 -3.5t-5 -7.5t-11 -12.5q-2 -3 -5 -6t-5 -6q-6 -7 -12 -12t-13 -9q-9 -5 -18 -7.5t-18 -2.5q-16 0 -30 10.5t-14 28.5q0 17 5 30.5t15 25.5l-2 2q-22 -21 -43.5 -43.5t-43.5 -48.5q-16 -18 -32 -38t-32 -41v0z" />
    <glyph glyph-name="s" unicode="s" horiz-adv-x="222" 
d="M296 51v2l2 -2q9 6 17 12.5t15 13.5q12 12 22 23t18 21q13 14 17 20t6 8h1.5h0.5q2 0 3.5 -1.5t1.5 -4.5q0 -2 -10.5 -14.5t-23.5 -27.5q-1 -1 -2 -2.5t-2 -2.5l-1.5 -1.5l-1.5 -1.5q-18 -20 -34.5 -36t-33.5 -27q-22 -15 -43.5 -22.5t-45.5 -7.5q-13 0 -21.5 1t-15.5 5
l-4 2t-4 3q-4 3 -7.5 8.5t-5.5 12.5q-2 3 -2.5 6.5t-0.5 6.5q0 13 6 20.5t19 7.5q8 0 14.5 -4.5t6.5 -11.5t-2 -10.5t-5 -5.5v0v0q-3 -2 -5 -4.5t-2 -9.5t4 -11t13 -4q4 0 8 1t8 3q20 10 38.5 36.5t30.5 56.5q7 18 11.5 35.5t4.5 31.5q0 36 1 63t5 31l-2 2
q-5 -3 -22.5 -22.5t-38.5 -42.5q0 -1 -0.5 -1.5l-1.5 -1.5q-16 -18 -30.5 -35t-22.5 -26q-2 -2 -3.5 -4t-2.5 -3t-1.5 -1h-1.5q-2 0 -3 1.5t-1 2.5q0 5 11.5 17t32.5 38q6 8 15 18.5t19 21.5l2.5 2.5l2.5 2.5q17 18 31 33t17 16q1 0 3 5t6 10q4 6 10 10.5t14 4.5q9 0 13 -4
t4 -11q0 -12 -10 -18t-22 -10q-2 -1 -4 -1.5t-4 -1.5q-1 -4 -1.5 -6.5t-1.5 -4.5q0 -3 -0.5 -5.5t-0.5 -6.5q0 -28 3.5 -47t7.5 -34q1 -7 3 -13.5t3 -12.5q2 -7 3 -14.5t1 -15.5q0 -18 -8 -33t-20 -28v0z" />
    <glyph glyph-name="t" unicode="t" horiz-adv-x="222" 
d="M345 368l59 96l62 4l-65 -100h118h0.5h1.5q1 -1 2 -2.5t1 -3.5t-1 -4t-4 -2h-125q-10 -18 -36.5 -58.5t-55.5 -86.5q-3 -5 -6 -9t-5 -9q-34 -53 -60.5 -100.5t-26.5 -65.5q0 -7 4.5 -11t14.5 -4q23 0 49.5 18.5t60.5 52.5q38 38 48 52t14 14q3 0 4 -1.5t1 -4.5
q0 -2 -9.5 -13t-21.5 -25q-2 -1 -3.5 -2.5t-2.5 -3.5l-9 -9l-8 -8q-46 -46 -75 -64t-50 -18q-24 1 -34.5 14.5t-12.5 29.5v2.5v2.5q0 8 1 16t2 15q8 34 31 71t59 88l-2 2q-4 -4 -7 -8t-7 -8l-2 -2t-1 -3q-10 -10 -20 -21.5t-24 -27.5q-3 -3 -7.5 -8.5t-9.5 -11.5
q-1 0 -1 -0.5v-0.5q-7 -8 -13.5 -15t-7.5 -7q-2 0 -3.5 1t-1.5 3q0 3 7 11t36 41q15 17 39 45t50 61q8 11 16 21.5t16 21.5q4 6 8 11.5t8 11.5h-36q-3 0 -4 2t-1 4q0 1 0.5 2.5t1.5 2.5q1 0 1.5 0.5l0.5 0.5h42v0z" />
    <glyph glyph-name="u" unicode="u" 
d="M298 274l56 4q-81 -129 -110.5 -170.5t-33.5 -65.5q0 -3 -0.5 -6t-0.5 -7q0 -8 4.5 -12t10.5 -5h0.5h1.5q21 0 56 29t74 72q16 19 32.5 39t31.5 41t29 41.5t25 39.5l65 4q-9 -15 -29.5 -44.5t-43.5 -62.5l-6 -8t-6 -9q-26 -38 -46.5 -73t-20.5 -52q0 -8 4 -12.5t13 -4.5
q11 0 35 16t59 53q42 42 51.5 54t12.5 13h0.5h0.5q2 0 3.5 -1.5t1.5 -3.5t-10.5 -14t-24.5 -27l-1.5 -1.5t-0.5 -1.5q-6 -6 -11.5 -12t-10.5 -11q-39 -39 -64.5 -57.5t-45.5 -18.5q-19 0 -28 13t-12 28q-1 6 -1.5 12t-0.5 11q0 11 2 20.5t5 17.5l-2 2q-8 -8 -19 -20t-24 -25
q-10 -11 -22 -21t-24 -19q-12 -8 -24.5 -13.5t-23.5 -5.5q-24 0 -35 16t-11 38q0 40 20.5 74t44.5 64q10 13 20 25.5t18 24.5l-2 2q-12 -9 -25.5 -22t-26.5 -27q-5 -4 -9 -8.5t-8 -8.5q-6 -7 -11.5 -13t-11.5 -12q-7 -9 -10 -12.5t-5 -4.5h-0.5h-1.5q-2 0 -3 1.5t-1 4.5
q0 2 8.5 11.5t42.5 45.5q15 16 35 35t45 40v0z" />
    <glyph glyph-name="v" unicode="v" 
d="M243 70q0 30 15.5 57t34.5 51q19 23 34.5 42.5t15.5 34.5q0 5 -4.5 8t-12.5 3q-10 0 -22 -5.5t-24 -14.5q-5 -4 -11 -9t-12 -11q-41 -40 -62.5 -66t-24.5 -26q-1 0 -2.5 1t-1.5 5q0 3 9 13t46 51q41 44 66 59t41 15q23 0 31.5 -15t9.5 -33v-1.5v-1.5q0 -27 -14.5 -52
t-31.5 -49q-17 -23 -31.5 -45t-14.5 -42q0 -13 6.5 -20t18.5 -7q13 0 26.5 4t27.5 12q43 23 80 72.5t44 103.5q0 5 0.5 9.5t0.5 9.5q0 26 8.5 40.5t23.5 14.5q12 0 17.5 -8.5t5.5 -24.5q0 -13 -8.5 -33.5t-21.5 -42.5l-12 -20t-13 -20q-11 -16 -21.5 -28.5t-18.5 -18.5l2 -2
q25 2 47 11.5t38 22.5q20 17 26 26t8 9t4 -1.5t2 -3.5t-5.5 -9.5t-14.5 -15.5q-2 -3 -5 -5.5t-6 -4.5q-3 -3 -6 -5.5t-6 -4.5q-28 -19 -53 -25t-39 -6q-5 0 -17.5 -10.5t-29.5 -23.5q-18 -13 -40 -23.5t-46 -10.5q-28 0 -42.5 19.5t-14.5 50.5v0z" />
    <glyph glyph-name="w" unicode="w" horiz-adv-x="501" 
d="M463 272l67 6q-9 -13 -27.5 -40.5t-39.5 -59.5q-3 -5 -6.5 -10.5t-6.5 -10.5q-24 -38 -42 -72.5t-18 -49.5q0 -11 6.5 -17t18.5 -6q15 0 33.5 6.5t37.5 19.5q41 26 75 73t37 106q2 40 8.5 50.5t22.5 10.5q11 0 17 -7t6 -15q0 -15 -6.5 -34.5t-16.5 -40.5
q-9 -17 -20 -34.5t-23 -31.5q-8 -11 -16.5 -19t-15.5 -14l2 -2q25 1 46.5 12t37.5 23q4 4 8 7.5t7 6.5q8 9 11.5 13.5t5.5 6.5h1.5h0.5q3 0 4 -2t1 -4q0 -1 -8.5 -11.5t-23.5 -23.5q-3 -2 -6 -4.5t-6 -4.5q-16 -11 -38 -20t-51 -11q-4 0 -15 -10.5t-29 -23.5
q-17 -13 -40 -23.5t-50 -10.5q-34 0 -45 22.5t-11 49.5v1.5v1.5q0 5 1 10t2 9q1 1 1.5 2t0.5 2l-2 2q-8 -8 -19 -20t-23 -24t-25 -23t-27 -19q-10 -7 -20 -10.5t-20 -3.5q-26 0 -38 15.5t-12 40.5q0 6 1 12.5t2 12.5q6 28 23 55.5t36 52.5q11 13 21.5 26t18.5 24l-2 2
q-10 -9 -18.5 -16.5t-16.5 -14.5l-9.5 -9.5l-9.5 -9.5q-5 -6 -10.5 -12.5t-11.5 -13.5q-17 -19 -22 -24.5t-7 -5.5t-3 1.5t-1 4.5q0 2 5.5 7.5t19.5 23.5q9 11 18.5 21t18.5 20q19 18 36 34t30 28l57 3q-8 -13 -28 -43t-43 -64q-2 -3 -4 -6.5t-4 -6.5q-26 -40 -46.5 -76
t-20.5 -47v-1.5v-1.5q1 -7 5.5 -13.5t13.5 -6.5q22 0 51 21.5t60 54.5q19 21 38 45.5t36 49.5q17 23 30.5 46t23.5 43v0z" />
    <glyph glyph-name="x" unicode="x" horiz-adv-x="333" 
d="M297 108h-2q-6 -9 -13 -19t-16 -21q-20 -24 -45 -44.5t-51 -23.5h-3.5h-2.5q-25 0 -34 8.5t-9 22.5q0 13 6 21t21 8q11 0 17 -7t6 -20q0 -9 2 -13t5 -4q11 0 27 10.5t33 27.5q11 10 21 21t19 23q7 8 12.5 16t9.5 15q3 5 7 14.5t7 20.5q2 6 4 11.5t4 11.5q6 20 10.5 37.5
t4.5 24.5q0 9 -3 13t-8 4q-18 0 -41 -18t-52 -47q-40 -39 -50 -53t-13 -14q-2 0 -3 2t-1 4t10 14t53 58q29 30 53.5 48t46.5 18q21 0 31.5 -17t10.5 -47q0 -15 -1 -26.5t-3 -15.5l2 -2q5 9 12.5 20t16.5 23q13 16 28.5 30.5t31.5 24.5q9 4 17.5 7t16.5 3q19 0 29.5 -9
t10.5 -23q0 -10 -5.5 -17t-16.5 -7q-10 0 -16.5 5t-8.5 17v0.5v1.5q-1 5 -3 7.5t-12 2.5q-11 0 -27.5 -13t-34.5 -35q-22 -27 -42 -64t-28 -75q-3 -10 -4 -20.5t-1 -20.5q0 -7 3 -11.5t9 -4.5q17 0 44 20t66 61q29 31 38.5 43t13.5 12q2 0 3.5 -1.5t1.5 -3.5t-20.5 -25
t-46.5 -51q-33 -35 -57 -51t-46 -16q-31 0 -40 24.5t-9 56.5q0 3 0.5 6.5t0.5 7.5q1 3 1.5 6.5t1.5 6.5v0z" />
    <glyph glyph-name="y" unicode="y" horiz-adv-x="444" 
d="M543 272l64 6l-179 -289l2 -2q32 15 60.5 36.5t52.5 44.5q15 15 28.5 29t23.5 27q11 13 15 18t6 6h1.5h1.5q2 0 3 -1.5t1 -3.5t-8.5 -12t-18.5 -22l-0.5 -0.5l-1.5 -1.5q-3 -4 -7 -8t-7 -8q-18 -20 -35.5 -36.5t-35.5 -29.5q-22 -17 -45 -30t-47 -26
q-77 -137 -145.5 -208.5t-113.5 -71.5q-21 0 -35 13.5t-14 40.5q0 55 78 113.5t199 131.5l87 165l-2 2q-8 -11 -25 -30.5t-38 -40.5q-9 -9 -18.5 -18t-19.5 -17q-23 -20 -45 -33.5t-37 -13.5q-17 0 -28.5 15.5t-14.5 34.5v3v4q0 6 1 12l2 12q6 21 18.5 42.5t26.5 41.5
q18 25 33 47.5t15 38.5q0 6 -3.5 9.5t-12.5 3.5q-19 0 -41.5 -17t-51.5 -47q-39 -41 -48.5 -53.5t-12.5 -14.5h-1.5h-0.5q-2 0 -3 1.5t-1 3.5t7.5 11t41.5 48q43 48 69.5 64t43.5 16q22 0 32.5 -16.5t11.5 -35.5v-1.5v-1.5q0 -12 -3.5 -25t-9.5 -27q-7 -14 -16 -29t-19 -29
q-18 -26 -33 -48t-15 -36q0 -8 3 -11.5t11 -3.5q20 0 52 24t66 59q12 13 25 27.5t25 28.5q30 35 53 67.5t33 51.5v0zM378 -34l-2 2q-136 -87 -190.5 -138.5t-54.5 -90.5q0 -20 8.5 -29t21.5 -9q38 0 91 60t126 209v-4v0z" />
    <glyph glyph-name="z" unicode="z" horiz-adv-x="333" 
d="M371 84v-1.5v-0.5v-1.5v-1.5q0 -11 -4 -19.5t-9 -15.5q-4 -5 -7 -9.5t-5 -8.5q0 -2 -0.5 -3.5t-0.5 -3.5t2 -4t5 -2q1 -1 1.5 -1h1.5q11 0 31 15.5t41 36.5q4 5 8.5 9.5l9.5 9.5l2.5 2.5l2.5 2.5q36 38 44.5 48.5t10.5 11.5h1.5h0.5q2 0 3.5 -1.5t1.5 -3.5q0 -3 -13 -17
t-40 -44q-44 -49 -67 -65.5t-39 -16.5q-19 0 -33.5 14t-14.5 33q0 8 3 14t7 12q1 2 2.5 3.5t2.5 3.5q2 4 3.5 7.5t1.5 7.5t-4 6.5t-9 2.5q-10 0 -26.5 -7t-34.5 -18q-7 -3 -13.5 -7.5t-12.5 -8.5q-17 -10 -29 -19.5t-15 -15.5q-1 -2 -3.5 -5t-4.5 -7l-5.5 -5.5t-5.5 -4.5
q-3 -3 -6 -4.5t-6 -1.5q-8 0 -11 2.5t-3 6.5v2t1 2q2 8 10 15t17 13q6 4 12 7l10 5q5 3 45 38t93 76l22 18t23 17q10 8 20.5 15t20.5 14l-2 2l-11 -5.5t-16 -7.5t-19.5 -7.5t-22.5 -5.5q-6 -2 -11.5 -2.5t-11.5 -0.5q-13 0 -23.5 3t-19.5 9l-8 4t-8 5q-5 -4 -10.5 -9
t-11.5 -11l-8.5 -8.5t-8.5 -9.5q-11 -12 -21 -23t-16 -19q-3 -3 -4.5 -5t-2.5 -3t-2 -1h-2q-2 0 -2.5 2t-0.5 5q0 1 12.5 15.5t28.5 31.5q1 1 2.5 2t2.5 2q11 12 21.5 22.5t16.5 15.5q-1 2 -2 4.5t-2 5.5q0 3 -0.5 5.5t-0.5 4.5q0 14 8.5 20t21.5 6q11 0 17.5 -6t6.5 -14
q0 -5 -2 -8.5t-4 -6.5l-1 -1v0q-3 -3 -4.5 -6t-1.5 -7q0 -6 11 -9.5t25 -3.5q7 0 19 2.5t25 6.5q8 3 15.5 6t14.5 5q6 3 11.5 6t8.5 6q3 2 7 6l8 8q2 1 3.5 2t3.5 3q5 4 10.5 7.5t9.5 3.5t6 -3.5t2 -8.5q0 -10 -9.5 -17.5t-21.5 -12.5q-6 -2 -11 -4.5l-9 -4.5t-32.5 -24
t-80.5 -66q-4 -4 -9 -7.5t-9 -7.5q-23 -18 -42 -31t-19 -15q0 -1 1 -2t2 -1q3 0 12.5 6.5t23.5 15.5q11 6 24 11.5t26 8.5q3 0 6.5 0.5t7.5 0.5h1.5h1.5q14 -1 26.5 -8.5t14.5 -23.5v0z" />
    <glyph glyph-name="braceleft" unicode="{" horiz-adv-x="501" 
d="M421 115l-88 -175q-12 -23 -20.5 -44.5t-8.5 -37.5q0 -13 13 -23t35 -10l-6 -25q-43 1 -69.5 10.5t-26.5 41.5q0 16 6 39.5t22 55.5l92 183q1 2 2 4.5t3 4.5q1 4 3 8.5t4 8.5q6 13 10 25.5t4 20.5q0 15 -11 27.5t-31 19.5q51 14 79.5 39t51.5 71q2 2 3 4.5t2 4.5l93 186
q47 94 98.5 119.5t115.5 25.5l-13 -24q-49 -4 -81.5 -33.5t-58.5 -82.5l-88 -176q-2 -5 -4.5 -9t-4.5 -8q-25 -48 -55 -76t-84 -40l-1 -2q23 -7 33 -19t10 -29q0 -16 -7 -35.5t-22 -49.5v0z" />
    <glyph glyph-name="bar" unicode="|" horiz-adv-x="222" 
d="M303 0v91v512h30v-91v-512h-30v0z" />
    <glyph glyph-name="braceright" unicode="}" horiz-adv-x="501" 
d="M495 383l89 176q12 24 20.5 45.5t8.5 37.5q0 13 -13 23t-35 10l6 24q43 0 69.5 -9.5t26.5 -41.5q0 -16 -6 -39.5t-22 -55.5l-92 -185q-1 -2 -2 -4.5t-3 -4.5q-1 -4 -3 -8.5t-4 -8.5q-6 -13 -10 -25.5t-4 -20.5q0 -15 11 -27t31 -20q-52 -14 -80.5 -39t-52.5 -71
q-1 -2 -2 -4.5t-2 -4.5l-92 -185q-46 -93 -97.5 -118.5t-116.5 -25.5l13 23q50 5 82 34.5t58 82.5l88 174q3 5 5.5 10.5t5.5 9.5q24 46 53.5 73.5t83.5 39.5l1 2q-24 7 -34 19t-10 29q0 16 7 35.5t22 49.5v0z" />
    <glyph glyph-name="asciitilde" unicode="~" horiz-adv-x="400" 
d="M475 174l20 -20l-1.5 -1.5t-0.5 -1.5q-12 -16 -27.5 -30t-39.5 -14q-15 0 -28.5 5.5t-27.5 12.5q-13 8 -28.5 14t-34.5 6q-17 0 -28 -12t-17 -26q0 -1 -0.5 -1.5t-0.5 -1.5l-20 20q0 1 0.5 1.5t0.5 1.5q10 16 25.5 30t42.5 14q11 0 23.5 -3.5t24.5 -8.5q4 -1 7 -2.5
t6 -2.5l4 -2t5 -2v0v0q13 -6 25 -11t22 -5q17 0 27.5 12.5t20.5 27.5v0z" />
    <glyph glyph-name="Adieresis" unicode="&#xc4;" horiz-adv-x="1057" 
d="M1054 58l-22 -58h-72l28 62q-3 0 -6.5 0.5t-6.5 1.5q-51 8 -100 24.5t-89 46.5q-67 -59 -158 -99.5t-203 -40.5q-103 0 -179.5 55.5t-76.5 145.5q0 84 55 139t121 77q20 7 40 10.5t38 3.5q92 0 140.5 -46t48.5 -105q0 -70 -54 -113t-118 -52q-8 -1 -15.5 -1.5t-15.5 -0.5
q-31 0 -38.5 2t-7.5 7q0 3 1 4.5t5 1.5q2 0 4.5 -0.5t6.5 -0.5q3 -1 8 -1.5t11 -0.5q78 0 137.5 41.5t59.5 111.5q0 50 -38.5 82.5t-115.5 32.5q-11 0 -21.5 -1t-21.5 -3q-77 -14 -140.5 -69.5t-63.5 -136.5q0 -73 70 -122t154 -50h1.5h1.5q101 0 186 33.5t167 103.5
q-52 41 -88.5 94.5t-36.5 122.5q0 71 40.5 111t88.5 47q6 1 11.5 1.5t10.5 0.5q69 0 124.5 -43t83.5 -101q157 172 267.5 247.5t144.5 75.5q3 0 4 -2t1 -5q0 -4 -45 -56.5t-118 -171.5q-35 -57 -64.5 -113t-57.5 -112q-6 -13 -12.5 -26t-12.5 -26q-14 -29 -28.5 -58.5
t-29.5 -58.5q21 0 42.5 5t45.5 14q10 4 18.5 8t15.5 9q22 14 32.5 25.5t13.5 11.5q2 0 3.5 -1.5t1.5 -3.5q0 -3 -11 -14.5t-33 -25.5q-23 -14 -56 -26t-77 -14v0zM1024 233q0 10 -0.5 20t-1.5 21q-3 22 -7.5 42.5t-10.5 35.5q-19 -18 -36.5 -37t-35.5 -38q-1 0 -2 -1t-1 -2
q-32 -34 -64.5 -67t-68.5 -63q26 -20 57.5 -33.5t63.5 -22.5q19 -5 38 -8.5t37 -5.5q14 38 23 78t9 81v0zM1028 148l2 -2q63 145 152 278t204 243l-2 2q-30 -4 -118.5 -73t-188.5 -169q-16 -16 -31.5 -32t-31.5 -33q6 -15 10.5 -30.5t6.5 -30.5q3 -15 4 -30.5t1 -30.5
q0 -24 -2 -47t-6 -45v0zM688 342q0 -67 28.5 -113t67.5 -77q41 35 79 73t76 77q6 7 12.5 13.5l12.5 12.5q9 10 17.5 19t17.5 18q-27 50 -67 87t-102 37h-2.5h-3.5q-51 -2 -93.5 -37.5t-42.5 -109.5v0zM1364 862q14 0 21.5 -6.5t7.5 -18.5q0 -20 -9 -31.5t-30 -11.5
q-12 0 -18.5 6t-6.5 22q0 17 8 28.5t27 11.5v0zM1509 862q14 0 21.5 -6.5t7.5 -18.5q0 -20 -9 -31.5t-31 -11.5q-12 0 -18.5 6t-6.5 22q0 17 8.5 28.5t27.5 11.5v0z" />
    <glyph glyph-name="Aring" unicode="&#xc5;" horiz-adv-x="1057" 
d="M1054 58l-22 -58h-72l28 62q-3 0 -6.5 0.5t-6.5 1.5q-51 8 -100 24.5t-89 46.5q-67 -59 -158 -99.5t-203 -40.5q-103 0 -179.5 55.5t-76.5 145.5q0 84 55 139t121 77q20 7 40 10.5t38 3.5q92 0 140.5 -46t48.5 -105q0 -70 -54 -113t-118 -52q-8 -1 -15.5 -1.5t-15.5 -0.5
q-31 0 -38.5 2t-7.5 7q0 3 1 4.5t5 1.5q2 0 4.5 -0.5t6.5 -0.5q3 -1 8 -1.5t11 -0.5q78 0 137.5 41.5t59.5 111.5q0 50 -38.5 82.5t-115.5 32.5q-11 0 -21.5 -1t-21.5 -3q-77 -14 -140.5 -69.5t-63.5 -136.5q0 -73 70 -122t154 -50h1.5h1.5q101 0 186 33.5t167 103.5
q-52 41 -88.5 94.5t-36.5 122.5q0 71 40.5 111t88.5 47q6 1 11.5 1.5t10.5 0.5q69 0 124.5 -43t83.5 -101q157 172 267.5 247.5t144.5 75.5q3 0 4 -2t1 -5q0 -4 -45 -56.5t-118 -171.5q-35 -57 -64.5 -113t-57.5 -112q-6 -13 -12.5 -26t-12.5 -26q-14 -29 -28.5 -58.5
t-29.5 -58.5q21 0 42.5 5t45.5 14q10 4 18.5 8t15.5 9q22 14 32.5 25.5t13.5 11.5q2 0 3.5 -1.5t1.5 -3.5q0 -3 -11 -14.5t-33 -25.5q-23 -14 -56 -26t-77 -14v0zM1024 233q0 10 -0.5 20t-1.5 21q-3 22 -7.5 42.5t-10.5 35.5q-19 -18 -36.5 -37t-35.5 -38q-1 0 -2 -1t-1 -2
q-32 -34 -64.5 -67t-68.5 -63q26 -20 57.5 -33.5t63.5 -22.5q19 -5 38 -8.5t37 -5.5q14 38 23 78t9 81v0zM1028 148l2 -2q63 145 152 278t204 243l-2 2q-30 -4 -118.5 -73t-188.5 -169q-16 -16 -31.5 -32t-31.5 -33q6 -15 10.5 -30.5t6.5 -30.5q3 -15 4 -30.5t1 -30.5
q0 -24 -2 -47t-6 -45v0zM688 342q0 -67 28.5 -113t67.5 -77q41 35 79 73t76 77q6 7 12.5 13.5l12.5 12.5q9 10 17.5 19t17.5 18q-27 50 -67 87t-102 37h-2.5h-3.5q-51 -2 -93.5 -37.5t-42.5 -109.5v0zM1343 830q0 37 25.5 62.5t62.5 25.5t63 -25.5t26 -62.5t-26 -62.5
t-63 -25.5t-62.5 25.5t-25.5 62.5v0zM1365 830q0 -27 19.5 -46.5t46.5 -19.5t46.5 19.5t19.5 46.5t-19.5 46.5t-46.5 19.5t-46.5 -19.5t-19.5 -46.5v0z" />
    <glyph glyph-name="Ccedilla" unicode="&#xc7;" horiz-adv-x="668" 
d="M462 10l-27 -62h16q42 1 63.5 -12.5t21.5 -38.5q0 -33 -37 -53t-101 -20q-40 0 -49.5 2.5t-9.5 5.5q0 2 1.5 4t4.5 2h0.5h0.5q2 0 3.5 -0.5t3.5 -0.5q3 0 6.5 -0.5t8.5 -0.5q50 0 87.5 12.5t37.5 45.5q0 16 -11 25.5t-35 9.5l-35 -1l39 82h11v0zM1020 635
q0 -23 -13.5 -47.5t-37.5 -49.5q-58 -60 -162.5 -114t-218.5 -77q-27 -5 -54 -8.5t-53 -4.5q-23 -49 -38.5 -101.5t-15.5 -107.5q0 -61 21.5 -89t85.5 -30q0 3 -0.5 5.5t-0.5 4.5t-0.5 3t-0.5 3q0 3 -0.5 7t-0.5 8q0 117 56 194t137 77q38 0 58 -25t20 -61q0 -69 -59 -127.5
t-129 -84.5q-17 -6 -33.5 -9.5t-32.5 -4.5q1 -16 3.5 -29t4.5 -24q4 -17 7 -27.5t3 -12.5q0 -3 -1.5 -4.5t-3.5 -1.5t-5 8t-7 21q-1 6 -3 12.5t-3 13.5q-3 12 -4.5 23.5t-2.5 19.5q-85 0 -129 47.5t-44 126.5q0 17 3.5 36t9.5 39q6 22 14.5 43.5t17.5 38.5q1 3 2.5 5.5
t2.5 4.5q-76 7 -133 59t-57 128q0 90 67.5 148t173.5 58q23 0 49.5 -5t53.5 -15q37 -14 72.5 -37.5t63.5 -58.5l18 10t19 10q27 14 56.5 27.5t60.5 22.5q22 8 45 12t44 4q32 0 53 -15t21 -49v0zM790 223q0 31 -15 50t-47 19q-7 0 -15 -1.5t-15 -4.5q-48 -17 -89.5 -77
t-55.5 -129q-3 -13 -4.5 -26t-1.5 -26v-22q17 1 36 5.5t38 12.5q63 25 116 80.5t53 118.5v0zM954 687q-18 0 -36.5 -3t-37.5 -8q-33 -9 -65.5 -23t-59.5 -29q-12 -6 -22.5 -13l-19.5 -13q4 -6 8.5 -11.5t8.5 -11.5q19 -29 30.5 -53t11.5 -25q0 -3 -1 -4.5t-5 -1.5t-14 26
t-48 76q-65 -42 -117 -99.5t-92 -125.5q146 0 269.5 53.5t188.5 116.5q26 27 40.5 52t14.5 47q0 20 -12 35t-42 15v0zM454 717q-94 0 -154.5 -54t-60.5 -122q0 -62 45 -103t99 -57q13 -4 25.5 -6t24.5 -3q26 44 66 84.5t82 73.5q30 24 59 43.5t53 33.5q-43 54 -107 82
t-132 28v0z" />
    <glyph glyph-name="Eacute" unicode="&#xc9;" horiz-adv-x="557" 
d="M552 400v2q-16 6 -31 15.5t-29 22.5q-15 -4 -30 -6t-30 -2q-82 0 -137.5 38t-55.5 105t51 106t112 48q9 1 17 1.5t16 0.5q50 0 97 -18.5t84 -49.5q38 18 79.5 32t84.5 14q27 0 42.5 -11.5t15.5 -39.5q0 -11 -4 -22t-12 -22q-20 -32 -61.5 -62t-86.5 -53
q-43 -22 -82.5 -36t-61.5 -15q5 -16 15.5 -29t29.5 -13q2 0 6 0.5t8 1.5q5 1 11 1.5t12 0.5h2.5h2.5q13 -1 24 -5.5t11 -9.5q0 -7 -6 -10t-17 -3q-13 0 -22 2t-16 4t-11.5 4t-9.5 2q-20 0 -45.5 -8t-52.5 -24q-53 -32 -98 -92t-45 -142q0 -55 23 -84.5t69 -36.5
q-1 6 -2 12.5t-1 13.5q-1 3 -1 6.5v6.5q0 114 60 188t136 74q37 0 57 -26t20 -60q0 -71 -59.5 -132t-131.5 -84q-16 -6 -32 -8.5t-32 -2.5q0 -2 0.5 -4.5t0.5 -4.5l4 -22t5 -21q3 -16 6.5 -27t3.5 -14q0 -2 -1.5 -2.5t-3.5 -0.5q-1 0 -2 1t-2 3q-2 4 -4 13t-7 26l-2 6t-1 6
q-3 11 -5.5 22t-3.5 19q-68 0 -115 36.5t-47 108.5q0 87 67.5 149.5t148.5 91.5q19 7 38 11.5t37 7.5v0zM678 222q0 31 -16 50.5t-48 19.5q-10 0 -21 -3.5t-22 -9.5q-38 -21 -73 -70t-52 -104q-6 -19 -9.5 -38t-3.5 -37v-13t1 -11q15 -1 30.5 1.5t31.5 7.5q66 21 121 77
t61 119v5.5v5.5v0zM265 597q0 -69 53 -102t124 -33q8 0 17 0.5t18 1.5q-1 7 -1.5 14t-0.5 14q0 50 34.5 89t75.5 64q5 3 10.5 6t10.5 6q-37 29 -81.5 45.5t-91.5 16.5q-13 0 -28.5 -2.5t-31.5 -6.5q-40 -12 -74 -40.5t-34 -72.5v0zM826 665q0 17 -11 24.5t-35 7.5
q-11 0 -23.5 -2.5t-24.5 -6.5q-17 -6 -34 -14.5t-32 -17.5q-6 -4 -12 -7.5t-12 -7.5l1.5 -1.5l1.5 -1.5q0 -1 1 -1.5t1 -1.5q16 -17 29 -32t13 -16q0 -3 -1.5 -4.5t-3.5 -1.5h-0.5h-0.5q-4 2 -12.5 14t-38.5 40q-43 -31 -73.5 -73t-30.5 -94q22 3 46.5 9.5t48.5 16.5
q68 25 126.5 65t72.5 84q2 5 3 10.5t1 11.5v0zM810 912q9 0 14.5 -5t7.5 -10q0 -2 0.5 -3.5t0.5 -3.5q0 -12 -8 -26.5t-20 -29.5q-9 -11 -19.5 -22t-20.5 -20q-21 -19 -39.5 -31.5t-25.5 -12.5h-1.5t-0.5 1q-2 0 -2.5 0.5t-0.5 2.5q0 4 10.5 11.5t23.5 19.5q6 5 11.5 11
t9.5 13q3 4 5.5 8t4.5 9q7 13 10.5 26t6.5 24q4 17 10.5 27.5t22.5 10.5v0z" />
    <glyph glyph-name="Ntilde" unicode="&#xd1;" horiz-adv-x="1112" 
d="M1092 617h-2q-1 -2 -2.5 -4t-2.5 -4q-27 -44 -55 -93t-58 -98q-62 -106 -135 -203.5t-167 -155.5q-61 -37 -120 -50.5t-109 -13.5q-117 0 -195.5 49.5t-78.5 145.5q0 89 76 160.5t196 71.5q97 0 152 -41.5t55 -103.5q0 -76 -68 -125.5t-151 -49.5q-7 0 -15 0.5t-16 1.5
q-16 2 -31 6t-26 7q-6 3 -10 5.5t-4 4.5t1.5 3.5t3.5 1.5q3 0 9.5 -3t17.5 -6q12 -3 29 -6t42 -3q86 0 144 47t58 106q0 50 -45.5 85.5t-132.5 35.5q-13 0 -26.5 -1.5t-27.5 -4.5q-79 -15 -145 -72t-66 -141q0 -76 68 -119.5t178 -43.5q35 0 70 5t70 17q91 30 182.5 114.5
t187.5 248.5q74 127 129 220.5t63 93.5q2 0 4 -1t3 -3q1 -1 1.5 -2l0.5 -1q0 -7 -6.5 -19.5t-14.5 -35.5q-8 -24 -14.5 -61.5t-6.5 -95.5q0 -14 0.5 -27.5t1.5 -27.5t1.5 -27.5t0.5 -27.5v-25.5t-1 -25.5q-2 -63 -10 -125.5t-25 -123.5l2 -2q19 37 39.5 75.5t42.5 77.5
q37 66 76.5 130.5t79.5 121.5q68 96 133 158t117 62q16 0 28.5 -10.5t16.5 -22.5q1 -2 1.5 -5t0.5 -5q0 -14 -10.5 -25.5t-28.5 -11.5q-16 0 -22.5 7t-9.5 16q-1 2 -1.5 3.5t-0.5 3.5q-2 6 -5 11t-10 5q-41 0 -137 -110.5t-226 -344.5q-72 -129 -90.5 -173.5t-27.5 -51.5
q-1 -1 -2.5 -1.5t-3.5 -0.5h-1h-1q-2 1 -3 2t-1 4q0 4 0.5 6.5t1.5 4.5q2 5 4.5 10t5.5 13q5 13 8.5 36t3.5 66q0 17 -1 35t-3 35q-1 11 -2 21t-2 21q-3 27 -5.5 54t-2.5 52q0 65 9 111.5t20 79.5q10 30 18.5 50t10.5 33v0zM1310 869q17 0 35 -5.5t37 -12.5t37 -12.5
t33 -5.5q18 0 28 7t15 16q3 4 5 8.5t3 7.5q2 3 3.5 4.5t3.5 1.5t3 -2t1 -5t-3 -13.5t-10 -22.5q-9 -15 -25 -26.5t-41 -11.5q-16 0 -33.5 5t-34.5 12t-33.5 12t-32.5 5q-15 0 -24 -6.5t-15 -14.5q-5 -7 -8 -12.5t-6 -8.5q-1 0 -1.5 -0.5t-1.5 -0.5q-2 0 -3 2t-1 5t4 13.5
t11 23.5q9 14 22.5 25.5t31.5 11.5v0z" />
    <glyph glyph-name="Odieresis" unicode="&#xd6;" horiz-adv-x="779" 
d="M974 457q0 -34 -8.5 -71.5t-24.5 -74.5q-51 -121 -161.5 -221.5t-235.5 -100.5q-79 0 -115 54.5t-40 120.5v8v8q0 19 2.5 38t6.5 38q26 107 108.5 207t179.5 164q-19 7 -40 10.5t-44 3.5q-117 0 -193.5 -86.5t-85.5 -189.5v-1.5v-1.5q-1 -10 -2.5 -13t-3.5 -3t-3.5 1.5
t-2.5 3.5v1.5v0.5q0 3 5.5 43t32.5 92q35 66 102 115.5t152 49.5q26 0 50 -4.5t45 -12.5q7 5 14 9l14 8q47 26 92 41t84 15q58 0 91 -30.5t33 -88.5q0 -3 -0.5 -10t-1.5 -15q-2 -10 -4.5 -18t-6.5 -8q-2 0 -2.5 2t-0.5 5q0 2 0.5 7.5t1.5 12.5v2.5t1 2.5q0 6 0.5 11.5
t0.5 9.5q0 53 -31 79t-81 26q-37 0 -77 -14t-81 -39q-7 -4 -13.5 -8.5t-13.5 -9.5q17 -7 32 -16.5t28 -21.5q20 11 38.5 16t34.5 5q56 0 90 -40t34 -112v0zM447 136q0 -58 25 -97t80 -39q23 0 46.5 5t47.5 15q97 38 183 134.5t118 204.5q7 24 11 48.5t4 47.5
q0 71 -29.5 106.5t-82.5 35.5q-16 0 -32 -4.5t-33 -12.5q30 -29 48 -67t23 -78q1 -8 1.5 -16t0.5 -16q0 -14 -2 -28t-6 -29q-17 -63 -65 -115.5t-115 -52.5q-40 0 -68 25t-28 68q0 96 51 173.5t112 120.5q8 5 15 9.5t14 8.5q-12 11 -27 20.5t-32 14.5q-99 -73 -176.5 -200
t-83.5 -264v-8.5v-9.5v0zM586 277q0 -37 18 -60t57 -23q58 0 96.5 49t56.5 107q7 23 10.5 45.5t3.5 42.5q0 41 -14 75.5t-40 61.5q-1 -1 -2.5 -1.5t-3.5 -1.5q-66 -36 -121.5 -115t-60.5 -167v-6.5v-6.5v0zM843 862q14 0 21.5 -6.5t7.5 -18.5q0 -20 -9 -31.5t-30 -11.5
q-12 0 -18.5 6t-6.5 22q0 17 8 28.5t27 11.5v0zM987 862q14 0 21.5 -6.5t7.5 -18.5q0 -20 -9 -31.5t-30 -11.5q-12 0 -18.5 6t-6.5 22q0 17 8 28.5t27 11.5v0z" />
    <glyph glyph-name="Udieresis" unicode="&#xdc;" horiz-adv-x="834" 
d="M1156 684l50 3l-200 -313q-6 -9 -11.5 -17.5t-11.5 -17.5q-4 -7 -9 -14l-10 -14q-58 -88 -106.5 -165t-47.5 -114q0 -10 5.5 -18t16.5 -8q20 0 45 18t55 46q38 35 54.5 57t20.5 22q3 0 4.5 -1t2.5 -2v-1.5v-0.5q0 -1 -13 -16.5t-30 -33.5v-0.5t-1 -0.5q-3 -4 -6 -7.5
t-6 -6.5q-6 -7 -13.5 -14.5t-16.5 -14.5q-8 -7 -17 -14.5t-18 -13.5q-16 -12 -32.5 -19.5t-27.5 -7.5q-23 0 -33 15t-10 43q0 33 7 60t19 54q3 8 7.5 17t8.5 18l-2 2q-12 -17 -34 -41.5t-49 -50.5q-16 -16 -34.5 -32t-36.5 -30q-32 -24 -62.5 -39.5t-54.5 -15.5
q-22 0 -37.5 16.5t-15.5 45.5q0 52 30.5 112t72.5 122l18 26l18 26q52 75 95.5 143t43.5 118q0 40 -28 60t-62 23h-4.5h-5.5q-11 0 -22.5 -1t-23.5 -3q22 -18 31 -44t9 -55q0 -13 -1.5 -26t-5.5 -27q-20 -80 -90 -147.5t-158 -67.5q-47 0 -69.5 28t-22.5 69q0 5 0.5 9.5
t0.5 9.5q10 80 88.5 151.5t169.5 99.5q5 2 9 3l8 2q-15 8 -35 12.5t-46 4.5q-113 0 -210 -102.5t-111 -245.5v-2v-2q-1 -5 -2 -7t-4 -2q-4 0 -5 4t-1 10q0 11 5 35t13 51q4 10 7.5 20t7.5 19q41 91 121.5 162.5t178.5 71.5q32 0 56.5 -6.5t42.5 -17.5q14 3 27 4.5t26 1.5
q65 0 100.5 -32t35.5 -99q0 -46 -23.5 -99t-58.5 -108q-13 -21 -27.5 -42t-29.5 -42q-52 -74 -95.5 -138t-43.5 -105q0 -16 6 -22t22 -6q29 0 93 44t134 122q25 28 49 59t47 66q163 249 203.5 314.5t56.5 70.5q2 1 4.5 1.5t4.5 0.5v0zM658 603q0 23 -9 43t-29 33
q-89 -19 -164.5 -79t-101.5 -128q-6 -14 -8.5 -27.5t-2.5 -26.5q0 -36 18.5 -61t52.5 -25q17 0 35 5.5t36 14.5q49 26 93 76t65 104q7 18 11 36t4 35v0zM934 862q14 0 21.5 -6.5t7.5 -18.5q0 -20 -9 -31.5t-30 -11.5q-12 0 -18.5 6t-6.5 22q0 17 8 28.5t27 11.5v0zM1078 862
q14 0 21.5 -6.5t7.5 -18.5q0 -20 -9 -31.5t-30 -11.5q-12 0 -18.5 6t-6.5 22q0 17 8 28.5t27 11.5v0z" />
    <glyph glyph-name="aacute" unicode="&#xe1;" 
d="M483 271l49 2q-9 -11 -28.5 -39.5t-41.5 -62.5q-3 -5 -6.5 -10.5t-6.5 -11.5q-25 -39 -43.5 -74.5t-18.5 -48.5q0 -6 3.5 -10t13.5 -4q23 0 61 34.5t82 85.5q8 10 10.5 13t4.5 3v0v0q2 0 3.5 -1t1.5 -3q1 0 1 -0.5v-1.5t-11.5 -14.5t-25.5 -28.5l-1.5 -1.5l-0.5 -0.5
q-4 -5 -8 -9.5t-8 -8.5q-35 -36 -63.5 -57.5t-48.5 -21.5t-32 14t-12 55v5.5t1 4.5v4v4l-16 -16t-20 -19q-8 -7 -17 -15t-18 -14q-14 -10 -27.5 -16.5t-25.5 -6.5q-37 0 -50 27.5t-13 60.5v1.5v1.5q0 6 0.5 12t0.5 12q1 5 2 11l2 12q-1 0 -1.5 -0.5t-1.5 -0.5l-1.5 -1.5
t-1.5 -0.5t-2 1l-2 2v1.5v0.5v1v1q1 2 4.5 5.5t11.5 13.5q28 34 64 61.5t74 42.5q17 6 33.5 9.5t32.5 3.5q23 0 33 -14.5t10 -34.5q0 -8 -0.5 -15t-2.5 -12l2 -2q17 27 24.5 41.5t13.5 21.5q3 4 7 6t10 2v0zM211 44q0 -14 5.5 -23t17.5 -9q15 0 35.5 12t41.5 32
q20 18 39 40.5t34 45.5q15 24 24 47t9 41q0 15 -7.5 25.5t-23.5 10.5q-7 0 -14.5 -1.5t-15.5 -4.5q-33 -14 -64 -49t-52 -75q-14 -25 -21.5 -49.5t-7.5 -42.5v0zM507 492q9 0 14.5 -5t7.5 -10q0 -2 0.5 -3.5t0.5 -3.5q0 -12 -8 -26.5t-20 -29.5q-9 -11 -19.5 -22t-21.5 -20
q-21 -19 -39.5 -31.5t-25.5 -12.5h-1.5t-0.5 1q-2 0 -2.5 0.5t-0.5 2.5q0 4 10.5 11.5t23.5 19.5q6 5 11.5 11t9.5 13q3 4 5.5 8t4.5 9q7 13 10.5 26t6.5 24q4 17 10.5 27.5t23.5 10.5v0z" />
    <glyph glyph-name="agrave" unicode="&#xe0;" 
d="M483 271l49 2q-9 -11 -28.5 -39.5t-41.5 -62.5q-3 -5 -6.5 -10.5t-6.5 -11.5q-25 -39 -43.5 -74.5t-18.5 -48.5q0 -6 3.5 -10t13.5 -4q23 0 61 34.5t82 85.5q8 10 10.5 13t4.5 3v0v0q2 0 3.5 -1t1.5 -3q1 0 1 -0.5v-1.5t-11.5 -14.5t-25.5 -28.5l-1.5 -1.5l-0.5 -0.5
q-4 -5 -8 -9.5t-8 -8.5q-35 -36 -63.5 -57.5t-48.5 -21.5t-32 14t-12 55v5.5t1 4.5v4v4l-16 -16t-20 -19q-8 -7 -17 -15t-18 -14q-14 -10 -27.5 -16.5t-25.5 -6.5q-37 0 -50 27.5t-13 60.5v1.5v1.5q0 6 0.5 12t0.5 12q1 5 2 11l2 12q-1 0 -1.5 -0.5t-1.5 -0.5l-1.5 -1.5
t-1.5 -0.5t-2 1l-2 2v1.5v0.5v1v1q1 2 4.5 5.5t11.5 13.5q28 34 64 61.5t74 42.5q17 6 33.5 9.5t32.5 3.5q23 0 33 -14.5t10 -34.5q0 -8 -0.5 -15t-2.5 -12l2 -2q17 27 24.5 41.5t13.5 21.5q3 4 7 6t10 2v0zM211 44q0 -14 5.5 -23t17.5 -9q15 0 35.5 12t41.5 32
q20 18 39 40.5t34 45.5q15 24 24 47t9 41q0 15 -7.5 25.5t-23.5 10.5q-7 0 -14.5 -1.5t-15.5 -4.5q-33 -14 -64 -49t-52 -75q-14 -25 -21.5 -49.5t-7.5 -42.5v0zM340 492q16 0 22.5 -10.5t10.5 -27.5q3 -11 6.5 -24t10.5 -26q2 -5 4.5 -9t5.5 -8q5 -7 10 -13t11 -11
q13 -12 23.5 -19.5t10.5 -11.5q0 -2 -0.5 -2.5t-2.5 -0.5q0 -1 -0.5 -1h-1.5q-7 0 -25.5 12.5t-39.5 31.5q-10 9 -20.5 20t-19.5 22q-12 15 -20 29.5t-8 26.5q0 2 0.5 3.5t0.5 3.5q2 5 7.5 10t14.5 5v0z" />
    <glyph glyph-name="acircumflex" unicode="&#xe2;" 
d="M483 271l49 2q-9 -11 -28.5 -39.5t-41.5 -62.5q-3 -5 -6.5 -10.5t-6.5 -11.5q-25 -39 -43.5 -74.5t-18.5 -48.5q0 -6 3.5 -10t13.5 -4q23 0 61 34.5t82 85.5q8 10 10.5 13t4.5 3v0v0q2 0 3.5 -1t1.5 -3q1 0 1 -0.5v-1.5t-11.5 -14.5t-25.5 -28.5l-1.5 -1.5l-0.5 -0.5
q-4 -5 -8 -9.5t-8 -8.5q-35 -36 -63.5 -57.5t-48.5 -21.5t-32 14t-12 55v5.5t1 4.5v4v4l-16 -16t-20 -19q-8 -7 -17 -15t-18 -14q-14 -10 -27.5 -16.5t-25.5 -6.5q-37 0 -50 27.5t-13 60.5v1.5v1.5q0 6 0.5 12t0.5 12q1 5 2 11l2 12q-1 0 -1.5 -0.5t-1.5 -0.5l-1.5 -1.5
t-1.5 -0.5t-2 1l-2 2v1.5v0.5v1v1q1 2 4.5 5.5t11.5 13.5q28 34 64 61.5t74 42.5q17 6 33.5 9.5t32.5 3.5q23 0 33 -14.5t10 -34.5q0 -8 -0.5 -15t-2.5 -12l2 -2q17 27 24.5 41.5t13.5 21.5q3 4 7 6t10 2v0zM211 44q0 -14 5.5 -23t17.5 -9q15 0 35.5 12t41.5 32
q20 18 39 40.5t34 45.5q15 24 24 47t9 41q0 15 -7.5 25.5t-23.5 10.5q-7 0 -14.5 -1.5t-15.5 -4.5q-33 -14 -64 -49t-52 -75q-14 -25 -21.5 -49.5t-7.5 -42.5v0zM448 492h14q5 -25 13.5 -48.5t18.5 -44.5q13 -29 24.5 -48t11.5 -21q0 -1 -0.5 -1.5t-1.5 -0.5
q-6 0 -16.5 11.5t-22.5 26.5l-6 8t-5 8q-12 16 -21 30.5t-11 20.5l-12.5 -12.5l-13.5 -13.5q-5 -5 -10.5 -9.5t-11.5 -9.5q-27 -24 -50.5 -42t-28.5 -18q-2 0 -3 0.5t-1 1.5q0 5 25.5 29t55.5 61q14 16 27.5 34.5t24.5 37.5v0z" />
    <glyph glyph-name="adieresis" unicode="&#xe4;" 
d="M483 271l49 2q-9 -11 -28.5 -39.5t-41.5 -62.5q-3 -5 -6.5 -10.5t-6.5 -11.5q-25 -39 -43.5 -74.5t-18.5 -48.5q0 -6 3.5 -10t13.5 -4q23 0 61 34.5t82 85.5q8 10 10.5 13t4.5 3v0v0q2 0 3.5 -1t1.5 -3q1 0 1 -0.5v-1.5t-11.5 -14.5t-25.5 -28.5l-1.5 -1.5l-0.5 -0.5
q-4 -5 -8 -9.5t-8 -8.5q-35 -36 -63.5 -57.5t-48.5 -21.5t-32 14t-12 55v5.5t1 4.5v4v4l-16 -16t-20 -19q-8 -7 -17 -15t-18 -14q-14 -10 -27.5 -16.5t-25.5 -6.5q-37 0 -50 27.5t-13 60.5v1.5v1.5q0 6 0.5 12t0.5 12q1 5 2 11l2 12q-1 0 -1.5 -0.5t-1.5 -0.5l-1.5 -1.5
t-1.5 -0.5t-2 1l-2 2v1.5v0.5v1v1q1 2 4.5 5.5t11.5 13.5q28 34 64 61.5t74 42.5q17 6 33.5 9.5t32.5 3.5q23 0 33 -14.5t10 -34.5q0 -8 -0.5 -15t-2.5 -12l2 -2q17 27 24.5 41.5t13.5 21.5q3 4 7 6t10 2v0zM211 44q0 -14 5.5 -23t17.5 -9q15 0 35.5 12t41.5 32
q20 18 39 40.5t34 45.5q15 24 24 47t9 41q0 15 -7.5 25.5t-23.5 10.5q-7 0 -14.5 -1.5t-15.5 -4.5q-33 -14 -64 -49t-52 -75q-14 -25 -21.5 -49.5t-7.5 -42.5v0zM370 442q14 0 21.5 -6.5t7.5 -18.5q0 -20 -9 -31.5t-30 -11.5q-12 0 -18.5 6t-6.5 22q0 17 8 28.5t27 11.5v0z
M515 442q14 0 21.5 -6.5t7.5 -18.5q0 -20 -9 -31.5t-30 -11.5q-13 0 -19.5 6t-6.5 22q0 17 8.5 28.5t27.5 11.5v0z" />
    <glyph glyph-name="atilde" unicode="&#xe3;" 
d="M483 271l49 2q-9 -11 -28.5 -39.5t-41.5 -62.5q-3 -5 -6.5 -10.5t-6.5 -11.5q-25 -39 -43.5 -74.5t-18.5 -48.5q0 -6 3.5 -10t13.5 -4q23 0 61 34.5t82 85.5q8 10 10.5 13t4.5 3v0v0q2 0 3.5 -1t1.5 -3q1 0 1 -0.5v-1.5t-11.5 -14.5t-25.5 -28.5l-1.5 -1.5l-0.5 -0.5
q-4 -5 -8 -9.5t-8 -8.5q-35 -36 -63.5 -57.5t-48.5 -21.5t-32 14t-12 55v5.5t1 4.5v4v4l-16 -16t-20 -19q-8 -7 -17 -15t-18 -14q-14 -10 -27.5 -16.5t-25.5 -6.5q-37 0 -50 27.5t-13 60.5v1.5v1.5q0 6 0.5 12t0.5 12q1 5 2 11l2 12q-1 0 -1.5 -0.5t-1.5 -0.5l-1.5 -1.5
t-1.5 -0.5t-2 1l-2 2v1.5v0.5v1v1q1 2 4.5 5.5t11.5 13.5q28 34 64 61.5t74 42.5q17 6 33.5 9.5t32.5 3.5q23 0 33 -14.5t10 -34.5q0 -8 -0.5 -15t-2.5 -12l2 -2q17 27 24.5 41.5t13.5 21.5q3 4 7 6t10 2v0zM211 44q0 -14 5.5 -23t17.5 -9q15 0 35.5 12t41.5 32
q20 18 39 40.5t34 45.5q15 24 24 47t9 41q0 15 -7.5 25.5t-23.5 10.5q-7 0 -14.5 -1.5t-15.5 -4.5q-33 -14 -64 -49t-52 -75q-14 -25 -21.5 -49.5t-7.5 -42.5v0zM372 449q17 0 35 -5.5t37 -12.5t37 -12.5t34 -5.5q18 0 27.5 7t14.5 16q3 4 5 9t4 8q2 2 3 3.5t3 1.5t3 -2
t1 -5t-3 -13.5t-10 -22.5q-9 -15 -24.5 -26.5t-41.5 -11.5q-16 0 -33.5 5t-34.5 12t-33.5 12t-32.5 5q-15 0 -24 -6.5t-15 -14.5q-5 -7 -8 -12.5t-6 -8.5q-1 0 -1.5 -0.5t-1.5 -0.5q-2 0 -3 2t-1 5t4 13.5t11 23.5q9 14 22.5 25.5t31.5 11.5v0z" />
    <glyph glyph-name="aring" unicode="&#xe5;" 
d="M483 271l49 2q-9 -11 -28.5 -39.5t-41.5 -62.5q-3 -5 -6.5 -10.5t-6.5 -11.5q-25 -39 -43.5 -74.5t-18.5 -48.5q0 -6 3.5 -10t13.5 -4q23 0 61 34.5t82 85.5q8 10 10.5 13t4.5 3v0v0q2 0 3.5 -1t1.5 -3q1 0 1 -0.5v-1.5t-11.5 -14.5t-25.5 -28.5l-1.5 -1.5l-0.5 -0.5
q-4 -5 -8 -9.5t-8 -8.5q-35 -36 -63.5 -57.5t-48.5 -21.5t-32 14t-12 55v5.5t1 4.5v4v4l-16 -16t-20 -19q-8 -7 -17 -15t-18 -14q-14 -10 -27.5 -16.5t-25.5 -6.5q-37 0 -50 27.5t-13 60.5v1.5v1.5q0 6 0.5 12t0.5 12q1 5 2 11l2 12q-1 0 -1.5 -0.5t-1.5 -0.5l-1.5 -1.5
t-1.5 -0.5t-2 1l-2 2v1.5v0.5v1v1q1 2 4.5 5.5t11.5 13.5q28 34 64 61.5t74 42.5q17 6 33.5 9.5t32.5 3.5q23 0 33 -14.5t10 -34.5q0 -8 -0.5 -15t-2.5 -12l2 -2q17 27 24.5 41.5t13.5 21.5q3 4 7 6t10 2v0zM211 44q0 -14 5.5 -23t17.5 -9q15 0 35.5 12t41.5 32
q20 18 39 40.5t34 45.5q15 24 24 47t9 41q0 15 -7.5 25.5t-23.5 10.5q-7 0 -14.5 -1.5t-15.5 -4.5q-33 -14 -64 -49t-52 -75q-14 -25 -21.5 -49.5t-7.5 -42.5v0zM349 410q0 37 25.5 62.5t62.5 25.5t63 -25.5t26 -62.5t-26 -62.5t-63 -25.5t-62.5 25.5t-25.5 62.5v0zM371 410
q0 -27 19.5 -46.5t46.5 -19.5t47 19.5t20 46.5t-20 46.5t-47 19.5t-46.5 -19.5t-19.5 -46.5v0z" />
    <glyph glyph-name="ccedilla" unicode="&#xe7;" horiz-adv-x="278" 
d="M247 10l-27 -62h16q41 1 62.5 -12.5t21.5 -38.5q0 -33 -36.5 -53t-100.5 -20q-40 0 -49.5 2.5t-9.5 5.5q0 2 1.5 4t4.5 2h0.5h0.5q2 0 3.5 -0.5t3.5 -0.5q3 0 6.5 -0.5t8.5 -0.5q50 0 87.5 12.5t37.5 45.5q0 16 -11 25.5t-35 9.5l-35 -1l39 82h11v0zM435 229
q0 -2 -0.5 -5t-0.5 -5q-3 -12 -12.5 -22.5t-23.5 -10.5q-13 0 -19 7.5t-6 17.5t4.5 14t10.5 7h0.5h0.5q6 3 10 6t4 11v1.5v0.5q-1 6 -6.5 10.5t-16.5 4.5q-13 0 -27.5 -6t-29.5 -16q-38 -27 -70 -79.5t-32 -113.5q0 -19 10 -29t32 -10q19 0 43.5 10.5t49.5 29.5q9 7 17.5 15
t17.5 17q40 41 48.5 53t10.5 12v0v0q3 0 4.5 -2t1.5 -4t-11.5 -15.5t-27.5 -30.5q-42 -46 -76 -68.5t-67 -27.5q-5 0 -9.5 -0.5t-8.5 -0.5q-38 0 -55.5 26t-21.5 57q-1 7 -1.5 13.5t-0.5 13.5q0 6 0.5 10.5t1.5 7.5q0 4 0.5 6t0.5 3t-0.5 1.5t-1.5 0.5t-2 -0.5t-2 -1.5
l-1.5 -1.5t-1.5 -0.5q-2 0 -3.5 1.5t-1.5 3.5t5 8.5t29 34.5q43 50 85.5 72.5t84.5 22.5q29 0 47 -12.5t18 -36.5v0z" />
    <glyph glyph-name="eacute" unicode="&#xe9;" horiz-adv-x="278" 
d="M426 230q0 -35 -36 -61.5t-79 -43.5q-26 -10 -50 -17t-41 -10q-1 -8 -2.5 -16.5t-1.5 -16.5q0 -29 9.5 -40.5t32.5 -12.5q20 -1 57 16.5t83 62.5q29 30 39.5 44t13.5 14q2 0 3.5 -1.5t1.5 -4.5q0 -2 -12 -16.5t-28 -31.5l-6 -6t-5 -6q-5 -5 -9.5 -9t-8.5 -8
q-22 -20 -41.5 -33.5t-37.5 -20.5q-14 -6 -28 -9t-29 -3q-39 0 -58 30.5t-21 67.5v4v4q0 6 0.5 10.5t1.5 8.5q0 4 0.5 6.5t0.5 3.5v1.5v0.5h-1v0l-0.5 -0.5l-0.5 -0.5q-1 -1 -1 -1.5t-1 -0.5l-1 0.5t-1 1.5q-1 0 -1.5 0.5t-0.5 1.5l-0.5 1l-0.5 1q0 2 5.5 8.5t11.5 13.5
l1.5 1.5t1.5 0.5q5 6 9.5 11t7.5 8q20 20 40.5 36.5t41.5 29.5q24 14 47 21.5t44 7.5q23 0 36.5 -13.5t13.5 -34.5v0zM376 266q-12 0 -26.5 -6.5t-29.5 -18.5q-18 -14 -35 -32.5t-31 -38.5q-11 -16 -19 -31.5t-11 -28.5q14 2 29 6t31 11q42 17 77 49t35 71q0 10 -5 14.5
t-15 4.5v0zM467 492q9 0 14.5 -5t7.5 -10q0 -2 0.5 -3.5t0.5 -3.5q0 -12 -8 -26.5t-20 -29.5q-9 -11 -19.5 -22t-20.5 -20q-21 -19 -39.5 -31.5t-25.5 -12.5h-1.5t-0.5 1q-2 0 -2.5 0.5t-0.5 2.5q0 4 10.5 11.5t23.5 19.5q6 5 11.5 11t9.5 13q3 4 5.5 8t4.5 9q7 13 10.5 26
t6.5 24q4 17 10.5 27.5t22.5 10.5v0z" />
    <glyph glyph-name="egrave" unicode="&#xe8;" horiz-adv-x="278" 
d="M426 230q0 -35 -36 -61.5t-79 -43.5q-26 -10 -50 -17t-41 -10q-1 -8 -2.5 -16.5t-1.5 -16.5q0 -29 9.5 -40.5t32.5 -12.5q20 -1 57 16.5t83 62.5q29 30 39.5 44t13.5 14q2 0 3.5 -1.5t1.5 -4.5q0 -2 -12 -16.5t-28 -31.5l-6 -6t-5 -6q-5 -5 -9.5 -9t-8.5 -8
q-22 -20 -41.5 -33.5t-37.5 -20.5q-14 -6 -28 -9t-29 -3q-39 0 -58 30.5t-21 67.5v4v4q0 6 0.5 10.5t1.5 8.5q0 4 0.5 6.5t0.5 3.5v1.5v0.5h-1v0l-0.5 -0.5l-0.5 -0.5q-1 -1 -1 -1.5t-1 -0.5l-1 0.5t-1 1.5q-1 0 -1.5 0.5t-0.5 1.5l-0.5 1l-0.5 1q0 2 5.5 8.5t11.5 13.5
l1.5 1.5t1.5 0.5q5 6 9.5 11t7.5 8q20 20 40.5 36.5t41.5 29.5q24 14 47 21.5t44 7.5q23 0 36.5 -13.5t13.5 -34.5v0zM376 266q-12 0 -26.5 -6.5t-29.5 -18.5q-18 -14 -35 -32.5t-31 -38.5q-11 -16 -19 -31.5t-11 -28.5q14 2 29 6t31 11q42 17 77 49t35 71q0 10 -5 14.5
t-15 4.5v0zM301 492q16 0 22.5 -10.5t10.5 -27.5q3 -11 6.5 -24t10.5 -26q2 -5 4.5 -9t5.5 -8q5 -7 10 -13t11 -11q13 -12 23.5 -19.5t10.5 -11.5q0 -2 -0.5 -2.5t-2.5 -0.5q0 -1 -0.5 -1h-1.5q-7 0 -25.5 12.5t-39.5 31.5q-10 9 -20.5 20t-19.5 22q-12 15 -20 29.5t-8 26.5
q0 2 0.5 3.5t0.5 3.5q2 5 7.5 10t14.5 5v0z" />
    <glyph glyph-name="ecircumflex" unicode="&#xea;" horiz-adv-x="278" 
d="M426 230q0 -35 -36 -61.5t-79 -43.5q-26 -10 -50 -17t-41 -10q-1 -8 -2.5 -16.5t-1.5 -16.5q0 -29 9.5 -40.5t32.5 -12.5q20 -1 57 16.5t83 62.5q29 30 39.5 44t13.5 14q2 0 3.5 -1.5t1.5 -4.5q0 -2 -12 -16.5t-28 -31.5l-6 -6t-5 -6q-5 -5 -9.5 -9t-8.5 -8
q-22 -20 -41.5 -33.5t-37.5 -20.5q-14 -6 -28 -9t-29 -3q-39 0 -58 30.5t-21 67.5v4v4q0 6 0.5 10.5t1.5 8.5q0 4 0.5 6.5t0.5 3.5v1.5v0.5h-1v0l-0.5 -0.5l-0.5 -0.5q-1 -1 -1 -1.5t-1 -0.5l-1 0.5t-1 1.5q-1 0 -1.5 0.5t-0.5 1.5l-0.5 1l-0.5 1q0 2 5.5 8.5t11.5 13.5
l1.5 1.5t1.5 0.5q5 6 9.5 11t7.5 8q20 20 40.5 36.5t41.5 29.5q24 14 47 21.5t44 7.5q23 0 36.5 -13.5t13.5 -34.5v0zM376 266q-12 0 -26.5 -6.5t-29.5 -18.5q-18 -14 -35 -32.5t-31 -38.5q-11 -16 -19 -31.5t-11 -28.5q14 2 29 6t31 11q42 17 77 49t35 71q0 10 -5 14.5
t-15 4.5v0zM409 492h14q5 -25 13.5 -48.5t17.5 -43.5q14 -30 25 -49t11 -21q0 -1 -0.5 -1.5t-1.5 -0.5q-6 0 -16.5 11.5t-21.5 26.5l-6 8l-6 8q-11 16 -20 30.5t-11 20.5l-12.5 -12.5l-13.5 -13.5q-5 -5 -10.5 -9.5t-11.5 -9.5q-27 -24 -50.5 -42t-28.5 -18q-2 0 -3 0.5
t-1 1.5q0 5 25.5 29t55.5 61q14 16 27.5 34.5t24.5 37.5v0z" />
    <glyph glyph-name="edieresis" unicode="&#xeb;" horiz-adv-x="278" 
d="M426 230q0 -35 -36 -61.5t-79 -43.5q-26 -10 -50 -17t-41 -10q-1 -8 -2.5 -16.5t-1.5 -16.5q0 -29 9.5 -40.5t32.5 -12.5q20 -1 57 16.5t83 62.5q29 30 39.5 44t13.5 14q2 0 3.5 -1.5t1.5 -4.5q0 -2 -12 -16.5t-28 -31.5l-6 -6t-5 -6q-5 -5 -9.5 -9t-8.5 -8
q-22 -20 -41.5 -33.5t-37.5 -20.5q-14 -6 -28 -9t-29 -3q-39 0 -58 30.5t-21 67.5v4v4q0 6 0.5 10.5t1.5 8.5q0 4 0.5 6.5t0.5 3.5v1.5v0.5h-1v0l-0.5 -0.5l-0.5 -0.5q-1 -1 -1 -1.5t-1 -0.5l-1 0.5t-1 1.5q-1 0 -1.5 0.5t-0.5 1.5l-0.5 1l-0.5 1q0 2 5.5 8.5t11.5 13.5
l1.5 1.5t1.5 0.5q5 6 9.5 11t7.5 8q20 20 40.5 36.5t41.5 29.5q24 14 47 21.5t44 7.5q23 0 36.5 -13.5t13.5 -34.5v0zM376 266q-12 0 -26.5 -6.5t-29.5 -18.5q-18 -14 -35 -32.5t-31 -38.5q-11 -16 -19 -31.5t-11 -28.5q14 2 29 6t31 11q42 17 77 49t35 71q0 10 -5 14.5
t-15 4.5v0zM331 442q14 0 21.5 -6.5t7.5 -18.5q0 -20 -9 -31.5t-30 -11.5q-12 0 -18.5 6t-6.5 22q0 17 8 28.5t27 11.5v0zM475 442q14 0 22 -6.5t8 -18.5q0 -20 -9.5 -31.5t-30.5 -11.5q-12 0 -18.5 6t-6.5 22q0 17 8 28.5t27 11.5v0z" />
    <glyph glyph-name="iacute" unicode="&#xed;" horiz-adv-x="222" 
d="M282 274l63 4q-90 -148 -114.5 -188.5t-24.5 -56.5q0 -12 5 -16t12 -5h0.5h1.5q12 0 27 7.5t30 18.5q11 8 21 16.5t19 17.5l7.5 7.5l6.5 6.5l7.5 7.5l7.5 7.5q1 2 2.5 3.5l3.5 3.5q15 17 27 30.5t13 13.5q2 0 4 -1t2 -4q0 -2 -14.5 -19.5t-46.5 -50.5q-37 -38 -67 -57.5
t-51 -19.5q-23 0 -35.5 15t-12.5 37v5.5t1 5.5q3 32 20 63.5t38 60.5q9 14 18.5 26.5t17.5 24.5l-2 2q-9 -9 -29 -30t-56 -62q-6 -7 -8.5 -9.5l-3.5 -3.5h-1.5h-0.5q-2 0 -3 2t-1 4t5.5 8t24.5 28q8 9 17 19t19 21q15 16 29 31.5t21 25.5v0zM439 492q9 0 14.5 -5t7.5 -10
q0 -2 0.5 -3.5t0.5 -3.5q0 -12 -8 -26.5t-20 -29.5q-9 -11 -19.5 -22t-20.5 -20q-21 -19 -39.5 -31.5t-25.5 -12.5h-1.5t-0.5 1q-2 0 -2.5 0.5t-0.5 2.5q0 4 10.5 11.5t23.5 19.5q6 5 11.5 11t9.5 13q3 4 5.5 8t4.5 9q7 13 10.5 26t6.5 24q4 17 10.5 27.5t22.5 10.5v0z" />
    <glyph glyph-name="igrave" unicode="&#xec;" horiz-adv-x="222" 
d="M282 274l63 4q-90 -148 -114.5 -188.5t-24.5 -56.5q0 -12 5 -16t12 -5h0.5h1.5q12 0 27 7.5t30 18.5q11 8 21 16.5t19 17.5l7.5 7.5l6.5 6.5l7.5 7.5l7.5 7.5q1 2 2.5 3.5l3.5 3.5q15 17 27 30.5t13 13.5q2 0 4 -1t2 -4q0 -2 -14.5 -19.5t-46.5 -50.5q-37 -38 -67 -57.5
t-51 -19.5q-23 0 -35.5 15t-12.5 37v5.5t1 5.5q3 32 20 63.5t38 60.5q9 14 18.5 26.5t17.5 24.5l-2 2q-9 -9 -29 -30t-56 -62q-6 -7 -8.5 -9.5l-3.5 -3.5h-1.5h-0.5q-2 0 -3 2t-1 4t5.5 8t24.5 28q8 9 17 19t19 21q15 16 29 31.5t21 25.5v0zM273 492q16 0 22.5 -10.5
t10.5 -27.5q3 -11 6.5 -24t10.5 -26q2 -5 4.5 -9t5.5 -8q5 -7 10 -13t11 -11q13 -12 23.5 -19.5t10.5 -11.5q0 -2 -0.5 -2.5t-2.5 -0.5q0 -1 -0.5 -1h-1.5q-7 0 -25.5 12.5t-39.5 31.5q-10 9 -20.5 20t-19.5 22q-12 15 -20 29.5t-8 26.5q0 2 0.5 3.5t0.5 3.5q2 5 7.5 10
t14.5 5v0z" />
    <glyph glyph-name="icircumflex" unicode="&#xee;" horiz-adv-x="222" 
d="M282 274l63 4q-90 -148 -114.5 -188.5t-24.5 -56.5q0 -12 5 -16t12 -5h0.5h1.5q12 0 27 7.5t30 18.5q11 8 21 16.5t19 17.5l7.5 7.5l6.5 6.5l7.5 7.5l7.5 7.5q1 2 2.5 3.5l3.5 3.5q15 17 27 30.5t13 13.5q2 0 4 -1t2 -4q0 -2 -14.5 -19.5t-46.5 -50.5q-37 -38 -67 -57.5
t-51 -19.5q-23 0 -35.5 15t-12.5 37v5.5t1 5.5q3 32 20 63.5t38 60.5q9 14 18.5 26.5t17.5 24.5l-2 2q-9 -9 -29 -30t-56 -62q-6 -7 -8.5 -9.5l-3.5 -3.5h-1.5h-0.5q-2 0 -3 2t-1 4t5.5 8t24.5 28q8 9 17 19t19 21q15 16 29 31.5t21 25.5v0zM381 492h14q5 -25 13.5 -48.5
t17.5 -43.5q14 -30 25 -49t11 -21q0 -1 -0.5 -1.5t-1.5 -0.5q-6 0 -16.5 11.5t-21.5 26.5l-6 8l-6 8q-11 16 -20 30.5t-11 20.5l-12.5 -12.5l-13.5 -13.5q-5 -5 -10.5 -9.5t-11.5 -9.5q-27 -24 -50.5 -42t-28.5 -18q-2 0 -3 0.5t-1 1.5q0 5 25.5 29t55.5 61q14 16 27.5 34.5
t24.5 37.5v0z" />
    <glyph glyph-name="idieresis" unicode="&#xef;" horiz-adv-x="222" 
d="M282 274l63 4q-90 -148 -114.5 -188.5t-24.5 -56.5q0 -12 5 -16t12 -5h0.5h1.5q12 0 27 7.5t30 18.5q11 8 21 16.5t19 17.5l7.5 7.5l6.5 6.5l7.5 7.5l7.5 7.5q1 2 2.5 3.5l3.5 3.5q15 17 27 30.5t13 13.5q2 0 4 -1t2 -4q0 -2 -14.5 -19.5t-46.5 -50.5q-37 -38 -67 -57.5
t-51 -19.5q-23 0 -35.5 15t-12.5 37v5.5t1 5.5q3 32 20 63.5t38 60.5q9 14 18.5 26.5t17.5 24.5l-2 2q-9 -9 -29 -30t-56 -62q-6 -7 -8.5 -9.5l-3.5 -3.5h-1.5h-0.5q-2 0 -3 2t-1 4t5.5 8t24.5 28q8 9 17 19t19 21q15 16 29 31.5t21 25.5v0zM303 442q14 0 21.5 -6.5
t7.5 -18.5q0 -20 -9 -31.5t-30 -11.5q-12 0 -18.5 6t-6.5 22q0 17 8 28.5t27 11.5v0zM447 442q14 0 21.5 -6.5t7.5 -18.5q0 -20 -9 -31.5t-30 -11.5q-12 0 -18.5 6t-6.5 22q0 17 8 28.5t27 11.5v0z" />
    <glyph glyph-name="ntilde" unicode="&#xf1;" horiz-adv-x="444" 
d="M248 6l-67 -6q7 13 30 45.5t49 70.5q1 2 2.5 4t3.5 4q29 42 52 78.5t23 48.5q0 8 -4.5 11.5t-10.5 3.5h-2h-1q-20 -1 -43 -19t-60 -58q-32 -35 -39.5 -44.5t-9.5 -10.5h-0.5h-0.5q-2 0 -3.5 1.5t-1.5 4.5q0 1 7 9.5t15 18.5h0.5t0.5 1q4 4 8 8.5t7 8.5q36 42 67 67t60 25
q20 0 28.5 -13t8.5 -36q0 -11 -4 -24t-10 -26q-5 -11 -11.5 -21.5t-12.5 -19.5q-7 -10 -13.5 -19t-11.5 -16l2 -2q12 12 33.5 35t46.5 49l14.5 14.5l14.5 14.5q28 27 53.5 45.5t43.5 18.5q16 0 24.5 -11.5t10.5 -25.5q1 -2 1 -4.5v-5.5q0 -22 -9.5 -41.5t-20.5 -35.5
q-2 -2 -3.5 -4.5t-3.5 -4.5q-34 -46 -51 -73.5t-17 -39.5q0 -7 4.5 -13.5t11.5 -6.5q16 0 42 19.5t54 48.5q3 3 5.5 6t5.5 6q32 34 40 44.5t11 12.5h0.5h1.5q2 0 2.5 -1t1.5 -2v-1.5v-0.5q0 -2 -9.5 -13.5t-20.5 -24.5q-1 0 -1.5 -1t-1.5 -2q-9 -10 -17.5 -19t-12.5 -13
q-33 -33 -59.5 -52t-43.5 -19q-22 0 -33 18.5t-11 45.5v6t1 6q3 27 19 53.5t35 49.5q20 25 37 45t17 30q0 5 -3.5 8.5t-10.5 3.5q-17 0 -52 -30t-74 -71q-8 -8 -16 -16.5t-15 -17.5q-36 -39 -64.5 -74.5t-38.5 -50.5v0zM416 449q17 0 35 -5.5t37 -12.5q20 -7 38 -12.5
t33 -5.5q18 0 27.5 7t14.5 16q3 4 5 9t4 8q2 2 3 3.5t3 1.5t3 -2t1 -5t-3 -13.5t-10 -22.5q-8 -15 -24 -26.5t-41 -11.5q-11 0 -22.5 2.5t-23.5 6.5q-6 1 -11.5 3.5t-11.5 4.5q-17 7 -33.5 12t-32.5 5q-15 0 -24 -6.5t-15 -14.5q-5 -7 -8 -12.5t-6 -8.5q-1 0 -1.5 -0.5
t-1.5 -0.5q-2 0 -3 2t-1 5t4 13.5t11 23.5q9 14 22.5 25.5t31.5 11.5v0z" />
    <glyph glyph-name="oacute" unicode="&#xf3;" horiz-adv-x="333" 
d="M444 209q0 -11 -2.5 -22.5t-7.5 -23.5q-8 -23 -21 -43.5t-28 -35.5q2 -1 4.5 -1.5t6.5 -0.5q26 0 50 13.5t43 35.5q9 10 12 13t5 4h0.5h0.5q3 0 4 -1.5t1 -3.5q0 -1 -4 -6.5t-22 -23.5q-19 -19 -44.5 -31t-54.5 -12h-8t-5 1l-1.5 -1.5l-1.5 -1.5q-23 -25 -53.5 -46.5
t-71.5 -21.5q-30 0 -46 24.5t-16 64.5q0 14 1 22.5t2 14.5q0 6 1 9.5t1 5.5q0 3 -0.5 4.5t-2.5 1.5q-3 0 -6 -2.5t-5 -5.5t-4 -5.5t-3 -2.5q-2 0 -4 1.5t-2 3.5q0 3 11 15t25 26q1 1 2 2.5t3 2.5l8.5 8.5l8.5 8.5q7 7 14 12.5t14 11.5q37 28 72.5 41.5t63.5 13.5
q29 0 44.5 -19.5t15.5 -49.5v0zM422 221q0 18 -8 31.5t-27 13.5q-10 0 -21 -3.5t-22 -10.5q-30 -18 -57.5 -53.5t-44.5 -74.5q-8 -20 -13 -39t-5 -36q0 -21 8 -29t18 -8q8 0 16 1.5t15 4.5q42 14 79 57.5t53 92.5q4 14 6.5 27t2.5 26v0zM478 492q9 0 14.5 -5t8.5 -10
q0 -2 0.5 -3.5t0.5 -3.5q0 -12 -8 -26.5t-20 -29.5q-9 -11 -19.5 -22t-21.5 -20q-21 -19 -39.5 -31.5t-25.5 -12.5h-1.5t-0.5 1q-2 0 -2.5 0.5t-0.5 2.5q0 4 10.5 11.5t23.5 19.5q6 5 11.5 11t9.5 13q3 4 5.5 8t4.5 9q7 13 10.5 26t6.5 24q4 17 10.5 27.5t22.5 10.5v0z" />
    <glyph glyph-name="ograve" unicode="&#xf2;" horiz-adv-x="333" 
d="M444 209q0 -11 -2.5 -22.5t-7.5 -23.5q-8 -23 -21 -43.5t-28 -35.5q2 -1 4.5 -1.5t6.5 -0.5q26 0 50 13.5t43 35.5q9 10 12 13t5 4h0.5h0.5q3 0 4 -1.5t1 -3.5q0 -1 -4 -6.5t-22 -23.5q-19 -19 -44.5 -31t-54.5 -12h-8t-5 1l-1.5 -1.5l-1.5 -1.5q-23 -25 -53.5 -46.5
t-71.5 -21.5q-30 0 -46 24.5t-16 64.5q0 14 1 22.5t2 14.5q0 6 1 9.5t1 5.5q0 3 -0.5 4.5t-2.5 1.5q-3 0 -6 -2.5t-5 -5.5t-4 -5.5t-3 -2.5q-2 0 -4 1.5t-2 3.5q0 3 11 15t25 26q1 1 2 2.5t3 2.5l8.5 8.5l8.5 8.5q7 7 14 12.5t14 11.5q37 28 72.5 41.5t63.5 13.5
q29 0 44.5 -19.5t15.5 -49.5v0zM422 221q0 18 -8 31.5t-27 13.5q-10 0 -21 -3.5t-22 -10.5q-30 -18 -57.5 -53.5t-44.5 -74.5q-8 -20 -13 -39t-5 -36q0 -21 8 -29t18 -8q8 0 16 1.5t15 4.5q42 14 79 57.5t53 92.5q4 14 6.5 27t2.5 26v0zM312 492q16 0 22.5 -10.5t10.5 -27.5
q3 -11 6.5 -24t10.5 -26q2 -5 4.5 -9t5.5 -8q5 -7 10 -13t11 -11q13 -12 23.5 -19.5t10.5 -11.5q0 -2 -0.5 -2.5t-2.5 -0.5q0 -1 -0.5 -1h-1.5q-7 0 -25.5 12.5t-39.5 31.5q-10 9 -20.5 20t-19.5 22q-12 15 -20 29.5t-8 26.5q0 2 0.5 3.5t0.5 3.5q2 5 7.5 10t14.5 5v0z" />
    <glyph glyph-name="ocircumflex" unicode="&#xf4;" horiz-adv-x="333" 
d="M444 209q0 -11 -2.5 -22.5t-7.5 -23.5q-8 -23 -21 -43.5t-28 -35.5q2 -1 4.5 -1.5t6.5 -0.5q26 0 50 13.5t43 35.5q9 10 12 13t5 4h0.5h0.5q3 0 4 -1.5t1 -3.5q0 -1 -4 -6.5t-22 -23.5q-19 -19 -44.5 -31t-54.5 -12h-8t-5 1l-1.5 -1.5l-1.5 -1.5q-23 -25 -53.5 -46.5
t-71.5 -21.5q-30 0 -46 24.5t-16 64.5q0 14 1 22.5t2 14.5q0 6 1 9.5t1 5.5q0 3 -0.5 4.5t-2.5 1.5q-3 0 -6 -2.5t-5 -5.5t-4 -5.5t-3 -2.5q-2 0 -4 1.5t-2 3.5q0 3 11 15t25 26q1 1 2 2.5t3 2.5l8.5 8.5l8.5 8.5q7 7 14 12.5t14 11.5q37 28 72.5 41.5t63.5 13.5
q29 0 44.5 -19.5t15.5 -49.5v0zM422 221q0 18 -8 31.5t-27 13.5q-10 0 -21 -3.5t-22 -10.5q-30 -18 -57.5 -53.5t-44.5 -74.5q-8 -20 -13 -39t-5 -36q0 -21 8 -29t18 -8q8 0 16 1.5t15 4.5q42 14 79 57.5t53 92.5q4 14 6.5 27t2.5 26v0zM420 492h14q5 -25 13.5 -48.5
t18.5 -44.5q13 -29 24.5 -48t11.5 -21q0 -1 -0.5 -1.5t-2.5 -0.5q-6 0 -16.5 11.5t-21.5 26.5l-6 8l-6 8q-11 16 -20 30.5t-11 20.5l-12.5 -12.5l-13.5 -13.5q-5 -5 -10.5 -9.5t-11.5 -9.5q-27 -24 -50.5 -42t-28.5 -18q-2 0 -3 0.5t-1 1.5q0 5 25.5 29t55.5 61
q14 16 27.5 34.5t24.5 37.5v0z" />
    <glyph glyph-name="odieresis" unicode="&#xf6;" horiz-adv-x="333" 
d="M444 209q0 -11 -2.5 -22.5t-7.5 -23.5q-8 -23 -21 -43.5t-28 -35.5q2 -1 4.5 -1.5t6.5 -0.5q26 0 50 13.5t43 35.5q9 10 12 13t5 4h0.5h0.5q3 0 4 -1.5t1 -3.5q0 -1 -4 -6.5t-22 -23.5q-19 -19 -44.5 -31t-54.5 -12h-8t-5 1l-1.5 -1.5l-1.5 -1.5q-23 -25 -53.5 -46.5
t-71.5 -21.5q-30 0 -46 24.5t-16 64.5q0 14 1 22.5t2 14.5q0 6 1 9.5t1 5.5q0 3 -0.5 4.5t-2.5 1.5q-3 0 -6 -2.5t-5 -5.5t-4 -5.5t-3 -2.5q-2 0 -4 1.5t-2 3.5q0 3 11 15t25 26q1 1 2 2.5t3 2.5l8.5 8.5l8.5 8.5q7 7 14 12.5t14 11.5q37 28 72.5 41.5t63.5 13.5
q29 0 44.5 -19.5t15.5 -49.5v0zM422 221q0 18 -8 31.5t-27 13.5q-10 0 -21 -3.5t-22 -10.5q-30 -18 -57.5 -53.5t-44.5 -74.5q-8 -20 -13 -39t-5 -36q0 -21 8 -29t18 -8q8 0 16 1.5t15 4.5q42 14 79 57.5t53 92.5q4 14 6.5 27t2.5 26v0zM342 442q14 0 21.5 -6.5t7.5 -18.5
q0 -20 -9 -31.5t-30 -11.5q-12 0 -18.5 6t-6.5 22q0 17 8 28.5t27 11.5v0zM486 442q14 0 22 -6.5t8 -18.5q0 -20 -9 -31.5t-31 -11.5q-12 0 -18.5 6t-6.5 22q0 17 8 28.5t27 11.5v0z" />
    <glyph glyph-name="otilde" unicode="&#xf5;" horiz-adv-x="333" 
d="M444 209q0 -11 -2.5 -22.5t-7.5 -23.5q-8 -23 -21 -43.5t-28 -35.5q2 -1 4.5 -1.5t6.5 -0.5q26 0 50 13.5t43 35.5q9 10 12 13t5 4h0.5h0.5q3 0 4 -1.5t1 -3.5q0 -1 -4 -6.5t-22 -23.5q-19 -19 -44.5 -31t-54.5 -12h-8t-5 1l-1.5 -1.5l-1.5 -1.5q-23 -25 -53.5 -46.5
t-71.5 -21.5q-30 0 -46 24.5t-16 64.5q0 14 1 22.5t2 14.5q0 6 1 9.5t1 5.5q0 3 -0.5 4.5t-2.5 1.5q-3 0 -6 -2.5t-5 -5.5t-4 -5.5t-3 -2.5q-2 0 -4 1.5t-2 3.5q0 3 11 15t25 26q1 1 2 2.5t3 2.5l8.5 8.5l8.5 8.5q7 7 14 12.5t14 11.5q37 28 72.5 41.5t63.5 13.5
q29 0 44.5 -19.5t15.5 -49.5v0zM422 221q0 18 -8 31.5t-27 13.5q-10 0 -21 -3.5t-22 -10.5q-30 -18 -57.5 -53.5t-44.5 -74.5q-8 -20 -13 -39t-5 -36q0 -21 8 -29t18 -8q8 0 16 1.5t15 4.5q42 14 79 57.5t53 92.5q4 14 6.5 27t2.5 26v0zM344 449q17 0 35 -5.5t37 -12.5
t37 -12.5t33 -5.5q18 0 28 7t15 16q3 5 5.5 9.5t3.5 7.5q2 2 3 3.5t3 1.5t3 -2t1 -5t-3 -13.5t-10 -22.5q-9 -15 -24.5 -26.5t-41.5 -11.5q-16 0 -33.5 5t-34.5 12t-33.5 12t-32.5 5q-15 0 -24 -6.5t-15 -14.5q-5 -7 -8 -12.5t-6 -8.5q-1 0 -1.5 -0.5t-1.5 -0.5q-2 0 -3 2
t-1 5t4 13.5t11 23.5q9 14 22.5 25.5t31.5 11.5v0z" />
    <glyph glyph-name="uacute" unicode="&#xfa;" 
d="M298 274l56 4q-81 -129 -110.5 -170.5t-33.5 -65.5q0 -3 -0.5 -6t-0.5 -7q0 -8 4.5 -12t10.5 -5h0.5h1.5q21 0 56 29t74 72q16 19 32.5 39t31.5 41t29 41.5t25 39.5l65 4q-9 -15 -29.5 -44.5t-43.5 -62.5l-6 -8t-6 -9q-26 -38 -46.5 -73t-20.5 -52q0 -8 4 -12.5t13 -4.5
q11 0 35 16t59 53q42 42 51.5 54t12.5 13h0.5h0.5q2 0 3.5 -1.5t1.5 -3.5t-10.5 -14t-24.5 -27l-1.5 -1.5t-0.5 -1.5q-6 -6 -11.5 -12t-10.5 -11q-39 -39 -64.5 -57.5t-45.5 -18.5q-19 0 -28 13t-12 28q-1 6 -1.5 12t-0.5 11q0 11 2 20.5t5 17.5l-2 2q-8 -8 -19 -20t-24 -25
q-10 -11 -22 -21t-24 -19q-12 -8 -24.5 -13.5t-23.5 -5.5q-24 0 -35 16t-11 38q0 40 20.5 74t44.5 64q10 13 20 25.5t18 24.5l-2 2q-12 -9 -25.5 -22t-26.5 -27q-5 -4 -9 -8.5t-8 -8.5q-6 -7 -11.5 -13t-11.5 -12q-7 -9 -10 -12.5t-5 -4.5h-0.5h-1.5q-2 0 -3 1.5t-1 4.5
q0 2 8.5 11.5t42.5 45.5q15 16 35 35t45 40v0zM524 492q9 0 14.5 -5t7.5 -10q0 -2 0.5 -3.5t0.5 -3.5q0 -12 -8 -26.5t-20 -29.5q-9 -11 -19.5 -22t-21.5 -20q-21 -19 -39.5 -31.5t-25.5 -12.5h-1.5t-0.5 1q-2 0 -2.5 0.5t-0.5 2.5q0 4 10.5 11.5t23.5 19.5q6 5 11.5 11
t9.5 13q3 4 5.5 8t4.5 9q7 13 10.5 26t6.5 24q4 17 10.5 27.5t23.5 10.5v0z" />
    <glyph glyph-name="ugrave" unicode="&#xf9;" 
d="M298 274l56 4q-81 -129 -110.5 -170.5t-33.5 -65.5q0 -3 -0.5 -6t-0.5 -7q0 -8 4.5 -12t10.5 -5h0.5h1.5q21 0 56 29t74 72q16 19 32.5 39t31.5 41t29 41.5t25 39.5l65 4q-9 -15 -29.5 -44.5t-43.5 -62.5l-6 -8t-6 -9q-26 -38 -46.5 -73t-20.5 -52q0 -8 4 -12.5t13 -4.5
q11 0 35 16t59 53q42 42 51.5 54t12.5 13h0.5h0.5q2 0 3.5 -1.5t1.5 -3.5t-10.5 -14t-24.5 -27l-1.5 -1.5t-0.5 -1.5q-6 -6 -11.5 -12t-10.5 -11q-39 -39 -64.5 -57.5t-45.5 -18.5q-19 0 -28 13t-12 28q-1 6 -1.5 12t-0.5 11q0 11 2 20.5t5 17.5l-2 2q-8 -8 -19 -20t-24 -25
q-10 -11 -22 -21t-24 -19q-12 -8 -24.5 -13.5t-23.5 -5.5q-24 0 -35 16t-11 38q0 40 20.5 74t44.5 64q10 13 20 25.5t18 24.5l-2 2q-12 -9 -25.5 -22t-26.5 -27q-5 -4 -9 -8.5t-8 -8.5q-6 -7 -11.5 -13t-11.5 -12q-7 -9 -10 -12.5t-5 -4.5h-0.5h-1.5q-2 0 -3 1.5t-1 4.5
q0 2 8.5 11.5t42.5 45.5q15 16 35 35t45 40v0zM357 492q16 0 22.5 -10.5t10.5 -27.5q3 -11 6.5 -24t10.5 -26q2 -5 4.5 -9t5.5 -8q5 -7 10 -13t11 -11q13 -12 23.5 -19.5t10.5 -11.5q0 -2 -0.5 -2.5t-2.5 -0.5q0 -1 -0.5 -1h-1.5q-7 0 -25.5 12.5t-39.5 31.5q-10 9 -20.5 20
t-19.5 22q-12 15 -20 29.5t-8 26.5q0 2 0.5 3.5t0.5 3.5q2 5 7.5 10t14.5 5v0z" />
    <glyph glyph-name="ucircumflex" unicode="&#xfb;" 
d="M298 274l56 4q-81 -129 -110.5 -170.5t-33.5 -65.5q0 -3 -0.5 -6t-0.5 -7q0 -8 4.5 -12t10.5 -5h0.5h1.5q21 0 56 29t74 72q16 19 32.5 39t31.5 41t29 41.5t25 39.5l65 4q-9 -15 -29.5 -44.5t-43.5 -62.5l-6 -8t-6 -9q-26 -38 -46.5 -73t-20.5 -52q0 -8 4 -12.5t13 -4.5
q11 0 35 16t59 53q42 42 51.5 54t12.5 13h0.5h0.5q2 0 3.5 -1.5t1.5 -3.5t-10.5 -14t-24.5 -27l-1.5 -1.5t-0.5 -1.5q-6 -6 -11.5 -12t-10.5 -11q-39 -39 -64.5 -57.5t-45.5 -18.5q-19 0 -28 13t-12 28q-1 6 -1.5 12t-0.5 11q0 11 2 20.5t5 17.5l-2 2q-8 -8 -19 -20t-24 -25
q-10 -11 -22 -21t-24 -19q-12 -8 -24.5 -13.5t-23.5 -5.5q-24 0 -35 16t-11 38q0 40 20.5 74t44.5 64q10 13 20 25.5t18 24.5l-2 2q-12 -9 -25.5 -22t-26.5 -27q-5 -4 -9 -8.5t-8 -8.5q-6 -7 -11.5 -13t-11.5 -12q-7 -9 -10 -12.5t-5 -4.5h-0.5h-1.5q-2 0 -3 1.5t-1 4.5
q0 2 8.5 11.5t42.5 45.5q15 16 35 35t45 40v0zM465 492h14q5 -25 13.5 -48.5t18.5 -44.5q13 -29 24.5 -48t11.5 -21q0 -1 -0.5 -1.5t-1.5 -0.5q-6 0 -16.5 11.5t-22.5 26.5l-6 8t-5 8q-12 16 -21 30.5t-11 20.5l-12.5 -12.5l-13.5 -13.5q-5 -5 -10.5 -9.5t-11.5 -9.5
q-27 -24 -50.5 -42t-28.5 -18q-2 0 -3 0.5t-1 1.5q0 5 25.5 29t55.5 61q14 16 27.5 34.5t24.5 37.5v0z" />
    <glyph glyph-name="udieresis" unicode="&#xfc;" 
d="M298 274l56 4q-81 -129 -110.5 -170.5t-33.5 -65.5q0 -3 -0.5 -6t-0.5 -7q0 -8 4.5 -12t10.5 -5h0.5h1.5q21 0 56 29t74 72q16 19 32.5 39t31.5 41t29 41.5t25 39.5l65 4q-9 -15 -29.5 -44.5t-43.5 -62.5l-6 -8t-6 -9q-26 -38 -46.5 -73t-20.5 -52q0 -8 4 -12.5t13 -4.5
q11 0 35 16t59 53q42 42 51.5 54t12.5 13h0.5h0.5q2 0 3.5 -1.5t1.5 -3.5t-10.5 -14t-24.5 -27l-1.5 -1.5t-0.5 -1.5q-6 -6 -11.5 -12t-10.5 -11q-39 -39 -64.5 -57.5t-45.5 -18.5q-19 0 -28 13t-12 28q-1 6 -1.5 12t-0.5 11q0 11 2 20.5t5 17.5l-2 2q-8 -8 -19 -20t-24 -25
q-10 -11 -22 -21t-24 -19q-12 -8 -24.5 -13.5t-23.5 -5.5q-24 0 -35 16t-11 38q0 40 20.5 74t44.5 64q10 13 20 25.5t18 24.5l-2 2q-12 -9 -25.5 -22t-26.5 -27q-5 -4 -9 -8.5t-8 -8.5q-6 -7 -11.5 -13t-11.5 -12q-7 -9 -10 -12.5t-5 -4.5h-0.5h-1.5q-2 0 -3 1.5t-1 4.5
q0 2 8.5 11.5t42.5 45.5q15 16 35 35t45 40v0zM387 442q14 0 21.5 -6.5t7.5 -18.5q0 -20 -9 -31.5t-30 -11.5q-12 0 -18.5 6t-6.5 22q0 17 8 28.5t27 11.5v0zM532 442q14 0 21.5 -6.5t7.5 -18.5q0 -20 -9 -31.5t-30 -11.5q-12 0 -19 6t-7 22q0 17 8.5 28.5t27.5 11.5v0z" />
    <glyph glyph-name="dagger" unicode="&#x2020;" horiz-adv-x="501" 
d="M256 -156h-18l147 287q38 73 46 108t8 51q27 24 47 57t39 70q3 5 5.5 10.5t5.5 10.5h-47q-18 0 -32 -4.5t-26 -10.5q-3 -1 -6 -2.5t-6 -2.5q-9 -4 -18 -7t-20 -3q-2 0 -4 0.5t-4 0.5q-10 3 -18 12t-8 22q0 17 10 29t28 12h1.5h0.5q9 -1 18.5 -5.5t20.5 -9.5
q12 -6 27.5 -10.5t36.5 -4.5h54q5 10 10 19t10 17q10 19 17 40.5t7 56.5q0 26 11.5 41t32.5 15q17 0 26.5 -9.5t9.5 -32.5q0 -8 -3 -13t-9 -9q-9 -7 -23 -16.5t-28 -32.5l-4 -6t-4 -7l-33 -63h32q27 0 46.5 4t33.5 9t23.5 9t16.5 4q15 0 26.5 -10t11.5 -26v-2.5v-2.5
q-2 -12 -10.5 -21.5t-22.5 -9.5q-3 0 -6.5 0.5t-6.5 1.5q-7 2 -14 5.5t-17 7.5q-14 6 -37 10.5t-61 4.5h-22q-3 -7 -7 -14.5t-8 -15.5q-12 -24 -22 -52.5t-10 -59.5v0v0q-1 -3 -16.5 -14t-42.5 -62l-195 -376v0z" />
    <glyph glyph-name="cent" unicode="&#xa2;" 
d="M460 270l61 110h16l-62 -117q2 -1 3 -2.5t3 -2.5q6 -6 8.5 -13t2.5 -20q0 -17 -9 -29.5t-27 -12.5q-6 0 -11 2t-10 6l-99 -179q14 2 26.5 7.5t25.5 14.5q24 16 50 41.5t59 58.5q3 3 5 4.5t3 1.5q1 1 2 1h2q2 0 3.5 -1.5t1.5 -3.5q0 -3 -11 -14.5t-25 -25.5q0 -1 -1 -1.5
t-2 -1.5q-12 -12 -23 -22.5t-14 -13.5t-6 -5.5t-6 -5.5q-20 -17 -45.5 -31.5t-51.5 -14.5l-60 -110h-16l61 112q-41 3 -62 32t-21 68v5.5t1 5.5q5 46 45.5 87.5t88.5 60.5q15 6 30 9.5t29 3.5q5 0 9 -0.5t9 -0.5q4 -1 8.5 -1.5t8.5 -1.5v0zM321 13l105 195q1 2 2.5 3.5
t2.5 3.5q5 6 10 9.5t9 6.5q4 2 6 5.5t2 8.5q0 8 -8 12.5t-22 4.5q-9 0 -19 -3.5t-20 -9.5q-28 -17 -53.5 -49.5t-40.5 -69.5q-6 -16 -10 -32.5t-4 -31.5q0 -21 9 -35t31 -18v0z" />
    <glyph glyph-name="sterling" unicode="&#xa3;" 
d="M443 233h-62q-6 -13 -12 -25t-12 -22q-8 -14 -16 -27l-16 -26q-4 -7 -9 -14.5t-10 -14.5q7 -5 14.5 -11t15.5 -12q20 -16 42.5 -29t48.5 -13q18 0 31 12.5t22 27.5t14.5 27.5t8.5 12.5q4 0 5.5 -2.5t1.5 -6.5t-2.5 -10.5t-11.5 -23.5q-14 -31 -38.5 -56t-59.5 -25
q-25 0 -45 17.5t-35 39.5q-6 9 -12 17.5t-11 15.5q-6 -7 -13.5 -16t-15.5 -18q-19 -22 -41.5 -39t-46.5 -17q-21 0 -31 12.5t-10 31.5q0 32 22.5 56t50.5 33q5 1 11 2t11 1q12 0 22 -2t18 -5q2 -1 4.5 -1.5t4.5 -1.5q13 27 24.5 55t21.5 57h-58q-4 0 -5 2.5t-1 5.5t1 5.5
t5 2.5h64q11 29 24 56t29 53q-4 3 -13 10t-18 16l-4 4l-4 4q-11 10 -18.5 19t-7.5 13q0 2 1.5 3t3.5 2h1.5h0.5q2 0 7 -5t12 -14q2 -2 3 -3.5t3 -3.5l6.5 -6.5t7.5 -6.5q5 -5 11.5 -9.5t14.5 -10.5q28 39 60 70.5t80 31.5q35 0 54 -21t19 -51q0 -40 -25 -64t-55 -29
q-3 0 -6.5 -0.5t-7.5 -0.5t-9 0.5t-9 0.5q-18 2 -36 8.5t-32 16.5q-5 -9 -10 -21l-10 -24q-4 -10 -8.5 -19.5t-8.5 -18.5h54q4 0 5 -2.5t1 -5.5t-1 -5.5t-5 -2.5v0zM153 42q0 -15 9 -25.5t22 -10.5q14 0 35.5 21t55.5 82q-10 5 -20 7.5t-21 2.5h-4h-4q-27 -4 -50 -26
t-23 -51v0zM532 460q-25 0 -44.5 -20.5t-33.5 -45.5q-7 -13 -12.5 -26t-8.5 -22q9 -5 19 -8t21 -4q5 -1 10 -1h10q41 0 65.5 18t32.5 39q1 5 2 9.5t1 8.5q0 20 -16.5 36t-45.5 16v0z" />
    <glyph glyph-name="section" unicode="&#xa7;" horiz-adv-x="501" 
d="M473 -2q0 -59 -44 -106t-119 -47q-62 0 -100 37.5t-38 86.5q0 34 23 59.5t59 25.5q34 0 55.5 -16.5t21.5 -44.5q0 -15 -9.5 -25t-24.5 -10q-14 0 -22 8.5t-8 22.5q0 6 1.5 9.5t3.5 6.5v0.5v1.5q2 2 3 5t1 7q0 1 -1 3t-3 4q-3 3 -9 5.5t-15 2.5q-25 0 -42.5 -16.5
t-17.5 -45.5q0 -53 33 -82t85 -29q57 0 95 37t38 99q0 20 -7.5 39.5t-19.5 39.5q-9 14 -18.5 27.5t-19.5 27.5q-24 34 -44.5 70.5t-20.5 78.5q0 65 50.5 103t111.5 39h1.5h1.5q-4 13 -7 27t-4 29q-1 3 -1 6.5v7.5q0 68 42.5 116.5t111.5 48.5q48 0 86 -31t38 -81
q0 -31 -18 -56t-52 -25q-28 0 -46 14t-18 34q0 14 8 23.5t24 9.5q17 0 24.5 -8t7.5 -22q0 -3 -1 -6t-1 -6q-1 -3 -2 -5t-1 -4v0v-1q-1 -4 2.5 -6t7.5 -3h1h2q21 0 32 15.5t13 34.5q1 3 1 5.5v5.5q0 45 -31.5 70.5t-77.5 25.5q-52 0 -85.5 -34t-33.5 -84q0 -44 18.5 -78
t41.5 -66l2 -2t2 -3q23 -33 43 -68.5t20 -83.5q0 -69 -51.5 -102.5t-114.5 -33.5q6 -22 11 -43.5t5 -43.5v-1zM353 296q0 -16 4.5 -31t11.5 -29q11 -20 25.5 -41t30.5 -47q6 -10 12.5 -21.5t12.5 -24.5q53 0 91 24.5t38 76.5q0 37 -18 71.5t-39 65.5q-12 18 -23 34t-19 32
h-1.5h-1.5q-46 -5 -85 -31t-39 -79v0z" />
    <glyph glyph-name="paragraph" unicode="&#xb6;" horiz-adv-x="601" 
d="M948 643l-10 -22q-3 0 -6.5 -0.5t-6.5 -0.5q-46 -4 -63 -10.5t-27 -27.5q-1 -2 -2 -3.5t-2 -3.5l-107 -222l-247 -511h-40l126 259l246 512h-79l-125 -260l-247 -511h-40l189 389q-68 0 -102 31t-34 83q0 125 104 211.5t233 86.5h240v0z" />
    <glyph glyph-name="germandbls" unicode="&#xdf;" 
d="M58 -274l-66 -3l23 40l289 511l-2 2q-7 -5 -14 -12l-14 -14q-6 -6 -11.5 -12t-11.5 -12q-14 -16 -25.5 -30t-20.5 -24q-23 -26 -28 -32t-7 -6t-3.5 2t-1.5 4t12 16t27 30q6 8 13 16t12 14q32 36 48.5 50t26.5 23q3 4 6 7.5t6 8.5q82 152 153 239t129 87q22 0 34.5 -13
t12.5 -34q0 -32 -19.5 -73t-71.5 -102q-30 -35 -55 -51.5t-38 -29.5q-5 -5 -7.5 -10.5t-2.5 -11.5q0 -10 2.5 -18.5t5.5 -16.5l3.5 -7l3.5 -7q5 -12 9.5 -25.5t7.5 -26.5q5 -19 7.5 -37.5t2.5 -32.5q0 -19 -3.5 -36.5t-9.5 -31.5l2 -2q5 4 12 11l15 15q1 0 2 1t1 2
l13.5 13.5t10.5 11.5q14 16 18 21.5t6 7.5h1.5h1.5q2 0 3.5 -1.5t1.5 -4.5q0 -1 -3 -4.5t-6 -6.5q0 -1 -0.5 -1t-0.5 -1q-1 -1 -2.5 -3t-2.5 -3q-61 -72 -104.5 -100t-77.5 -28q-31 0 -48 13t-17 42q0 11 7.5 20t19.5 9h1.5h0.5q7 -1 12 -7t5 -18q0 -6 -1.5 -10.5t-3.5 -8.5
q-3 -3 -4.5 -6t-1.5 -5q0 -6 4 -9t10 -4q1 -1 2.5 -1h2.5q6 0 19 9t28 26q19 21 34.5 53.5t15.5 72.5q0 5 -0.5 10.5t-0.5 11.5q-2 14 -5 28.5t-6 25.5q-7 24 -11 36.5t-5 23.5v2.5v2.5q0 10 7.5 18.5t16.5 15.5q4 3 7.5 5.5t6.5 4.5q11 8 23.5 18.5t24.5 22.5q16 17 32 37
t30 40q20 30 33 58t13 47q0 17 -8 26.5t-25 9.5q-38 0 -87.5 -64.5t-110.5 -181.5l-69 -132l-265 -511v0z" />
    <glyph glyph-name="registered" unicode="&#xae;" horiz-adv-x="801" 
d="M307 345q0 146 101 250t244 104t243.5 -103.5t100.5 -250.5q0 -144 -100.5 -247t-243.5 -103t-244 103t-101 247v0zM652 24q125 0 216.5 97t91.5 224q0 131 -91.5 227.5t-216.5 96.5t-217 -97t-92 -227q0 -127 92.5 -224t216.5 -97v0zM488 526v13h174h1.5h1.5
q44 -1 81 -23t37 -69q0 -42 -24.5 -70t-59.5 -39l59 -81q5 -6 10 -12.5t10 -13.5q18 -21 35 -38t29 -23v-8h-49q-22 0 -50 43t-89 125h-64v-100v-2.5v-2.5q0 -29 4 -36t30 -9q3 -1 8 -1.5t10 -0.5v-16h-154v16q5 0 10 0.5t8 1.5q26 2 30 9t4 36v2.5v2.5v241v2.5v2.5
q0 30 -4 37.5t-28 10.5q-5 0 -9.5 0.5t-10.5 1.5v0zM590 523v-177h58q38 0 60.5 25t22.5 71q0 43 -26.5 61.5t-57.5 19.5h-1.5h-1.5h-54v0z" />
    <glyph glyph-name="copyright" unicode="&#xa9;" horiz-adv-x="801" 
d="M307 345q0 146 101 250t244 104t243.5 -103.5t100.5 -250.5q0 -144 -100.5 -247t-243.5 -103t-244 103t-101 247v0zM652 24q125 0 216.5 97t91.5 224q0 131 -91.5 227.5t-216.5 96.5t-217 -97t-92 -227q0 -127 92.5 -224t216.5 -97v0zM809 257h14l-16 -69q0 -7 -4.5 -11
t-13.5 -6q-2 -1 -4 -1.5t-4 -1.5l-10 -2.5t-12 -3.5q-16 -4 -38 -7t-48 -3q-84 0 -150 45.5t-66 156.5q0 13 2.5 26.5t6.5 27.5q18 54 71.5 99.5t141.5 45.5q34 0 55 -5t39 -11q1 0 3 -1t4 -1q1 -1 2.5 -1.5t2.5 -0.5q12 -4 17.5 -9.5t5.5 -11.5v-72h-16q-1 38 -26.5 67.5
t-91.5 29.5q-80 0 -119.5 -51t-40.5 -128q-1 -85 40.5 -137.5t128.5 -52.5q56 0 84.5 26.5t41.5 62.5v0z" />
    <glyph glyph-name="trademark" unicode="&#x2122;" horiz-adv-x="991" 
d="M982 296l-150 307h-2v-225q0 -30 10 -44t41 -18v-16h-122v16q32 4 40.5 18t8.5 44v252q-6 21 -24.5 34t-39.5 13v16h94l164 -329l163 329h83v-16q-31 -1 -44 -16t-13 -41v-247v-2.5v-3.5q0 -29 3.5 -37t25.5 -11q4 -1 9 -1.5t11 -1.5v-16h-141v16q6 1 11 1.5t9 1.5
q21 3 24.5 10.5t3.5 35.5v4v4v233h-2l-154 -310h-9v0zM555 677v-304v-2.5v-3.5q0 -29 3.5 -37t25.5 -11q4 -1 9 -1.5t11 -1.5v-16h-143v16q6 1 11 1.5t9 1.5q23 3 26.5 11t3.5 38v2.5v2.5v304h-63q-30 0 -44.5 -21t-22.5 -49h-12v86h327v-86h-12q-7 28 -21.5 49t-45.5 21
h-62v0z" />
    <glyph glyph-name="acute" unicode="&#xb4;" horiz-adv-x="222" 
d="M422 492q9 0 14.5 -5t7.5 -10q0 -2 0.5 -3.5t0.5 -3.5q0 -12 -8 -26.5t-20 -29.5q-9 -11 -19.5 -22t-20.5 -20q-21 -19 -39.5 -31.5t-25.5 -12.5h-1.5t-0.5 1q-2 0 -2.5 0.5t-0.5 2.5q0 4 10.5 11.5t23.5 19.5q6 5 11.5 11t9.5 13q3 4 5.5 8t4.5 9q7 13 10.5 26t6.5 24
q4 17 10.5 27.5t22.5 10.5v0z" />
    <glyph glyph-name="dieresis" unicode="&#xa8;" horiz-adv-x="222" 
d="M286 442q14 0 21.5 -6.5t7.5 -18.5q0 -20 -9 -31.5t-30 -11.5q-12 0 -18.5 6t-6.5 22q0 17 8 28.5t27 11.5v0zM430 442q14 0 21.5 -6.5t7.5 -18.5q0 -20 -9 -31.5t-30 -11.5q-12 0 -18.5 6t-6.5 22q0 17 8 28.5t27 11.5v0z" />
    <glyph glyph-name="AE" unicode="&#xc6;" horiz-adv-x="1057" 
d="M726 0h-76q3 7 6.5 14t6.5 14t6.5 14t6.5 14q-22 5 -48 12t-53 17q-23 9 -45.5 19.5t-42.5 23.5q-61 -56 -128.5 -94.5t-151.5 -38.5q-82 0 -148.5 50t-66.5 138q4 112 66 174t142 63q59 1 103 -33.5t44 -105.5q0 -48 -22.5 -79.5t-49.5 -50.5q-26 -18 -47.5 -25.5
t-24.5 -7.5q-4 0 -6 1.5t-2 3.5q0 3 2 5t6 3q9 3 27 9.5t46 27.5q25 19 40 46.5t15 64.5q0 51 -37.5 80t-84.5 27q-14 -1 -29.5 -4.5t-30.5 -9.5q-50 -20 -91 -67.5t-41 -121.5q0 -80 58 -126.5t134 -46.5q77 0 145 37t121 91q-37 29 -61.5 67.5t-26.5 90.5q0 71 37 124.5
t121 54.5q53 1 93 -30t64 -71q79 86 152 151.5t146 108.5q62 37 125.5 56t130.5 19q35 0 50.5 -11.5t15.5 -30.5q0 -16 -7.5 -32.5t-20.5 -33.5q-31 -40 -87 -77t-117 -60l-30 -10t-30 -8q3 -4 5.5 -7.5t5.5 -6.5q7 -9 16 -13.5t24 -4.5q5 0 10.5 0.5t10.5 1.5t10.5 1.5
t10.5 0.5h5t6 -1q7 -1 13.5 -5.5t6.5 -12.5t-6 -12t-12 -5h-1.5h-1.5q-8 0 -16 2.5t-15 5.5q-8 3 -16 5.5t-16 2.5q-19 0 -54 -12.5t-73 -36.5q-55 -33 -100 -85.5t-45 -119.5q0 -56 38.5 -93.5t93.5 -40.5q0 3 -0.5 6.5t-0.5 6.5q-1 1 -1 1.5v1.5q-1 6 -1.5 12t-0.5 11
q0 17 2 34.5t5 35.5q15 74 62 135.5t129 61.5q38 0 56 -27t18 -60q0 -72 -59.5 -135.5t-130.5 -87.5q-15 -5 -30 -7.5t-30 -3.5q8 -49 15 -66.5t7 -21.5q0 -3 -0.5 -5.5t-4.5 -2.5q-6 0 -11.5 14t-10.5 36q-3 10 -5.5 22t-5.5 24q-5 0 -10.5 0.5t-10.5 0.5q-46 5 -87 30.5
t-55 71.5q-11 -17 -19.5 -35.5t-15.5 -37.5q-2 -6 -4 -12.5t-4 -12.5v0zM946 25v-15q6 0 12.5 1t13.5 2q79 15 144.5 76.5t65.5 145.5q0 32 -15.5 48.5t-45.5 16.5q-13 0 -27 -5.5t-28 -15.5q-45 -31 -82.5 -100.5t-37.5 -153.5v0zM716 231q0 29 -4.5 58t-15.5 57
q-15 -16 -29.5 -31.5t-29.5 -31.5q-3 -3 -6 -6.5t-6 -6.5q-31 -34 -63 -67t-65 -65q16 -12 37 -22t43 -18q32 -12 61 -18.5t44 -7.5q15 27 22.5 57t9.5 61q1 10 1.5 20.5t0.5 20.5v0zM417 279q0 -6 0.5 -12t1.5 -12q6 -31 23.5 -60t42.5 -47q53 51 104.5 104t100.5 108
q-19 37 -52 61.5t-76 24.5q-71 0 -108 -51t-37 -116v0zM724 158l2 -2q110 216 216.5 349.5t203.5 175.5l-2 2q-28 -9 -54.5 -19.5t-53.5 -24.5q-70 -37 -146.5 -101.5t-181.5 -177.5q11 -31 17.5 -64t6.5 -67q0 -18 -2.5 -36t-5.5 -35v0zM888 340l2 -2q39 23 80 42.5
t86 27.5v2q-31 6 -50 28t-28 50q-6 -10 -13 -20l-14 -20q0 -1 -0.5 -2t-1.5 -2q-17 -25 -33 -50.5t-28 -53.5v0zM1018 486q0 -2 0.5 -4t0.5 -5q1 -3 1.5 -6t1.5 -5q12 2 23.5 5t23.5 7q54 17 105.5 46.5t85.5 61.5q23 21 36.5 41.5t13.5 37.5q0 15 -12 23.5t-35 8.5
q-14 0 -28 -2.5t-28 -7.5q-47 -16 -91.5 -51.5t-70.5 -75.5q-13 -20 -20 -38.5t-7 -35.5v0z" />
    <glyph glyph-name="Oslash" unicode="&#xd8;" horiz-adv-x="779" 
d="M910 697l-49 -88q51 -4 82 -44t31 -108q0 -34 -8.5 -71.5t-24.5 -74.5q-51 -121 -161.5 -221.5t-235.5 -100.5q-6 0 -11.5 0.5t-10.5 1.5l-67 -119h-16l68 120q-59 15 -86.5 64.5t-30.5 106.5q-1 4 -1 8.5v8.5q0 19 2.5 38t6.5 38q26 107 108.5 207t179.5 164
q-19 7 -40 10.5t-44 3.5q-117 0 -193.5 -86.5t-85.5 -189.5v-1.5v-1.5q-1 -10 -2.5 -13t-3.5 -3t-3.5 1.5t-2.5 3.5v1.5v0.5q0 3 5.5 43t32.5 92q35 66 102 115.5t152 49.5q26 0 50 -4.5t45 -12.5q7 5 14 9l14 8q47 26 92 41t84 15l58 106h16l-60 -107q52 -3 81 -33.5
t29 -84.5q0 -3 -0.5 -10t-1.5 -15q-2 -10 -4.5 -18t-6.5 -8q-2 0 -2.5 2t-0.5 5q0 2 0.5 7.5t1.5 12.5v2.5t1 2.5q0 6 0.5 11.5t0.5 9.5q0 50 -28.5 76.5t-75.5 28.5v0zM630 186l-101 -183q5 -1 10.5 -2t12.5 -1q23 0 46.5 5t47.5 15q97 38 183 134.5t118 204.5
q7 24 11 48.5t4 47.5q0 71 -29.5 106.5t-82.5 35.5q-16 0 -32 -4.5t-33 -12.5q30 -29 48 -67t23 -78q1 -8 1.5 -16t0.5 -16q0 -14 -2 -28t-6 -29q-17 -63 -65 -115.5t-115 -52.5q-10 0 -20.5 2t-19.5 6v0zM515 7l102 185q-20 12 -31.5 32t-11.5 47q0 96 51 173.5t112 120.5
q8 5 15 9.5t14 8.5q-12 11 -27 20.5t-32 14.5q-99 -73 -176.5 -200t-83.5 -264v-8.5v-9.5q0 -46 16 -81t52 -48v0zM812 516l-175 -318q5 -2 11 -3t13 -1q58 0 96.5 49t56.5 107q7 23 10.5 45.5t3.5 42.5q0 22 -4 41.5t-12 36.5v0zM623 203l181 329q-5 12 -13 22.5t-17 20.5
q-1 -1 -2.5 -1.5t-3.5 -1.5q-66 -36 -121.5 -115t-60.5 -167v-6.5v-6.5q0 -26 9 -45.5t28 -28.5v0zM846 608l49 89q-34 -1 -70 -13.5t-72 -33.5l-18 -12l-18 -12q17 -7 32 -16.5t28 -21.5q19 10 36.5 15t32.5 5v0z" />
    <glyph glyph-name="plusminus" unicode="&#xb1;" horiz-adv-x="400" 
d="M229 0v30h279v-30h-279v0zM353 178v100h30v-100h125v-30h-125v-100h-30v100h-124v30h124v0z" />
    <glyph glyph-name="yen" unicode="&#xa5;" 
d="M332 248h102q17 36 21.5 64.5t4.5 53.5q0 36 -13.5 65t-53.5 29q-52 0 -96 -34t-57 -75q-3 -7 -4 -14t-1 -14q0 -20 11.5 -32.5t32.5 -12.5q23 0 45.5 20t38.5 45q7 11 13 22t9 20q8 21 11.5 28t5.5 7h0.5h1.5q1 -1 2 -2.5t1 -4.5q0 -12 -3 -25.5t-8 -27.5
q-15 -37 -45 -67.5t-70 -30.5q-23 0 -40.5 14t-17.5 44q0 5 0.5 10t1.5 10q10 49 59.5 90.5t111.5 41.5q51 0 74.5 -35.5t23.5 -86.5q0 -12 -1.5 -27t-5.5 -32l2 -2l17 25.5t19 26.5q23 30 49.5 58t54.5 47q17 12 34.5 19t33.5 7q4 0 6.5 -1t2.5 -4t-2.5 -4t-6.5 -2
q-5 -1 -12 -2t-16 -4q-21 -7 -52.5 -35t-65.5 -71q-17 -22 -33.5 -47.5t-32.5 -53.5h92q4 0 5 -2.5t1 -5.5t-1 -5.5t-5 -2.5h-101q-1 -3 -3 -6.5t-3 -6.5q-1 -1 -2 -2.5t-1 -3.5q-3 -5 -5 -9.5t-4 -9.5h103q4 0 5 -2.5t1 -5.5t-1 -5.5t-5 -2.5h-109l-71 -172q-13 0 -28.5 -2
t-31.5 -4l83 178h-88q-4 0 -5 2.5t-1 5.5t1 5.5t5 2.5h95l17 38h-96q-4 0 -5 2.5t-1 5.5t1 5.5t5 2.5v0z" />
    <glyph glyph-name="mu" unicode="&#xb5;" 
d="M298 274l56 4q-81 -129 -110.5 -170.5t-33.5 -65.5q0 -3 -0.5 -6t-0.5 -7q0 -8 4.5 -12t10.5 -5h0.5h1.5q21 0 56 29t74 72q16 19 32.5 39t31.5 41t29 41.5t25 39.5l65 4q-9 -15 -29.5 -44.5t-43.5 -62.5l-6 -8t-6 -9q-26 -38 -46.5 -73t-20.5 -52q0 -8 4 -12.5t13 -4.5
q11 0 35 16t59 53q42 42 51.5 54t12.5 13h0.5h0.5q2 0 3.5 -1.5t1.5 -3.5t-10.5 -14t-24.5 -27l-1.5 -1.5t-0.5 -1.5q-6 -6 -11.5 -12t-10.5 -11q-39 -39 -64.5 -57.5t-45.5 -18.5q-19 0 -28 13t-12 28q-1 6 -1.5 12t-0.5 11q0 11 2 20.5t5 17.5l-2 2q-8 -8 -19 -20t-24 -25
q-10 -11 -22 -21t-24 -19q-12 -8 -24.5 -13.5t-23.5 -5.5t-21 4.5t-15 11.5l-161 -272l-65 -6l319 504l-2 2q-12 -9 -25.5 -22t-26.5 -27q-5 -4 -9 -8.5t-8 -8.5q-6 -7 -11.5 -13t-11.5 -12q-7 -9 -10 -12.5t-5 -4.5h-0.5h-1.5q-2 0 -3 1.5t-1 4.5q0 2 8.5 11.5t42.5 45.5
q15 16 35 35t45 40v0z" />
    <glyph glyph-name="ordfeminine" unicode="&#xaa;" horiz-adv-x="233" 
d="M479 468l32 1q-6 -7 -18.5 -23.5t-26.5 -36.5q-2 -4 -4.5 -7.5t-4.5 -6.5q-16 -24 -28 -45t-12 -29q0 -4 3.5 -6.5t7.5 -2.5q13 0 35.5 18t47.5 43q2 3 4.5 5.5l5.5 5.5q5 7 6.5 8.5t2.5 1.5q2 0 3 -1t1 -3q0 -1 -7 -9t-16 -17l-2 -2l-2 -2q-4 -4 -8 -7.5t-7 -6.5
q-24 -22 -37.5 -31.5t-25.5 -10.5h-0.5h-1.5q-9 0 -13 2t-8 5q0 1 -0.5 1.5l-0.5 0.5q-4 5 -6 13.5t-2 19.5v11q-4 -4 -9.5 -10t-12.5 -11q-6 -5 -12.5 -10.5t-13.5 -9.5q-8 -5 -16.5 -8.5t-15.5 -3.5q-23 0 -31.5 16t-9.5 35v2.5v2.5q0 5 0.5 9.5t0.5 7.5t0.5 5.5t1.5 5.5
l-0.5 -0.5t-1.5 -0.5l-0.5 -0.5t-1.5 -0.5l-0.5 0.5l-1.5 1.5v0.5v0.5q0 2 2.5 4.5t8.5 9.5q16 18 36.5 32.5t41.5 23.5q14 6 28 9.5t26 3.5q15 0 21.5 -9.5t6.5 -21.5q0 -3 -0.5 -6.5t-1.5 -8.5l3 -1q9 15 13.5 24t8.5 13q2 3 5 4.5t7 1.5v0zM302 331q0 -8 3.5 -13.5
t11.5 -5.5q10 0 23 7t27 19q12 11 24.5 24t21.5 27q10 14 16.5 28t6.5 25q0 9 -5 15.5t-15 6.5q-5 0 -9.5 -1t-9.5 -2q-22 -8 -42.5 -29.5t-34.5 -46.5q-8 -14 -13 -28.5t-5 -25.5v0z" />
    <glyph glyph-name="ordmasculine" unicode="&#xba;" horiz-adv-x="200" 
d="M447 430q0 -7 -2 -14.5t-5 -15.5q-5 -12 -13.5 -24.5t-17.5 -20.5h1h1q1 -1 2.5 -1h2.5q4 0 8 0.5t8 1.5q13 4 26.5 13t23.5 21l2.5 2.5l1.5 1.5h1.5h0.5q2 0 2.5 -0.5t0.5 -2.5q0 -1 -4 -5.5t-12 -12.5l-1.5 -1.5l-1.5 -1.5q-11 -9 -26.5 -16.5t-33.5 -7.5
q-3 0 -5.5 0.5t-4.5 1.5l-2.5 -2.5l-2.5 -2.5q-15 -15 -34 -27t-44 -12q-19 0 -30 15t-11 39q0 8 0.5 13.5t1.5 9.5q1 3 1.5 5.5t0.5 3.5q0 2 -0.5 2.5t-1.5 0.5t-2 -0.5t-2 -1.5l-1.5 -1.5t-1.5 -0.5q-1 -2 -2.5 -3.5t-2.5 -1.5q-2 0 -3 1t-1 2q0 2 9.5 11.5t21.5 19.5
l3.5 3.5t3.5 2.5l12 10t12 9q22 15 43.5 22t38.5 7q19 0 29 -12t10 -30v0zM433 438q0 11 -5 18.5t-18 7.5q-7 0 -14.5 -2.5t-14.5 -6.5q-20 -11 -37.5 -32.5t-28.5 -44.5q-5 -12 -8 -23t-3 -21q0 -12 5 -17t12 -5q5 0 9.5 0.5t9.5 2.5q27 8 52 34.5t35 57.5q3 8 4.5 15.5
t1.5 15.5v0z" />
    <glyph glyph-name="ae" unicode="&#xe6;" horiz-adv-x="501" 
d="M466 270l48 4q-4 -7 -12 -18.5t-18 -23.5l2 -2q24 20 52.5 34t58.5 14q23 0 36.5 -13.5t13.5 -34.5q0 -39 -44.5 -67t-98.5 -45q-23 -7 -46 -12t-42 -8q-3 -4 -6.5 -13t-5.5 -19q-2 -7 -3 -13.5t-1 -11.5q0 -14 9.5 -21.5t31.5 -7.5q24 0 60.5 11.5t75.5 36.5
q14 9 27.5 20t26.5 24q26 25 32.5 34t8.5 11h1h1q2 0 3.5 -1t1.5 -3q0 -4 -13 -19.5t-33 -33.5q-40 -37 -90.5 -64.5t-107.5 -27.5q-40 0 -57.5 14t-17.5 36q0 3 0.5 6t0.5 7q1 3 1 5.5t1 5.5q1 5 2 8.5l1 3.5l-2 2q-2 -2 -5 -5.5t-6 -6.5l-0.5 -0.5l-0.5 -0.5l-3 -3l-2 -2
l-9 -9t-11 -10q-12 -11 -26.5 -22t-28.5 -18q-10 -5 -19.5 -8t-18.5 -3q-37 0 -50 27.5t-13 60.5v1.5v1.5q0 10 0.5 17t1.5 14q1 4 1.5 8t1.5 8h-0.5t-1.5 -1v0h-1q0 -1 -1 -1.5t-2 -0.5t-2 1l-2 2v1.5v0.5q0 3 4 7.5t14 16.5q24 29 55.5 53t63.5 40q22 10 43 15.5t40 5.5
q24 0 35.5 -12t15.5 -26h2q2 6 4 10.5t4 7.5q4 7 8 9.5t11 2.5v0zM211 44q0 -14 5.5 -23t17.5 -9q16 0 37.5 12.5t44.5 32.5q20 17 39.5 39t34.5 44q16 23 25.5 45t9.5 40v1.5v1.5q-1 14 -10.5 26t-28.5 12q-7 0 -14.5 -1.5t-15.5 -4.5q-33 -14 -64 -49t-52 -75
q-14 -25 -21.5 -49.5t-7.5 -42.5v0zM617 247q0 10 -5 14.5t-15 4.5q-19 0 -40.5 -11.5t-44.5 -30.5q-24 -22 -48 -51.5t-44 -62.5q8 1 17 2t17 3q61 13 112 49t51 83v0z" />
    <glyph glyph-name="oslash" unicode="&#xf8;" horiz-adv-x="333" 
d="M438 362h14l-49 -89q20 -6 30.5 -23t10.5 -41q0 -11 -2.5 -22.5t-7.5 -23.5q-8 -23 -21 -43.5t-28 -35.5q2 -1 4.5 -1.5t6.5 -0.5q26 0 50 13.5t43 35.5q9 10 12 13t5 4h0.5h0.5q3 0 4 -1.5t1 -3.5q0 -1 -4 -6.5t-22 -23.5q-19 -19 -44.5 -31t-54.5 -12h-8t-5 1
l-1.5 -1.5l-1.5 -1.5q-21 -24 -50 -44.5t-68 -22.5l-62 -113h-14l62 113q-26 2 -40.5 26t-14.5 62q0 14 1 22.5t2 14.5q0 6 1 9.5t1 5.5q0 3 -0.5 4.5t-2.5 1.5q-3 0 -6 -2.5t-5 -5.5t-4 -5.5t-3 -2.5q-2 0 -4 1.5t-2 3.5q0 3 11 15t25 26q1 1 2 2.5t3 2.5l8.5 8.5l8.5 8.5
q7 7 14 12.5t14 11.5q37 28 72.5 41.5t63.5 13.5h4t3 -1l47 85v0zM246 13l139 253q-10 0 -20 -3.5t-21 -10.5q-30 -18 -57.5 -53.5t-44.5 -73.5q-8 -20 -13 -39.5t-5 -36.5q0 -19 6.5 -27t15.5 -9v0zM398 264l-138 -250l10 2l10 2q42 14 79.5 57.5t53.5 93.5q4 13 6.5 26
t2.5 26q0 15 -5.5 27t-18.5 16v0z" />
    <glyph glyph-name="questiondown" unicode="&#xbf;" 
d="M248 -218q-39 1 -62 27t-23 65q0 58 33.5 89t73.5 53q4 2 8.5 4.5t9.5 5.5q6 4 12.5 7.5t12.5 7.5q12 8 22.5 15.5t19.5 15.5q46 40 64 73t26 33q2 0 3 -2t1 -4q0 -4 -18.5 -31t-46.5 -59q-11 -13 -23 -26t-25 -24q-73 -64 -103 -108.5t-30 -83.5q0 -23 15.5 -34
t36.5 -11h5.5t4.5 1q33 3 60.5 25.5t27.5 51.5q-1 1 -2.5 1.5t-3.5 0.5q-10 5 -17 11t-7 20q0 10 8 18.5t21 8.5q16 0 23.5 -10.5t7.5 -26.5q0 -38 -33.5 -69t-73.5 -41l-14 -2t-14 -1v-1zM478 210q-13 0 -21 6.5t-8 18.5q0 20 9 31.5t30 11.5q13 0 19.5 -5.5t6.5 -22.5
q0 -16 -8 -28t-28 -12v0z" />
    <glyph glyph-name="exclamdown" unicode="&#xa1;" horiz-adv-x="333" 
d="M401 186l-210 -386l-74 -6l266 392h18v0zM419 210q-13 0 -21 6.5t-8 18.5q0 20 9 31.5t30 11.5q12 0 18.5 -5.5t6.5 -22.5q0 -16 -8 -28t-27 -12v0z" />
    <glyph glyph-name="logicalnot" unicode="&#xac;" horiz-adv-x="400" 
d="M477 70v108h-248v30h279v-138h-31v0z" />
    <glyph glyph-name="florin" unicode="&#x192;" 
d="M269 284h124q13 24 26.5 49.5t27.5 51.5q43 79 91.5 148.5t97.5 90.5q8 3 16.5 5t16.5 2q30 0 50.5 -19t20.5 -54v-1.5v-1.5q-1 -19 -11.5 -35.5t-34.5 -16.5q-10 0 -17 6.5t-7 15.5q0 13 6.5 18t13.5 8q8 3 14 8t6 17q0 18 -13 28.5t-30 10.5q-39 0 -76.5 -54.5
t-68.5 -119.5q-22 -48 -40 -91.5t-30 -65.5h107q4 0 5 -2.5t1 -5.5t-1 -5.5t-5 -2.5h-113q-140 -285 -227.5 -432t-161.5 -147q-34 0 -50.5 24t-16.5 53q0 3 0.5 7t1.5 7q3 17 13.5 31t27.5 14q11 0 20 -7t9 -20v-2.5t-1 -2.5q-2 -5 -6.5 -10t-10.5 -7q-1 0 -2 -0.5t-2 -0.5
q-10 -1 -15.5 -7.5t-5.5 -16.5q0 -15 12 -25.5t26 -10.5q7 0 13.5 1t13.5 4q41 18 99.5 130.5t200.5 417.5h-115q-4 0 -5 2.5t-1 5.5t1 5.5t5 2.5v0z" />
    <glyph glyph-name="guillemotleft" unicode="&#xab;" 
d="M238 136v9q18 12 39.5 29t52.5 43q29 24 37 31.5t12 7.5h0.5h1.5q1 -1 2 -1.5t1 -2.5q0 -6 -17 -26t-38 -43q-10 -12 -20 -23t-18 -21q1 -1 1.5 -2.5t1.5 -3.5q1 -3 2.5 -6t3.5 -6q14 -31 25 -57.5t11 -34.5q0 -3 -1 -5t-4 -2h-2t-1 1q-5 3 -13 16t-35 45q-6 7 -11 13.5
t-10 12.5l-1.5 1.5l-1.5 1.5q-4 5 -8.5 11t-9.5 12v0zM350 136v9q18 12 39.5 29t52.5 43q29 24 37 31.5t12 7.5h0.5h1.5q1 -1 2 -1.5t1 -2.5q0 -6 -17 -26t-38 -43q-10 -12 -20 -23t-18 -21q1 -1 1.5 -2.5t1.5 -3.5q1 -3 2.5 -6t3.5 -6q14 -31 25 -57.5t11 -34.5q0 -3 -1 -5
t-4 -2h-2t-1 1q-5 3 -13 16t-35 45q-6 7 -11 13.5t-10 12.5l-1.5 1.5l-1.5 1.5q-4 5 -8.5 11t-9.5 12v0z" />
    <glyph glyph-name="guillemotright" unicode="&#xbb;" 
d="M393 142v-9q-18 -12 -39 -29t-53 -43q-29 -24 -37 -31.5t-12 -7.5h-0.5h-1.5q-1 1 -2 1.5t-1 2.5q0 6 17 26t38 43q10 12 20 23.5t18 20.5q-1 1 -1.5 2.5t-1.5 3.5q-1 3 -2.5 6t-3.5 6q-14 31 -25 57.5t-11 34.5q0 3 1 5t4 2h2t1 -1q5 -3 13 -16t35 -45q6 -7 11 -13.5
t10 -12.5l1.5 -1.5l1.5 -1.5q4 -5 8.5 -11t9.5 -12v0zM506 142v-9q-19 -12 -40 -29t-53 -43q-29 -24 -37 -31.5t-12 -7.5h-0.5h-1.5q-1 1 -2 1.5t-1 2.5q0 6 17 26t38 43q10 12 20 23.5t18 20.5q-1 1 -1.5 2.5t-1.5 3.5q-1 3 -2.5 6t-3.5 6q-14 31 -25 57.5t-11 34.5
q0 3 1 5t4 2h2t1 -1q5 -3 13 -16t35 -45q6 -7 11 -13.5t11 -12.5q5 -6 10 -12.5t11 -13.5v0z" />
    <glyph glyph-name="ellipsis" unicode="&#x2026;" horiz-adv-x="1001" 
d="M356 62q14 0 21.5 -6.5t7.5 -18.5q0 -20 -9 -31t-30 -11q-12 0 -18.5 5.5t-6.5 21.5q0 17 8 28.5t27 11.5v0zM690 62q14 0 21.5 -6.5t7.5 -18.5q0 -20 -9 -31t-30 -11q-12 0 -18.5 5.5t-6.5 21.5q0 17 8 28.5t27 11.5v0zM1023 62q14 0 21.5 -6.5t7.5 -18.5q0 -20 -9 -31
t-30 -11q-12 0 -18.5 5.5t-6.5 21.5q0 17 8 28.5t27 11.5v0z" />
    <glyph glyph-name="Agrave" unicode="&#xc0;" horiz-adv-x="1057" 
d="M1054 58l-22 -58h-72l28 62q-3 0 -6.5 0.5t-6.5 1.5q-51 8 -100 24.5t-89 46.5q-67 -59 -158 -99.5t-203 -40.5q-103 0 -179.5 55.5t-76.5 145.5q0 84 55 139t121 77q20 7 40 10.5t38 3.5q92 0 140.5 -46t48.5 -105q0 -70 -54 -113t-118 -52q-8 -1 -15.5 -1.5t-15.5 -0.5
q-31 0 -38.5 2t-7.5 7q0 3 1 4.5t5 1.5q2 0 4.5 -0.5t6.5 -0.5q3 -1 8 -1.5t11 -0.5q78 0 137.5 41.5t59.5 111.5q0 50 -38.5 82.5t-115.5 32.5q-11 0 -21.5 -1t-21.5 -3q-77 -14 -140.5 -69.5t-63.5 -136.5q0 -73 70 -122t154 -50h1.5h1.5q101 0 186 33.5t167 103.5
q-52 41 -88.5 94.5t-36.5 122.5q0 71 40.5 111t88.5 47q6 1 11.5 1.5t10.5 0.5q69 0 124.5 -43t83.5 -101q157 172 267.5 247.5t144.5 75.5q3 0 4 -2t1 -5q0 -4 -45 -56.5t-118 -171.5q-35 -57 -64.5 -113t-57.5 -112q-6 -13 -12.5 -26t-12.5 -26q-14 -29 -28.5 -58.5
t-29.5 -58.5q21 0 42.5 5t45.5 14q10 4 18.5 8t15.5 9q22 14 32.5 25.5t13.5 11.5q2 0 3.5 -1.5t1.5 -3.5q0 -3 -11 -14.5t-33 -25.5q-23 -14 -56 -26t-77 -14v0zM1024 233q0 10 -0.5 20t-1.5 21q-3 22 -7.5 42.5t-10.5 35.5q-19 -18 -36.5 -37t-35.5 -38q-1 0 -2 -1t-1 -2
q-32 -34 -64.5 -67t-68.5 -63q26 -20 57.5 -33.5t63.5 -22.5q19 -5 38 -8.5t37 -5.5q14 38 23 78t9 81v0zM1028 148l2 -2q63 145 152 278t204 243l-2 2q-30 -4 -118.5 -73t-188.5 -169q-16 -16 -31.5 -32t-31.5 -33q6 -15 10.5 -30.5t6.5 -30.5q3 -15 4 -30.5t1 -30.5
q0 -24 -2 -47t-6 -45v0zM688 342q0 -67 28.5 -113t67.5 -77q41 35 79 73t76 77q6 7 12.5 13.5l12.5 12.5q9 10 17.5 19t17.5 18q-27 50 -67 87t-102 37h-2.5h-3.5q-51 -2 -93.5 -37.5t-42.5 -109.5v0zM1334 912q16 0 22.5 -10.5t10.5 -27.5q3 -11 6.5 -24t10.5 -26
q2 -5 4.5 -9t5.5 -8q5 -7 10 -13t11 -11q13 -12 23.5 -19.5t10.5 -11.5q0 -2 -0.5 -2.5t-2.5 -0.5q0 -1 -0.5 -1h-1.5q-7 0 -25.5 12.5t-39.5 31.5q-10 9 -20.5 20t-19.5 22q-12 15 -20 29.5t-8 26.5q0 2 0.5 3.5t0.5 3.5q2 5 7.5 10t14.5 5v0z" />
    <glyph glyph-name="Atilde" unicode="&#xc3;" horiz-adv-x="1057" 
d="M1054 58l-22 -58h-72l28 62q-3 0 -6.5 0.5t-6.5 1.5q-51 8 -100 24.5t-89 46.5q-67 -59 -158 -99.5t-203 -40.5q-103 0 -179.5 55.5t-76.5 145.5q0 84 55 139t121 77q20 7 40 10.5t38 3.5q92 0 140.5 -46t48.5 -105q0 -70 -54 -113t-118 -52q-8 -1 -15.5 -1.5t-15.5 -0.5
q-31 0 -38.5 2t-7.5 7q0 3 1 4.5t5 1.5q2 0 4.5 -0.5t6.5 -0.5q3 -1 8 -1.5t11 -0.5q78 0 137.5 41.5t59.5 111.5q0 50 -38.5 82.5t-115.5 32.5q-11 0 -21.5 -1t-21.5 -3q-77 -14 -140.5 -69.5t-63.5 -136.5q0 -73 70 -122t154 -50h1.5h1.5q101 0 186 33.5t167 103.5
q-52 41 -88.5 94.5t-36.5 122.5q0 71 40.5 111t88.5 47q6 1 11.5 1.5t10.5 0.5q69 0 124.5 -43t83.5 -101q157 172 267.5 247.5t144.5 75.5q3 0 4 -2t1 -5q0 -4 -45 -56.5t-118 -171.5q-35 -57 -64.5 -113t-57.5 -112q-6 -13 -12.5 -26t-12.5 -26q-14 -29 -28.5 -58.5
t-29.5 -58.5q21 0 42.5 5t45.5 14q10 4 18.5 8t15.5 9q22 14 32.5 25.5t13.5 11.5q2 0 3.5 -1.5t1.5 -3.5q0 -3 -11 -14.5t-33 -25.5q-23 -14 -56 -26t-77 -14v0zM1024 233q0 10 -0.5 20t-1.5 21q-3 22 -7.5 42.5t-10.5 35.5q-19 -18 -36.5 -37t-35.5 -38q-1 0 -2 -1t-1 -2
q-32 -34 -64.5 -67t-68.5 -63q26 -20 57.5 -33.5t63.5 -22.5q19 -5 38 -8.5t37 -5.5q14 38 23 78t9 81v0zM1028 148l2 -2q63 145 152 278t204 243l-2 2q-30 -4 -118.5 -73t-188.5 -169q-16 -16 -31.5 -32t-31.5 -33q6 -15 10.5 -30.5t6.5 -30.5q3 -15 4 -30.5t1 -30.5
q0 -24 -2 -47t-6 -45v0zM688 342q0 -67 28.5 -113t67.5 -77q41 35 79 73t76 77q6 7 12.5 13.5l12.5 12.5q9 10 17.5 19t17.5 18q-27 50 -67 87t-102 37h-2.5h-3.5q-51 -2 -93.5 -37.5t-42.5 -109.5v0zM1366 869q17 0 35 -5.5t37 -12.5t37 -12.5t34 -5.5q18 0 27.5 7t14.5 16
q3 4 5 9t4 8q2 2 3 3.5t3 1.5t3 -2t1 -5t-3 -13.5t-10 -22.5q-9 -15 -24.5 -26.5t-41.5 -11.5q-16 0 -33.5 5t-34.5 12t-33.5 12t-32.5 5q-15 0 -24 -6.5t-15 -14.5q-5 -7 -8 -12.5t-6 -8.5q-1 0 -1.5 -0.5t-1.5 -0.5q-2 0 -3 2t-1 5t4 13.5t11 23.5q9 14 22.5 25.5
t31.5 11.5v0z" />
    <glyph glyph-name="Otilde" unicode="&#xd5;" horiz-adv-x="779" 
d="M974 457q0 -34 -8.5 -71.5t-24.5 -74.5q-51 -121 -161.5 -221.5t-235.5 -100.5q-79 0 -115 54.5t-40 120.5v8v8q0 19 2.5 38t6.5 38q26 107 108.5 207t179.5 164q-19 7 -40 10.5t-44 3.5q-117 0 -193.5 -86.5t-85.5 -189.5v-1.5v-1.5q-1 -10 -2.5 -13t-3.5 -3t-3.5 1.5
t-2.5 3.5v1.5v0.5q0 3 5.5 43t32.5 92q35 66 102 115.5t152 49.5q26 0 50 -4.5t45 -12.5q7 5 14 9l14 8q47 26 92 41t84 15q58 0 91 -30.5t33 -88.5q0 -3 -0.5 -10t-1.5 -15q-2 -10 -4.5 -18t-6.5 -8q-2 0 -2.5 2t-0.5 5q0 2 0.5 7.5t1.5 12.5v2.5t1 2.5q0 6 0.5 11.5
t0.5 9.5q0 53 -31 79t-81 26q-37 0 -77 -14t-81 -39q-7 -4 -13.5 -8.5t-13.5 -9.5q17 -7 32 -16.5t28 -21.5q20 11 38.5 16t34.5 5q56 0 90 -40t34 -112v0zM447 136q0 -58 25 -97t80 -39q23 0 46.5 5t47.5 15q97 38 183 134.5t118 204.5q7 24 11 48.5t4 47.5
q0 71 -29.5 106.5t-82.5 35.5q-16 0 -32 -4.5t-33 -12.5q30 -29 48 -67t23 -78q1 -8 1.5 -16t0.5 -16q0 -14 -2 -28t-6 -29q-17 -63 -65 -115.5t-115 -52.5q-40 0 -68 25t-28 68q0 96 51 173.5t112 120.5q8 5 15 9.5t14 8.5q-12 11 -27 20.5t-32 14.5q-99 -73 -176.5 -200
t-83.5 -264v-8.5v-9.5v0zM586 277q0 -37 18 -60t57 -23q58 0 96.5 49t56.5 107q7 23 10.5 45.5t3.5 42.5q0 41 -14 75.5t-40 61.5q-1 -1 -2.5 -1.5t-3.5 -1.5q-66 -36 -121.5 -115t-60.5 -167v-6.5v-6.5v0zM845 869q17 0 35 -5.5t37 -12.5t37 -12.5t33 -5.5q18 0 27.5 7
t14.5 16q3 4 5 9t4 8q2 2 3 3.5t3 1.5t3 -2t1 -5t-3 -13.5t-10 -22.5q-8 -15 -24 -26.5t-41 -11.5q-16 0 -33.5 5t-34.5 12t-33.5 12t-32.5 5q-15 0 -24 -6.5t-15 -14.5q-5 -7 -8 -12.5t-6 -8.5q-1 0 -1.5 -0.5t-1.5 -0.5q-2 0 -3 2t-1 5t4 13.5t11 23.5q9 14 22.5 25.5
t31.5 11.5v0z" />
    <glyph glyph-name="OE" unicode="&#x152;" horiz-adv-x="1001" 
d="M770 140v20l-2 2q-6 -6 -12 -11.5t-12 -11.5l-2.5 -2.5l-2.5 -2.5q-54 -52 -113.5 -95.5t-146.5 -43.5q-57 -2 -93 37.5t-48 87.5q-4 14 -5.5 27.5t-1.5 26.5q0 15 1.5 30t4.5 30q19 104 90 201t153 163q11 9 21.5 17t21.5 15q-16 5 -32 7t-33 2q-105 0 -171 -71.5
t-87 -156.5q-1 -3 -1.5 -5t-0.5 -4q-3 -12 -4 -21.5t-2 -15.5q-2 -7 -3 -10t-4 -3h-1.5t-1.5 1q-2 0 -3 1.5t-1 2.5v8t1 9q7 105 89 193t194 88q5 0 10 -0.5t10 -0.5q14 -2 29 -5t28 -8q30 20 65.5 37.5t73.5 25.5q10 3 21 4t22 1q52 0 83.5 -35t31.5 -85v-2.5v-2.5
q-1 -12 -3.5 -22t-5.5 -14l-0.5 -0.5t-1.5 -0.5q-3 0 -4 2t-1 5q0 2 0.5 5t1.5 7q1 5 1.5 10.5t0.5 12.5q0 47 -28.5 75.5t-75.5 28.5q-42 0 -82 -18.5t-75 -43.5q15 -9 28 -19t24 -21q16 8 32.5 13t34.5 5q54 0 83 -46.5t29 -116.5q0 -13 -2 -27.5t-6 -29.5q-4 -17 -10 -34
t-12 -31l2 -2q41 31 87.5 53.5t96.5 28.5v2q-16 8 -31.5 17.5t-28.5 22.5q-4 -1 -10 -2t-12 -1q-5 -1 -10.5 -1h-9.5q-8 0 -12.5 1.5t-4.5 3.5q0 4 2.5 5.5t7.5 1.5h7t8 1q8 0 15.5 1t10.5 2q-4 6 -6 12.5t-2 13.5q0 63 54 116t119 80q27 12 53.5 18.5t48.5 6.5
q23 0 41 -11.5t18 -37.5q0 -47 -49 -89t-108 -71q-36 -17 -69 -28t-56 -14q5 -20 18.5 -32t34.5 -12q3 0 7 0.5t8 1.5h2t1 1q4 0 7 0.5t6 0.5q2 0 3.5 -0.5t3.5 -0.5q5 -2 9 -5t4 -6q0 -6 -6 -9t-18 -3q-3 0 -7.5 0.5t-9.5 1.5q-2 0 -3 0.5t-3 0.5q-4 0 -8 0.5t-7 0.5
q-81 0 -143.5 -65t-82.5 -142q-4 -15 -6 -30t-2 -29q0 -43 18 -74t64 -42q0 4 -0.5 8t-1.5 8v2v3q-1 5 -1.5 10t-0.5 10q0 12 1 23.5t2 23.5q13 80 65 146t122 66q32 0 50 -24.5t20 -54.5v-2.5v-2.5q0 -5 -0.5 -10.5t-0.5 -10.5q-10 -74 -73.5 -137.5t-137.5 -72.5
q-7 -1 -13.5 -1.5t-12.5 -0.5q1 -13 3 -25t4 -23q2 -14 4.5 -23.5t2.5 -12.5q0 -4 -1.5 -5t-3.5 -1q-1 0 -2.5 1.5t-3.5 4.5q-4 10 -8.5 31.5t-10.5 52.5q-64 -1 -106 41.5t-42 103.5v0zM878 453q0 54 -24.5 99t-77.5 45q-4 0 -8 -0.5t-9 -1.5q-6 -1 -12.5 -3.5t-12.5 -4.5
q-3 -1 -5.5 -2.5t-4.5 -2.5q25 -31 39 -68.5t18 -75.5q0 -6 0.5 -12.5t0.5 -12.5q0 -20 -5.5 -43.5t-16.5 -48.5q-23 -54 -66.5 -99.5t-99.5 -45.5q-40 0 -61 31.5t-21 73.5q0 94 58.5 176t128.5 125q-10 13 -23 22.5t-27 15.5q-75 -57 -140.5 -149t-97.5 -191
q-10 -33 -16 -66.5t-6 -65.5q0 -54 21.5 -96t85.5 -42q18 0 37 4t38 12q74 29 143 102.5t113 155.5q24 45 37.5 89t13.5 80v0zM932 25v-15q79 -1 145 62t77 138q1 6 1.5 12.5t0.5 12.5q0 25 -14 43t-39 18q-9 0 -18 -2.5t-18 -7.5q-42 -22 -79 -81t-50 -126q-3 -13 -4.5 -27
t-1.5 -27v0zM528 279q0 -31 14.5 -54t48.5 -23q6 0 12.5 1.5t13.5 3.5q44 17 82.5 79.5t46.5 134.5q1 8 1.5 16t0.5 16q0 11 -1.5 23t-4.5 24q-5 21 -13.5 40.5t-21.5 33.5q-75 -46 -127 -126t-52 -169v0zM1022 494q0 -9 0.5 -16t1.5 -12q23 4 52.5 14t60.5 24
q60 29 109.5 70.5t49.5 87.5q0 17 -13 24t-29 7q-19 0 -46 -10.5t-57 -28.5q-40 -24 -75.5 -58.5t-47.5 -70.5q-3 -8 -4.5 -15.5t-1.5 -15.5v0z" />
    <glyph glyph-name="oe" unicode="&#x153;" horiz-adv-x="501" 
d="M649 230q0 -34 -34.5 -60t-75.5 -43q-26 -11 -50.5 -18.5t-40.5 -10.5q-3 -8 -5.5 -16.5t-2.5 -17.5q0 -28 8.5 -39.5t31.5 -12.5q21 -1 57.5 16t76.5 58q38 37 47 49t12 14h0.5h0.5q2 0 3.5 -1.5t1.5 -4.5q0 -2 -11 -14.5t-24 -27.5l-3 -3l-2 -2q-7 -8 -14 -15l-12 -12
q-34 -33 -69 -50.5t-71 -18.5q-30 0 -45 16.5t-20 37.5q-2 8 -3 15.5t-1 14.5q0 11 1.5 22t4.5 19l-2 2q0 -1 -0.5 -1.5l-1.5 -1.5q-23 -44 -64 -81.5t-85 -41.5q-3 -1 -5.5 -1h-5.5q-30 0 -46 24.5t-16 64.5q0 14 1 22.5t2 14.5q0 6 1 9.5t1 5.5q0 3 -0.5 4.5t-2.5 1.5
q-1 0 -2 -0.5t-2 -0.5l-3 -3t-3 -4q-3 -3 -5 -5.5t-3 -2.5q-3 0 -4.5 1.5t-1.5 3.5q0 3 12.5 16.5t27.5 29.5q1 1 2.5 2t2.5 3q4 3 7 6l6 6q5 5 10.5 9.5t10.5 8.5q38 32 74.5 46.5t62.5 14.5q29 0 44.5 -19.5t15.5 -49.5q0 -4 -0.5 -8.5t-1.5 -8.5q0 -5 -1.5 -9.5
t-3.5 -8.5l2 -2q19 33 50.5 58.5t64.5 37.5q13 5 26 7.5t25 2.5q23 0 36.5 -13.5t13.5 -34.5v0zM224 49q0 -21 8 -29t18 -8q5 0 10 0.5t10 2.5q35 9 68 43t54 73q11 22 17.5 42.5t6.5 36.5q0 26 -8 41t-27 15q-11 0 -23.5 -5.5t-25.5 -14.5q-26 -20 -50.5 -53t-39.5 -69
q-8 -20 -13 -39t-5 -36v0zM619 247q0 10 -5 14.5t-15 4.5q-11 0 -23.5 -5.5t-25.5 -14.5q-21 -15 -41 -38t-35 -48q-7 -13 -13 -25.5t-9 -24.5q14 2 30 7t33 12q39 18 71.5 49t32.5 69v0z" />
    <glyph glyph-name="emdash" unicode="&#x2014;" horiz-adv-x="1001" 
d="M1180 158l-12 -38h-489h-512l12 38h490h511v0z" />
    <glyph glyph-name="quotedblleft" unicode="&#x201c;" 
d="M318 352q0 13 8.5 29.5t21.5 32.5q9 12 19 23t20 21q23 22 42.5 36.5t25.5 14.5q3 0 4 -1.5t1 -3.5v-2t-1 -2q-1 -2 -4.5 -5t-11.5 -8q-28 -21 -46 -41.5t-19 -40.5q-1 -49 -10 -65t-29 -16q-11 0 -16 9t-5 19v0zM466 352q0 13 8.5 29.5t21.5 32.5q9 12 19 23t21 21
q23 22 42.5 36.5t25.5 14.5q3 0 4 -1.5t1 -3.5v-2t-1 -2q-1 -2 -4.5 -5t-11.5 -8q-28 -21 -46 -41.5t-19 -40.5q-1 -49 -10 -65t-30 -16q-11 0 -16 9t-5 19v0z" />
    <glyph glyph-name="quotedblright" unicode="&#x201d;" 
d="M457 480q0 -13 -8.5 -29t-21.5 -33q-8 -11 -18.5 -22t-20.5 -21q-23 -22 -42.5 -36.5t-25.5 -14.5q-3 0 -4 1.5t-1 3.5v1.5v0.5q1 2 5 5l12 9q29 21 46.5 42t18.5 40q2 50 10.5 66t28.5 16q11 0 15.5 -8t5.5 -18v-1.5v-1.5v0zM606 480q0 -13 -8.5 -29t-21.5 -33
q-9 -11 -19 -22t-21 -21q-23 -22 -42.5 -36.5t-25.5 -14.5q-3 0 -4 1.5t-1 3.5v1.5v0.5q1 2 5 5l12 9q29 21 47 42t19 40q2 50 10.5 66t28.5 16q11 0 15.5 -8t5.5 -18v-1.5v-1.5v0z" />
    <glyph glyph-name="quoteleft" unicode="&#x2018;" horiz-adv-x="222" 
d="M287 352q0 13 8.5 29.5t21.5 32.5q9 12 19 23t20 21q23 22 42.5 36.5t25.5 14.5q3 0 4 -1.5t1 -3.5v-2t-1 -2q-1 -2 -4.5 -5t-11.5 -8q-28 -21 -46 -41.5t-19 -40.5q-1 -49 -10 -65t-29 -16q-11 0 -16 9t-5 19v0z" />
    <glyph glyph-name="quoteright" unicode="&#x2019;" horiz-adv-x="222" 
d="M469 480q0 -13 -8.5 -29t-21.5 -33q-8 -11 -18.5 -22t-20.5 -21q-23 -22 -42.5 -36.5t-25.5 -14.5q-3 0 -4 1.5t-1 3.5v1.5v0.5q1 2 5 5l12 9q29 21 46.5 42t18.5 40q2 50 10.5 66t28.5 16q11 0 15.5 -8t5.5 -18v-1.5v-1.5v0z" />
    <glyph glyph-name="divide" unicode="&#xf7;" horiz-adv-x="400" 
d="M337 23q0 13 9 22t22 9t22 -9t9 -22t-9 -21.5t-22 -8.5t-22 8.5t-9 21.5v0zM508 124h-279v30h279v-30v0zM337 255q0 13 9 22t22 9t22 -9t9 -22t-9 -22t-22 -9t-22 9t-9 22v0z" />
    <glyph glyph-name="ydieresis" unicode="&#xff;" horiz-adv-x="444" 
d="M543 272l64 6l-179 -289l2 -2q32 15 60.5 36.5t52.5 44.5q15 15 28.5 29t23.5 27q11 13 15 18t6 6h1.5h1.5q2 0 3 -1.5t1 -3.5t-8.5 -12t-18.5 -22l-0.5 -0.5l-1.5 -1.5q-3 -4 -7 -8t-7 -8q-18 -20 -35.5 -36.5t-35.5 -29.5q-22 -17 -45 -30t-47 -26
q-77 -137 -145.5 -208.5t-113.5 -71.5q-21 0 -35 13.5t-14 40.5q0 55 78 113.5t199 131.5l87 165l-2 2q-8 -11 -25 -30.5t-38 -40.5q-9 -9 -18.5 -18t-19.5 -17q-23 -20 -45 -33.5t-37 -13.5q-17 0 -28.5 15.5t-14.5 34.5v3v4q0 6 1 12l2 12q6 21 18.5 42.5t26.5 41.5
q18 25 33 47.5t15 38.5q0 6 -3.5 9.5t-12.5 3.5q-19 0 -41.5 -17t-51.5 -47q-39 -41 -48.5 -53.5t-12.5 -14.5h-1.5h-0.5q-2 0 -3 1.5t-1 3.5t7.5 11t41.5 48q43 48 69.5 64t43.5 16q22 0 32.5 -16.5t11.5 -35.5v-1.5v-1.5q0 -12 -3.5 -25t-9.5 -27q-7 -14 -16 -29t-19 -29
q-18 -26 -33 -48t-15 -36q0 -8 3 -11.5t11 -3.5q20 0 52 24t66 59q12 13 25 27.5t25 28.5q30 35 53 67.5t33 51.5v0zM378 -34l-2 2q-136 -87 -190.5 -138.5t-54.5 -90.5q0 -20 8.5 -29t21.5 -9q38 0 91 60t126 209v-4v0zM397 442q14 0 21.5 -6.5t7.5 -18.5q0 -20 -9 -31.5
t-30 -11.5q-12 0 -18.5 6t-6.5 22q0 17 8 28.5t27 11.5v0zM542 442q14 0 21.5 -6.5t7.5 -18.5q0 -20 -9 -31.5t-30 -11.5q-12 0 -18.5 6t-6.5 22q0 17 8 28.5t27 11.5v0z" />
    <glyph glyph-name="Ydieresis" unicode="&#x178;" horiz-adv-x="500" 
 />
    <glyph glyph-name="currency" unicode="&#xa4;" 
d="M499 360l37 37l25 -25l-36 -37q17 -20 26.5 -46.5t9.5 -55.5t-9.5 -55.5t-26.5 -46.5l36 -37l-25 -25l-37 37q-21 -17 -47 -27t-55 -10t-55.5 10t-47.5 27l-36 -37l-25 25l36 37q-16 20 -26 46.5t-10 55.5t10 55.5t26 46.5l-36 37l25 25l36 -37q21 17 47.5 27t55.5 10
t55 -10t47 -27v0zM531 233q0 55 -39 96.5t-95 41.5q-57 0 -95.5 -41.5t-38.5 -96.5t38.5 -96.5t95.5 -41.5q56 0 95 41.5t39 96.5v0z" />
    <glyph glyph-name="guilsinglleft" unicode="&#x2039;" horiz-adv-x="278" 
d="M232 136v9q18 12 39.5 29t52.5 43q29 24 37 31.5t12 7.5h0.5h1.5q1 -1 2 -1.5t1 -2.5q0 -6 -17 -26t-38 -43q-10 -12 -20 -23t-18 -21q1 -1 1.5 -2.5t1.5 -3.5q1 -3 2.5 -6t3.5 -6q14 -31 25 -57.5t11 -34.5q0 -3 -1 -5t-4 -2h-2t-1 1q-5 3 -13 16t-35 45q-6 7 -11 13.5
t-10 12.5l-1.5 1.5l-1.5 1.5q-4 5 -8.5 11t-9.5 12v0z" />
    <glyph glyph-name="guilsinglright" unicode="&#x203a;" horiz-adv-x="278" 
d="M400 142v-9q-18 -12 -39 -29t-53 -43q-29 -24 -37 -31.5t-12 -7.5h-0.5h-1.5q-1 1 -2 1.5t-1 2.5q0 6 17 26t38 43q10 12 20 23.5t18 20.5q-1 1 -1.5 2.5t-1.5 3.5q-1 3 -2.5 6t-3.5 6q-14 31 -25 57.5t-11 34.5q0 3 1 5t4 2h2t1 -1q5 -3 13 -16t35 -45q6 -7 11 -13.5
t10 -12.5l1.5 -1.5l1.5 -1.5q4 -5 8.5 -11t9.5 -12v0z" />
    <glyph glyph-name="daggerdbl" unicode="&#x2021;" horiz-adv-x="501" 
d="M411 22h-42q-15 -28 -23.5 -47.5t-12.5 -37.5q-2 -10 -3 -20t-1 -22q0 -25 -10.5 -36.5t-22.5 -14.5q-2 0 -5 -0.5t-5 -0.5q-14 0 -23.5 9.5t-9.5 26.5q0 7 2.5 13t7.5 11q9 10 22 21t27 31q5 6 9 13t8 15l20 39h-45q-15 0 -27.5 -4.5t-24.5 -9.5q-1 0 -2 -0.5t-2 -0.5
q-11 -5 -22.5 -8.5t-24.5 -3.5q-17 0 -26.5 8t-11.5 17q-1 2 -1 3.5v3.5q0 21 11.5 30t27.5 9q7 0 13 -1.5t12 -3.5q5 -2 10 -4.5t11 -4.5q13 -5 32.5 -9.5t51.5 -4.5h26q27 54 40.5 85t19.5 58q3 11 5 22t3 23q10 7 21.5 20t22.5 30q10 15 19.5 31.5t18.5 34.5
q17 30 30.5 58.5t22.5 45.5h-45q-15 0 -28 -4.5t-25 -9.5q-1 -1 -2.5 -1.5t-2.5 -0.5q-11 -5 -22 -8.5t-24 -3.5q-17 0 -26.5 8.5t-11.5 17.5q-1 2 -1 3.5v3.5q0 21 11.5 30t27.5 9q7 0 13 -1.5t11 -3.5q6 -2 11 -4t11 -5q13 -5 32.5 -9.5t52.5 -4.5h26q15 31 22.5 50.5
t11.5 37.5q2 10 3.5 20t2.5 22q2 20 11 35.5t32 15.5q14 0 23 -10.5t10 -23.5v-1.5v-1.5q0 -11 -5.5 -20t-13.5 -18q-5 -5 -11.5 -11t-12.5 -12q-8 -7 -15 -16t-13 -20l-25 -47h28q29 0 50.5 4t36.5 9t24.5 9t16.5 4q16 0 28 -9.5t12 -25.5t-7.5 -25.5t-24.5 -9.5
q-10 0 -22 4.5t-27 9.5t-35 9.5t-46 4.5h-42q-50 -94 -66 -130.5t-18 -61.5q-1 -7 -1 -13.5v-13.5q-11 -12 -20.5 -23t-18.5 -22q-10 -15 -19.5 -29.5t-18.5 -30.5q-9 -18 -19 -38.5t-22 -45.5h28q29 0 50.5 4t36.5 9t25 9t17 4q16 0 28 -9.5t12 -25.5t-7.5 -25t-24.5 -9
q-10 0 -22 4l-27 9q-16 5 -36 9.5t-46 4.5v0z" />
    <glyph glyph-name="quotesinglbase" unicode="&#x201a;" horiz-adv-x="500" 
 />
    <glyph glyph-name="quotedblbase" unicode="&#x201e;" 
d="M283 44q0 -13 -8.5 -28.5t-21.5 -32.5q-8 -11 -18.5 -22t-20.5 -21q-23 -22 -42.5 -36.5t-25.5 -14.5q-3 0 -4 1.5t-1 3.5v1.5v0.5q1 2 5 5l12 9q29 21 46.5 41.5t18.5 40.5q2 49 10.5 64.5t28.5 15.5q11 0 16 -8.5t5 -19.5v0zM431 44q0 -13 -8.5 -28.5t-21.5 -32.5
q-8 -11 -18.5 -22t-20.5 -21q-23 -22 -42.5 -36.5t-25.5 -14.5q-3 0 -4 1.5t-1 3.5v1.5v0.5q1 2 5 5l12 9q29 21 46.5 41.5t18.5 40.5q2 49 10.5 64.5t28.5 15.5q11 0 16 -8.5t5 -19.5v0z" />
    <glyph glyph-name="perthousand" unicode="&#x2030;" horiz-adv-x="945" 
d="M341 -6h-22l37 51l370 512h22l-37 -51l-370 -512v0zM757 362q43 0 56 -25t13 -55q0 -23 -8.5 -52.5t-23.5 -59.5q-23 -48 -58.5 -91.5t-72.5 -63.5q-12 -7 -24.5 -11t-24.5 -4q-38 0 -56.5 24t-23.5 53q-1 7 -1.5 13.5t-0.5 12.5q0 16 3.5 33t9.5 34q20 57 65.5 108
t95.5 73q13 5 26 8t25 3v0zM804 293q0 31 -11 41.5t-24 11.5h-2.5h-2.5q-15 0 -31 -8t-33 -23q-27 -23 -53.5 -59.5t-44.5 -74.5q-14 -29 -22 -56.5t-8 -50.5v-2.5v-2.5q1 -20 12.5 -36.5t33.5 -16.5q15 0 35.5 13.5t41.5 35.5q26 28 50.5 65.5t39.5 76.5q9 22 14 44t5 42v0
zM1071 362q43 0 56 -25t13 -55q0 -23 -8.5 -52.5t-23.5 -59.5q-23 -48 -58.5 -91.5t-72.5 -63.5q-12 -7 -24.5 -11t-24.5 -4q-38 0 -56.5 24t-23.5 53q-1 7 -1.5 13.5t-0.5 12.5q0 16 3.5 33t9.5 34q20 57 65.5 108t95.5 73q13 5 26 8t25 3v0zM1118 293q0 31 -11 41.5
t-24 11.5h-2.5h-2.5q-15 0 -31 -8t-33 -23q-27 -23 -53.5 -59.5t-44.5 -74.5q-14 -29 -22 -56.5t-8 -50.5v-2.5v-2.5q1 -20 12.5 -36.5t33.5 -16.5q15 0 35.5 13.5t41.5 35.5q26 28 50.5 65.5t39.5 76.5q9 22 14 44t5 42v0zM472 551q44 0 57 -25t13 -56q0 -23 -8.5 -52.5
t-23.5 -59.5q-24 -47 -58.5 -90.5t-72.5 -64.5q-12 -7 -25 -11t-25 -4q-38 0 -56.5 24t-23.5 53q-1 7 -1.5 13.5t-0.5 12.5q0 16 3.5 33.5t9.5 34.5q21 57 66 108t95 73q13 5 26 8t25 3v0zM520 481q0 30 -10.5 41t-23.5 13h-3.5h-3.5q-15 0 -31 -8t-33 -23
q-27 -23 -53 -59.5t-45 -75.5q-14 -29 -22 -56.5t-8 -50.5v-2.5v-2.5q1 -20 12.5 -36.5t33.5 -16.5q16 0 36.5 13.5t41.5 36.5q26 27 50.5 64.5t39.5 76.5q9 22 14 44t5 42v0z" />
    <glyph glyph-name="Acircumflex" unicode="&#xc2;" horiz-adv-x="1057" 
d="M1054 58l-22 -58h-72l28 62q-3 0 -6.5 0.5t-6.5 1.5q-51 8 -100 24.5t-89 46.5q-67 -59 -158 -99.5t-203 -40.5q-103 0 -179.5 55.5t-76.5 145.5q0 84 55 139t121 77q20 7 40 10.5t38 3.5q92 0 140.5 -46t48.5 -105q0 -70 -54 -113t-118 -52q-8 -1 -15.5 -1.5t-15.5 -0.5
q-31 0 -38.5 2t-7.5 7q0 3 1 4.5t5 1.5q2 0 4.5 -0.5t6.5 -0.5q3 -1 8 -1.5t11 -0.5q78 0 137.5 41.5t59.5 111.5q0 50 -38.5 82.5t-115.5 32.5q-11 0 -21.5 -1t-21.5 -3q-77 -14 -140.5 -69.5t-63.5 -136.5q0 -73 70 -122t154 -50h1.5h1.5q101 0 186 33.5t167 103.5
q-52 41 -88.5 94.5t-36.5 122.5q0 71 40.5 111t88.5 47q6 1 11.5 1.5t10.5 0.5q69 0 124.5 -43t83.5 -101q157 172 267.5 247.5t144.5 75.5q3 0 4 -2t1 -5q0 -4 -45 -56.5t-118 -171.5q-35 -57 -64.5 -113t-57.5 -112q-6 -13 -12.5 -26t-12.5 -26q-14 -29 -28.5 -58.5
t-29.5 -58.5q21 0 42.5 5t45.5 14q10 4 18.5 8t15.5 9q22 14 32.5 25.5t13.5 11.5q2 0 3.5 -1.5t1.5 -3.5q0 -3 -11 -14.5t-33 -25.5q-23 -14 -56 -26t-77 -14v0zM1024 233q0 10 -0.5 20t-1.5 21q-3 22 -7.5 42.5t-10.5 35.5q-19 -18 -36.5 -37t-35.5 -38q-1 0 -2 -1t-1 -2
q-32 -34 -64.5 -67t-68.5 -63q26 -20 57.5 -33.5t63.5 -22.5q19 -5 38 -8.5t37 -5.5q14 38 23 78t9 81v0zM1028 148l2 -2q63 145 152 278t204 243l-2 2q-30 -4 -118.5 -73t-188.5 -169q-16 -16 -31.5 -32t-31.5 -33q6 -15 10.5 -30.5t6.5 -30.5q3 -15 4 -30.5t1 -30.5
q0 -24 -2 -47t-6 -45v0zM688 342q0 -67 28.5 -113t67.5 -77q41 35 79 73t76 77q6 7 12.5 13.5l12.5 12.5q9 10 17.5 19t17.5 18q-27 50 -67 87t-102 37h-2.5h-3.5q-51 -2 -93.5 -37.5t-42.5 -109.5v0zM1442 912h14q5 -25 13.5 -48.5t18.5 -44.5q13 -29 24.5 -48t11.5 -21
q0 -1 -0.5 -1.5t-1.5 -0.5q-6 0 -16.5 11.5t-22.5 26.5l-6 8t-5 8q-12 16 -21 30.5t-11 20.5l-12.5 -12.5l-13.5 -13.5q-5 -5 -10.5 -9.5t-11.5 -9.5q-27 -24 -50.5 -42t-28.5 -18q-2 0 -3 0.5t-1 1.5q0 5 25.5 29t55.5 61q14 16 27.5 34.5t24.5 37.5v0z" />
    <glyph glyph-name="Ecircumflex" unicode="&#xca;" horiz-adv-x="557" 
d="M552 400v2q-16 6 -31 15.5t-29 22.5q-15 -4 -30 -6t-30 -2q-82 0 -137.5 38t-55.5 105t51 106t112 48q9 1 17 1.5t16 0.5q50 0 97 -18.5t84 -49.5q38 18 79.5 32t84.5 14q27 0 42.5 -11.5t15.5 -39.5q0 -11 -4 -22t-12 -22q-20 -32 -61.5 -62t-86.5 -53
q-43 -22 -82.5 -36t-61.5 -15q5 -16 15.5 -29t29.5 -13q2 0 6 0.5t8 1.5q5 1 11 1.5t12 0.5h2.5h2.5q13 -1 24 -5.5t11 -9.5q0 -7 -6 -10t-17 -3q-13 0 -22 2t-16 4t-11.5 4t-9.5 2q-20 0 -45.5 -8t-52.5 -24q-53 -32 -98 -92t-45 -142q0 -55 23 -84.5t69 -36.5
q-1 6 -2 12.5t-1 13.5q-1 3 -1 6.5v6.5q0 114 60 188t136 74q37 0 57 -26t20 -60q0 -71 -59.5 -132t-131.5 -84q-16 -6 -32 -8.5t-32 -2.5q0 -2 0.5 -4.5t0.5 -4.5l4 -22t5 -21q3 -16 6.5 -27t3.5 -14q0 -2 -1.5 -2.5t-3.5 -0.5q-1 0 -2 1t-2 3q-2 4 -4 13t-7 26l-2 6t-1 6
q-3 11 -5.5 22t-3.5 19q-68 0 -115 36.5t-47 108.5q0 87 67.5 149.5t148.5 91.5q19 7 38 11.5t37 7.5v0zM678 222q0 31 -16 50.5t-48 19.5q-10 0 -21 -3.5t-22 -9.5q-38 -21 -73 -70t-52 -104q-6 -19 -9.5 -38t-3.5 -37v-13t1 -11q15 -1 30.5 1.5t31.5 7.5q66 21 121 77
t61 119v5.5v5.5v0zM265 597q0 -69 53 -102t124 -33q8 0 17 0.5t18 1.5q-1 7 -1.5 14t-0.5 14q0 50 34.5 89t75.5 64q5 3 10.5 6t10.5 6q-37 29 -81.5 45.5t-91.5 16.5q-13 0 -28.5 -2.5t-31.5 -6.5q-40 -12 -74 -40.5t-34 -72.5v0zM826 665q0 17 -11 24.5t-35 7.5
q-11 0 -23.5 -2.5t-24.5 -6.5q-17 -6 -34 -14.5t-32 -17.5q-6 -4 -12 -7.5t-12 -7.5l1.5 -1.5l1.5 -1.5q0 -1 1 -1.5t1 -1.5q16 -17 29 -32t13 -16q0 -3 -1.5 -4.5t-3.5 -1.5h-0.5h-0.5q-4 2 -12.5 14t-38.5 40q-43 -31 -73.5 -73t-30.5 -94q22 3 46.5 9.5t48.5 16.5
q68 25 126.5 65t72.5 84q2 5 3 10.5t1 11.5v0zM752 912h14q5 -25 13.5 -48.5t17.5 -43.5q14 -30 25 -49t11 -21q0 -1 -0.5 -1.5t-1.5 -0.5q-6 0 -16.5 11.5t-21.5 26.5l-6 8l-6 8q-11 16 -20 30.5t-11 20.5l-12.5 -12.5l-13.5 -13.5q-5 -5 -10.5 -9.5t-11.5 -9.5
q-27 -24 -50.5 -42t-28.5 -18q-2 0 -3 0.5t-1 1.5q0 5 25.5 29t55.5 61q14 16 27.5 34.5t24.5 37.5v0z" />
    <glyph glyph-name="Aacute" unicode="&#xc1;" horiz-adv-x="1057" 
d="M1054 58l-22 -58h-72l28 62q-3 0 -6.5 0.5t-6.5 1.5q-51 8 -100 24.5t-89 46.5q-67 -59 -158 -99.5t-203 -40.5q-103 0 -179.5 55.5t-76.5 145.5q0 84 55 139t121 77q20 7 40 10.5t38 3.5q92 0 140.5 -46t48.5 -105q0 -70 -54 -113t-118 -52q-8 -1 -15.5 -1.5t-15.5 -0.5
q-31 0 -38.5 2t-7.5 7q0 3 1 4.5t5 1.5q2 0 4.5 -0.5t6.5 -0.5q3 -1 8 -1.5t11 -0.5q78 0 137.5 41.5t59.5 111.5q0 50 -38.5 82.5t-115.5 32.5q-11 0 -21.5 -1t-21.5 -3q-77 -14 -140.5 -69.5t-63.5 -136.5q0 -73 70 -122t154 -50h1.5h1.5q101 0 186 33.5t167 103.5
q-52 41 -88.5 94.5t-36.5 122.5q0 71 40.5 111t88.5 47q6 1 11.5 1.5t10.5 0.5q69 0 124.5 -43t83.5 -101q157 172 267.5 247.5t144.5 75.5q3 0 4 -2t1 -5q0 -4 -45 -56.5t-118 -171.5q-35 -57 -64.5 -113t-57.5 -112q-6 -13 -12.5 -26t-12.5 -26q-14 -29 -28.5 -58.5
t-29.5 -58.5q21 0 42.5 5t45.5 14q10 4 18.5 8t15.5 9q22 14 32.5 25.5t13.5 11.5q2 0 3.5 -1.5t1.5 -3.5q0 -3 -11 -14.5t-33 -25.5q-23 -14 -56 -26t-77 -14v0zM1024 233q0 10 -0.5 20t-1.5 21q-3 22 -7.5 42.5t-10.5 35.5q-19 -18 -36.5 -37t-35.5 -38q-1 0 -2 -1t-1 -2
q-32 -34 -64.5 -67t-68.5 -63q26 -20 57.5 -33.5t63.5 -22.5q19 -5 38 -8.5t37 -5.5q14 38 23 78t9 81v0zM1028 148l2 -2q63 145 152 278t204 243l-2 2q-30 -4 -118.5 -73t-188.5 -169q-16 -16 -31.5 -32t-31.5 -33q6 -15 10.5 -30.5t6.5 -30.5q3 -15 4 -30.5t1 -30.5
q0 -24 -2 -47t-6 -45v0zM688 342q0 -67 28.5 -113t67.5 -77q41 35 79 73t76 77q6 7 12.5 13.5l12.5 12.5q9 10 17.5 19t17.5 18q-27 50 -67 87t-102 37h-2.5h-3.5q-51 -2 -93.5 -37.5t-42.5 -109.5v0zM1501 912q9 0 14.5 -5t7.5 -10q0 -2 0.5 -3.5t0.5 -3.5q0 -12 -8 -26.5
t-20 -29.5q-9 -11 -19.5 -22t-21.5 -20q-21 -19 -39.5 -31.5t-25.5 -12.5h-1.5t-0.5 1q-2 0 -2.5 0.5t-0.5 2.5q0 4 10.5 11.5t23.5 19.5q6 5 11.5 11t9.5 13q3 4 5.5 8t4.5 9q7 13 10.5 26t6.5 24q4 17 10.5 27.5t23.5 10.5v0z" />
    <glyph glyph-name="Edieresis" unicode="&#xcb;" horiz-adv-x="557" 
d="M552 400v2q-16 6 -31 15.5t-29 22.5q-15 -4 -30 -6t-30 -2q-82 0 -137.5 38t-55.5 105t51 106t112 48q9 1 17 1.5t16 0.5q50 0 97 -18.5t84 -49.5q38 18 79.5 32t84.5 14q27 0 42.5 -11.5t15.5 -39.5q0 -11 -4 -22t-12 -22q-20 -32 -61.5 -62t-86.5 -53
q-43 -22 -82.5 -36t-61.5 -15q5 -16 15.5 -29t29.5 -13q2 0 6 0.5t8 1.5q5 1 11 1.5t12 0.5h2.5h2.5q13 -1 24 -5.5t11 -9.5q0 -7 -6 -10t-17 -3q-13 0 -22 2t-16 4t-11.5 4t-9.5 2q-20 0 -45.5 -8t-52.5 -24q-53 -32 -98 -92t-45 -142q0 -55 23 -84.5t69 -36.5
q-1 6 -2 12.5t-1 13.5q-1 3 -1 6.5v6.5q0 114 60 188t136 74q37 0 57 -26t20 -60q0 -71 -59.5 -132t-131.5 -84q-16 -6 -32 -8.5t-32 -2.5q0 -2 0.5 -4.5t0.5 -4.5l4 -22t5 -21q3 -16 6.5 -27t3.5 -14q0 -2 -1.5 -2.5t-3.5 -0.5q-1 0 -2 1t-2 3q-2 4 -4 13t-7 26l-2 6t-1 6
q-3 11 -5.5 22t-3.5 19q-68 0 -115 36.5t-47 108.5q0 87 67.5 149.5t148.5 91.5q19 7 38 11.5t37 7.5v0zM678 222q0 31 -16 50.5t-48 19.5q-10 0 -21 -3.5t-22 -9.5q-38 -21 -73 -70t-52 -104q-6 -19 -9.5 -38t-3.5 -37v-13t1 -11q15 -1 30.5 1.5t31.5 7.5q66 21 121 77
t61 119v5.5v5.5v0zM265 597q0 -69 53 -102t124 -33q8 0 17 0.5t18 1.5q-1 7 -1.5 14t-0.5 14q0 50 34.5 89t75.5 64q5 3 10.5 6t10.5 6q-37 29 -81.5 45.5t-91.5 16.5q-13 0 -28.5 -2.5t-31.5 -6.5q-40 -12 -74 -40.5t-34 -72.5v0zM826 665q0 17 -11 24.5t-35 7.5
q-11 0 -23.5 -2.5t-24.5 -6.5q-17 -6 -34 -14.5t-32 -17.5q-6 -4 -12 -7.5t-12 -7.5l1.5 -1.5l1.5 -1.5q0 -1 1 -1.5t1 -1.5q16 -17 29 -32t13 -16q0 -3 -1.5 -4.5t-3.5 -1.5h-0.5h-0.5q-4 2 -12.5 14t-38.5 40q-43 -31 -73.5 -73t-30.5 -94q22 3 46.5 9.5t48.5 16.5
q68 25 126.5 65t72.5 84q2 5 3 10.5t1 11.5v0zM674 862q14 0 21.5 -6.5t7.5 -18.5q0 -20 -9 -31.5t-30 -11.5q-12 0 -18.5 6t-6.5 22q0 17 8 28.5t27 11.5v0zM818 862q14 0 21.5 -6.5t7.5 -18.5q0 -20 -9 -31.5t-30 -11.5q-12 0 -18.5 6t-6.5 22q0 17 8 28.5t27 11.5v0z" />
    <glyph glyph-name="Egrave" unicode="&#xc8;" horiz-adv-x="557" 
d="M552 400v2q-16 6 -31 15.5t-29 22.5q-15 -4 -30 -6t-30 -2q-82 0 -137.5 38t-55.5 105t51 106t112 48q9 1 17 1.5t16 0.5q50 0 97 -18.5t84 -49.5q38 18 79.5 32t84.5 14q27 0 42.5 -11.5t15.5 -39.5q0 -11 -4 -22t-12 -22q-20 -32 -61.5 -62t-86.5 -53
q-43 -22 -82.5 -36t-61.5 -15q5 -16 15.5 -29t29.5 -13q2 0 6 0.5t8 1.5q5 1 11 1.5t12 0.5h2.5h2.5q13 -1 24 -5.5t11 -9.5q0 -7 -6 -10t-17 -3q-13 0 -22 2t-16 4t-11.5 4t-9.5 2q-20 0 -45.5 -8t-52.5 -24q-53 -32 -98 -92t-45 -142q0 -55 23 -84.5t69 -36.5
q-1 6 -2 12.5t-1 13.5q-1 3 -1 6.5v6.5q0 114 60 188t136 74q37 0 57 -26t20 -60q0 -71 -59.5 -132t-131.5 -84q-16 -6 -32 -8.5t-32 -2.5q0 -2 0.5 -4.5t0.5 -4.5l4 -22t5 -21q3 -16 6.5 -27t3.5 -14q0 -2 -1.5 -2.5t-3.5 -0.5q-1 0 -2 1t-2 3q-2 4 -4 13t-7 26l-2 6t-1 6
q-3 11 -5.5 22t-3.5 19q-68 0 -115 36.5t-47 108.5q0 87 67.5 149.5t148.5 91.5q19 7 38 11.5t37 7.5v0zM678 222q0 31 -16 50.5t-48 19.5q-10 0 -21 -3.5t-22 -9.5q-38 -21 -73 -70t-52 -104q-6 -19 -9.5 -38t-3.5 -37v-13t1 -11q15 -1 30.5 1.5t31.5 7.5q66 21 121 77
t61 119v5.5v5.5v0zM265 597q0 -69 53 -102t124 -33q8 0 17 0.5t18 1.5q-1 7 -1.5 14t-0.5 14q0 50 34.5 89t75.5 64q5 3 10.5 6t10.5 6q-37 29 -81.5 45.5t-91.5 16.5q-13 0 -28.5 -2.5t-31.5 -6.5q-40 -12 -74 -40.5t-34 -72.5v0zM826 665q0 17 -11 24.5t-35 7.5
q-11 0 -23.5 -2.5t-24.5 -6.5q-17 -6 -34 -14.5t-32 -17.5q-6 -4 -12 -7.5t-12 -7.5l1.5 -1.5l1.5 -1.5q0 -1 1 -1.5t1 -1.5q16 -17 29 -32t13 -16q0 -3 -1.5 -4.5t-3.5 -1.5h-0.5h-0.5q-4 2 -12.5 14t-38.5 40q-43 -31 -73.5 -73t-30.5 -94q22 3 46.5 9.5t48.5 16.5
q68 25 126.5 65t72.5 84q2 5 3 10.5t1 11.5v0zM644 912q16 0 22.5 -10.5t10.5 -27.5q3 -11 6.5 -24t10.5 -26q2 -5 4.5 -9t5.5 -8q5 -7 10 -13t11 -11q13 -12 23.5 -19.5t10.5 -11.5q0 -2 -0.5 -2.5t-2.5 -0.5q0 -1 -0.5 -1h-1.5q-7 0 -25.5 12.5t-39.5 31.5q-10 9 -20.5 20
t-19.5 22q-12 15 -20 29.5t-8 26.5q0 2 0.5 3.5t0.5 3.5q2 5 7.5 10t14.5 5v0z" />
    <glyph glyph-name="Iacute" unicode="&#xcd;" horiz-adv-x="779" 
d="M185 196q0 83 64 142t140 78q16 4 32 6t31 2h10t11 -1q66 -5 121.5 -43t55.5 -109t-61 -119t-150 -48h-5.5h-5.5q-22 2 -43 7.5t-38 11.5q-15 6 -24.5 11t-9.5 7q0 5 1.5 6t3.5 1q3 0 12.5 -5t24.5 -11q16 -6 37 -11t47 -5q87 0 143 44.5t56 108.5q0 60 -44 88.5
t-97 31.5q-5 1 -9.5 1h-8.5q-10 0 -19.5 -0.5t-19.5 -2.5q-86 -11 -157.5 -69.5t-71.5 -150.5q0 -69 51.5 -105.5t112.5 -48.5q18 -4 36 -5.5t34 -1.5q155 0 244 93.5t159 216.5q-46 4 -81 29.5t-35 77.5q0 95 82 152t180 86q70 21 133.5 29.5t98.5 8.5q2 0 3 -2t1 -4
l-0.5 -0.5t-1.5 -0.5q-6 -2 -36 -11t-80 -50q-46 -38 -79 -93.5t-63 -114.5l-4 -8t-4 -7q-10 -20 -20 -39.5t-21 -38.5q26 4 48 16t39 26q22 17 35 30.5t15 13.5t3 -1t1 -5q0 -5 -13 -18.5t-33 -28.5q-19 -14 -43 -26.5t-48 -18.5q-3 0 -5.5 -1t-5.5 -1q-3 -6 -6.5 -12
t-6.5 -12q-54 -97 -114.5 -158t-157.5 -102q-53 -22 -101.5 -29.5t-92.5 -7.5q-7 0 -15 0.5t-15 0.5q-83 7 -151.5 57.5t-68.5 142.5v0zM1168 680v2h-2t-2 1h-2h-2q-17 0 -72.5 -10t-119.5 -35q-74 -28 -136 -81t-62 -137q0 -36 17.5 -63t66.5 -29q7 13 14 26.5t15 26.5
q39 67 88 130t100 107q24 22 49 38t48 24v0zM1216 912q9 0 14.5 -5t7.5 -10q0 -2 0.5 -3.5t0.5 -3.5q0 -12 -8 -26.5t-20 -29.5q-9 -11 -19.5 -22t-20.5 -20q-21 -19 -39.5 -31.5t-25.5 -12.5h-1.5t-0.5 1q-2 0 -2.5 0.5t-0.5 2.5q0 4 10.5 11.5t23.5 19.5q6 5 11.5 11
t9.5 13q3 4 5.5 8t4.5 9q7 13 10.5 26t6.5 24q4 17 10.5 27.5t22.5 10.5v0z" />
    <glyph glyph-name="Icircumflex" unicode="&#xce;" horiz-adv-x="779" 
d="M185 196q0 83 64 142t140 78q16 4 32 6t31 2h10t11 -1q66 -5 121.5 -43t55.5 -109t-61 -119t-150 -48h-5.5h-5.5q-22 2 -43 7.5t-38 11.5q-15 6 -24.5 11t-9.5 7q0 5 1.5 6t3.5 1q3 0 12.5 -5t24.5 -11q16 -6 37 -11t47 -5q87 0 143 44.5t56 108.5q0 60 -44 88.5
t-97 31.5q-5 1 -9.5 1h-8.5q-10 0 -19.5 -0.5t-19.5 -2.5q-86 -11 -157.5 -69.5t-71.5 -150.5q0 -69 51.5 -105.5t112.5 -48.5q18 -4 36 -5.5t34 -1.5q155 0 244 93.5t159 216.5q-46 4 -81 29.5t-35 77.5q0 95 82 152t180 86q70 21 133.5 29.5t98.5 8.5q2 0 3 -2t1 -4
l-0.5 -0.5t-1.5 -0.5q-6 -2 -36 -11t-80 -50q-46 -38 -79 -93.5t-63 -114.5l-4 -8t-4 -7q-10 -20 -20 -39.5t-21 -38.5q26 4 48 16t39 26q22 17 35 30.5t15 13.5t3 -1t1 -5q0 -5 -13 -18.5t-33 -28.5q-19 -14 -43 -26.5t-48 -18.5q-3 0 -5.5 -1t-5.5 -1q-3 -6 -6.5 -12
t-6.5 -12q-54 -97 -114.5 -158t-157.5 -102q-53 -22 -101.5 -29.5t-92.5 -7.5q-7 0 -15 0.5t-15 0.5q-83 7 -151.5 57.5t-68.5 142.5v0zM1168 680v2h-2t-2 1h-2h-2q-17 0 -72.5 -10t-119.5 -35q-74 -28 -136 -81t-62 -137q0 -36 17.5 -63t66.5 -29q7 13 14 26.5t15 26.5
q39 67 88 130t100 107q24 22 49 38t48 24v0zM1158 912h14q5 -25 13.5 -48.5t17.5 -43.5q14 -30 25 -49t11 -21q0 -1 -0.5 -1.5t-1.5 -0.5q-6 0 -16.5 11.5t-21.5 26.5l-6 8l-6 8q-11 16 -20 30.5t-11 20.5l-12.5 -12.5l-13.5 -13.5q-5 -5 -10.5 -9.5t-11.5 -9.5
q-27 -24 -50.5 -42t-28.5 -18q-2 0 -3 0.5t-1 1.5q0 5 25.5 29t55.5 61q14 16 27.5 34.5t24.5 37.5v0z" />
    <glyph glyph-name="Idieresis" unicode="&#xcf;" horiz-adv-x="779" 
d="M185 196q0 83 64 142t140 78q16 4 32 6t31 2h10t11 -1q66 -5 121.5 -43t55.5 -109t-61 -119t-150 -48h-5.5h-5.5q-22 2 -43 7.5t-38 11.5q-15 6 -24.5 11t-9.5 7q0 5 1.5 6t3.5 1q3 0 12.5 -5t24.5 -11q16 -6 37 -11t47 -5q87 0 143 44.5t56 108.5q0 60 -44 88.5
t-97 31.5q-5 1 -9.5 1h-8.5q-10 0 -19.5 -0.5t-19.5 -2.5q-86 -11 -157.5 -69.5t-71.5 -150.5q0 -69 51.5 -105.5t112.5 -48.5q18 -4 36 -5.5t34 -1.5q155 0 244 93.5t159 216.5q-46 4 -81 29.5t-35 77.5q0 95 82 152t180 86q70 21 133.5 29.5t98.5 8.5q2 0 3 -2t1 -4
l-0.5 -0.5t-1.5 -0.5q-6 -2 -36 -11t-80 -50q-46 -38 -79 -93.5t-63 -114.5l-4 -8t-4 -7q-10 -20 -20 -39.5t-21 -38.5q26 4 48 16t39 26q22 17 35 30.5t15 13.5t3 -1t1 -5q0 -5 -13 -18.5t-33 -28.5q-19 -14 -43 -26.5t-48 -18.5q-3 0 -5.5 -1t-5.5 -1q-3 -6 -6.5 -12
t-6.5 -12q-54 -97 -114.5 -158t-157.5 -102q-53 -22 -101.5 -29.5t-92.5 -7.5q-7 0 -15 0.5t-15 0.5q-83 7 -151.5 57.5t-68.5 142.5v0zM1168 680v2h-2t-2 1h-2h-2q-17 0 -72.5 -10t-119.5 -35q-74 -28 -136 -81t-62 -137q0 -36 17.5 -63t66.5 -29q7 13 14 26.5t15 26.5
q39 67 88 130t100 107q24 22 49 38t48 24v0zM1080 862q14 0 21.5 -6.5t7.5 -18.5q0 -20 -9 -31.5t-30 -11.5q-12 0 -18.5 6t-6.5 22q0 17 8 28.5t27 11.5v0zM1224 862q14 0 21.5 -6.5t7.5 -18.5q0 -20 -9 -31.5t-30 -11.5q-12 0 -18.5 6t-6.5 22q0 17 8 28.5t27 11.5v0z" />
    <glyph glyph-name="Igrave" unicode="&#xcc;" horiz-adv-x="779" 
d="M185 196q0 83 64 142t140 78q16 4 32 6t31 2h10t11 -1q66 -5 121.5 -43t55.5 -109t-61 -119t-150 -48h-5.5h-5.5q-22 2 -43 7.5t-38 11.5q-15 6 -24.5 11t-9.5 7q0 5 1.5 6t3.5 1q3 0 12.5 -5t24.5 -11q16 -6 37 -11t47 -5q87 0 143 44.5t56 108.5q0 60 -44 88.5
t-97 31.5q-5 1 -9.5 1h-8.5q-10 0 -19.5 -0.5t-19.5 -2.5q-86 -11 -157.5 -69.5t-71.5 -150.5q0 -69 51.5 -105.5t112.5 -48.5q18 -4 36 -5.5t34 -1.5q155 0 244 93.5t159 216.5q-46 4 -81 29.5t-35 77.5q0 95 82 152t180 86q70 21 133.5 29.5t98.5 8.5q2 0 3 -2t1 -4
l-0.5 -0.5t-1.5 -0.5q-6 -2 -36 -11t-80 -50q-46 -38 -79 -93.5t-63 -114.5l-4 -8t-4 -7q-10 -20 -20 -39.5t-21 -38.5q26 4 48 16t39 26q22 17 35 30.5t15 13.5t3 -1t1 -5q0 -5 -13 -18.5t-33 -28.5q-19 -14 -43 -26.5t-48 -18.5q-3 0 -5.5 -1t-5.5 -1q-3 -6 -6.5 -12
t-6.5 -12q-54 -97 -114.5 -158t-157.5 -102q-53 -22 -101.5 -29.5t-92.5 -7.5q-7 0 -15 0.5t-15 0.5q-83 7 -151.5 57.5t-68.5 142.5v0zM1168 680v2h-2t-2 1h-2h-2q-17 0 -72.5 -10t-119.5 -35q-74 -28 -136 -81t-62 -137q0 -36 17.5 -63t66.5 -29q7 13 14 26.5t15 26.5
q39 67 88 130t100 107q24 22 49 38t48 24v0zM1050 912q16 0 22.5 -10.5t10.5 -27.5q3 -11 6.5 -24t10.5 -26q2 -5 4.5 -9t5.5 -8q5 -7 10 -13t11 -11q13 -12 23.5 -19.5t10.5 -11.5q0 -2 -0.5 -2.5t-2.5 -0.5q0 -1 -0.5 -1h-1.5q-7 0 -25.5 12.5t-39.5 31.5q-10 9 -20.5 20
t-19.5 22q-12 15 -20 29.5t-8 26.5q0 2 0.5 3.5t0.5 3.5q2 5 7.5 10t14.5 5v0z" />
    <glyph glyph-name="Oacute" unicode="&#xd3;" horiz-adv-x="779" 
d="M974 457q0 -34 -8.5 -71.5t-24.5 -74.5q-51 -121 -161.5 -221.5t-235.5 -100.5q-79 0 -115 54.5t-40 120.5v8v8q0 19 2.5 38t6.5 38q26 107 108.5 207t179.5 164q-19 7 -40 10.5t-44 3.5q-117 0 -193.5 -86.5t-85.5 -189.5v-1.5v-1.5q-1 -10 -2.5 -13t-3.5 -3t-3.5 1.5
t-2.5 3.5v1.5v0.5q0 3 5.5 43t32.5 92q35 66 102 115.5t152 49.5q26 0 50 -4.5t45 -12.5q7 5 14 9l14 8q47 26 92 41t84 15q58 0 91 -30.5t33 -88.5q0 -3 -0.5 -10t-1.5 -15q-2 -10 -4.5 -18t-6.5 -8q-2 0 -2.5 2t-0.5 5q0 2 0.5 7.5t1.5 12.5v2.5t1 2.5q0 6 0.5 11.5
t0.5 9.5q0 53 -31 79t-81 26q-37 0 -77 -14t-81 -39q-7 -4 -13.5 -8.5t-13.5 -9.5q17 -7 32 -16.5t28 -21.5q20 11 38.5 16t34.5 5q56 0 90 -40t34 -112v0zM447 136q0 -58 25 -97t80 -39q23 0 46.5 5t47.5 15q97 38 183 134.5t118 204.5q7 24 11 48.5t4 47.5
q0 71 -29.5 106.5t-82.5 35.5q-16 0 -32 -4.5t-33 -12.5q30 -29 48 -67t23 -78q1 -8 1.5 -16t0.5 -16q0 -14 -2 -28t-6 -29q-17 -63 -65 -115.5t-115 -52.5q-40 0 -68 25t-28 68q0 96 51 173.5t112 120.5q8 5 15 9.5t14 8.5q-12 11 -27 20.5t-32 14.5q-99 -73 -176.5 -200
t-83.5 -264v-8.5v-9.5v0zM586 277q0 -37 18 -60t57 -23q58 0 96.5 49t56.5 107q7 23 10.5 45.5t3.5 42.5q0 41 -14 75.5t-40 61.5q-1 -1 -2.5 -1.5t-3.5 -1.5q-66 -36 -121.5 -115t-60.5 -167v-6.5v-6.5v0zM979 912q9 0 14.5 -5t7.5 -10q0 -2 0.5 -3.5t0.5 -3.5
q0 -12 -8 -26.5t-20 -29.5q-9 -11 -19.5 -22t-20.5 -20q-21 -19 -39.5 -31.5t-25.5 -12.5h-1.5t-0.5 1q-2 0 -2.5 0.5t-0.5 2.5q0 4 10.5 11.5t23.5 19.5q6 5 11.5 11t9.5 13q3 4 5.5 8t4.5 9q7 13 10.5 26t6.5 24q4 17 10.5 27.5t22.5 10.5v0z" />
    <glyph glyph-name="Ocircumflex" unicode="&#xd4;" horiz-adv-x="779" 
d="M974 457q0 -34 -8.5 -71.5t-24.5 -74.5q-51 -121 -161.5 -221.5t-235.5 -100.5q-79 0 -115 54.5t-40 120.5v8v8q0 19 2.5 38t6.5 38q26 107 108.5 207t179.5 164q-19 7 -40 10.5t-44 3.5q-117 0 -193.5 -86.5t-85.5 -189.5v-1.5v-1.5q-1 -10 -2.5 -13t-3.5 -3t-3.5 1.5
t-2.5 3.5v1.5v0.5q0 3 5.5 43t32.5 92q35 66 102 115.5t152 49.5q26 0 50 -4.5t45 -12.5q7 5 14 9l14 8q47 26 92 41t84 15q58 0 91 -30.5t33 -88.5q0 -3 -0.5 -10t-1.5 -15q-2 -10 -4.5 -18t-6.5 -8q-2 0 -2.5 2t-0.5 5q0 2 0.5 7.5t1.5 12.5v2.5t1 2.5q0 6 0.5 11.5
t0.5 9.5q0 53 -31 79t-81 26q-37 0 -77 -14t-81 -39q-7 -4 -13.5 -8.5t-13.5 -9.5q17 -7 32 -16.5t28 -21.5q20 11 38.5 16t34.5 5q56 0 90 -40t34 -112v0zM447 136q0 -58 25 -97t80 -39q23 0 46.5 5t47.5 15q97 38 183 134.5t118 204.5q7 24 11 48.5t4 47.5
q0 71 -29.5 106.5t-82.5 35.5q-16 0 -32 -4.5t-33 -12.5q30 -29 48 -67t23 -78q1 -8 1.5 -16t0.5 -16q0 -14 -2 -28t-6 -29q-17 -63 -65 -115.5t-115 -52.5q-40 0 -68 25t-28 68q0 96 51 173.5t112 120.5q8 5 15 9.5t14 8.5q-12 11 -27 20.5t-32 14.5q-99 -73 -176.5 -200
t-83.5 -264v-8.5v-9.5v0zM586 277q0 -37 18 -60t57 -23q58 0 96.5 49t56.5 107q7 23 10.5 45.5t3.5 42.5q0 41 -14 75.5t-40 61.5q-1 -1 -2.5 -1.5t-3.5 -1.5q-66 -36 -121.5 -115t-60.5 -167v-6.5v-6.5v0zM921 912h14q5 -25 13.5 -48.5t17.5 -43.5q14 -30 25 -49t11 -21
q0 -1 -0.5 -1.5t-1.5 -0.5q-6 0 -16.5 11.5t-21.5 26.5l-6 8l-6 8q-11 16 -20 30.5t-11 20.5l-12.5 -12.5l-13.5 -13.5q-5 -5 -10.5 -9.5t-11.5 -9.5q-27 -24 -50.5 -42t-28.5 -18q-2 0 -3 0.5t-1 1.5q0 5 25.5 29t55.5 61q14 16 27.5 34.5t24.5 37.5v0z" />
    <glyph glyph-name="Ograve" unicode="&#xd2;" horiz-adv-x="194" 
 />
    <glyph glyph-name="Uacute" unicode="&#xda;" horiz-adv-x="834" 
d="M1156 684l50 3l-200 -313q-6 -9 -11.5 -17.5t-11.5 -17.5q-4 -7 -9 -14l-10 -14q-58 -88 -106.5 -165t-47.5 -114q0 -10 5.5 -18t16.5 -8q20 0 45 18t55 46q38 35 54.5 57t20.5 22q3 0 4.5 -1t2.5 -2v-1.5v-0.5q0 -1 -13 -16.5t-30 -33.5v-0.5t-1 -0.5q-3 -4 -6 -7.5
t-6 -6.5q-6 -7 -13.5 -14.5t-16.5 -14.5q-8 -7 -17 -14.5t-18 -13.5q-16 -12 -32.5 -19.5t-27.5 -7.5q-23 0 -33 15t-10 43q0 33 7 60t19 54q3 8 7.5 17t8.5 18l-2 2q-12 -17 -34 -41.5t-49 -50.5q-16 -16 -34.5 -32t-36.5 -30q-32 -24 -62.5 -39.5t-54.5 -15.5
q-22 0 -37.5 16.5t-15.5 45.5q0 52 30.5 112t72.5 122l18 26l18 26q52 75 95.5 143t43.5 118q0 40 -28 60t-62 23h-4.5h-5.5q-11 0 -22.5 -1t-23.5 -3q22 -18 31 -44t9 -55q0 -13 -1.5 -26t-5.5 -27q-20 -80 -90 -147.5t-158 -67.5q-47 0 -69.5 28t-22.5 69q0 5 0.5 9.5
t0.5 9.5q10 80 88.5 151.5t169.5 99.5q5 2 9 3l8 2q-15 8 -35 12.5t-46 4.5q-113 0 -210 -102.5t-111 -245.5v-2v-2q-1 -5 -2 -7t-4 -2q-4 0 -5 4t-1 10q0 11 5 35t13 51q4 10 7.5 20t7.5 19q41 91 121.5 162.5t178.5 71.5q32 0 56.5 -6.5t42.5 -17.5q14 3 27 4.5t26 1.5
q65 0 100.5 -32t35.5 -99q0 -46 -23.5 -99t-58.5 -108q-13 -21 -27.5 -42t-29.5 -42q-52 -74 -95.5 -138t-43.5 -105q0 -16 6 -22t22 -6q29 0 93 44t134 122q25 28 49 59t47 66q163 249 203.5 314.5t56.5 70.5q2 1 4.5 1.5t4.5 0.5v0zM658 603q0 23 -9 43t-29 33
q-89 -19 -164.5 -79t-101.5 -128q-6 -14 -8.5 -27.5t-2.5 -26.5q0 -36 18.5 -61t52.5 -25q17 0 35 5.5t36 14.5q49 26 93 76t65 104q7 18 11 36t4 35v0zM1070 912q9 0 14.5 -5t7.5 -10q0 -2 0.5 -3.5t0.5 -3.5q0 -12 -8 -26.5t-20 -29.5q-9 -11 -19.5 -22t-20.5 -20
q-21 -19 -39.5 -31.5t-25.5 -12.5h-1.5t-0.5 1q-2 0 -2.5 0.5t-0.5 2.5q0 4 10.5 11.5t23.5 19.5q6 5 11.5 11t9.5 13q3 4 5.5 8t4.5 9q7 13 10.5 26t6.5 24q4 17 10.5 27.5t22.5 10.5v0z" />
    <glyph glyph-name="Ucircumflex" unicode="&#xdb;" horiz-adv-x="834" 
d="M1156 684l50 3l-200 -313q-6 -9 -11.5 -17.5t-11.5 -17.5q-4 -7 -9 -14l-10 -14q-58 -88 -106.5 -165t-47.5 -114q0 -10 5.5 -18t16.5 -8q20 0 45 18t55 46q38 35 54.5 57t20.5 22q3 0 4.5 -1t2.5 -2v-1.5v-0.5q0 -1 -13 -16.5t-30 -33.5v-0.5t-1 -0.5q-3 -4 -6 -7.5
t-6 -6.5q-6 -7 -13.5 -14.5t-16.5 -14.5q-8 -7 -17 -14.5t-18 -13.5q-16 -12 -32.5 -19.5t-27.5 -7.5q-23 0 -33 15t-10 43q0 33 7 60t19 54q3 8 7.5 17t8.5 18l-2 2q-12 -17 -34 -41.5t-49 -50.5q-16 -16 -34.5 -32t-36.5 -30q-32 -24 -62.5 -39.5t-54.5 -15.5
q-22 0 -37.5 16.5t-15.5 45.5q0 52 30.5 112t72.5 122l18 26l18 26q52 75 95.5 143t43.5 118q0 40 -28 60t-62 23h-4.5h-5.5q-11 0 -22.5 -1t-23.5 -3q22 -18 31 -44t9 -55q0 -13 -1.5 -26t-5.5 -27q-20 -80 -90 -147.5t-158 -67.5q-47 0 -69.5 28t-22.5 69q0 5 0.5 9.5
t0.5 9.5q10 80 88.5 151.5t169.5 99.5q5 2 9 3l8 2q-15 8 -35 12.5t-46 4.5q-113 0 -210 -102.5t-111 -245.5v-2v-2q-1 -5 -2 -7t-4 -2q-4 0 -5 4t-1 10q0 11 5 35t13 51q4 10 7.5 20t7.5 19q41 91 121.5 162.5t178.5 71.5q32 0 56.5 -6.5t42.5 -17.5q14 3 27 4.5t26 1.5
q65 0 100.5 -32t35.5 -99q0 -46 -23.5 -99t-58.5 -108q-13 -21 -27.5 -42t-29.5 -42q-52 -74 -95.5 -138t-43.5 -105q0 -16 6 -22t22 -6q29 0 93 44t134 122q25 28 49 59t47 66q163 249 203.5 314.5t56.5 70.5q2 1 4.5 1.5t4.5 0.5v0zM658 603q0 23 -9 43t-29 33
q-89 -19 -164.5 -79t-101.5 -128q-6 -14 -8.5 -27.5t-2.5 -26.5q0 -36 18.5 -61t52.5 -25q17 0 35 5.5t36 14.5q49 26 93 76t65 104q7 18 11 36t4 35v0zM1012 912h14q5 -25 13.5 -48.5t17.5 -43.5q14 -30 25 -49t11 -21q0 -1 -0.5 -1.5t-1.5 -0.5q-6 0 -16.5 11.5
t-21.5 26.5l-6 8l-6 8q-11 16 -20 30.5t-11 20.5l-12.5 -12.5l-13.5 -13.5q-5 -5 -10.5 -9.5t-11.5 -9.5q-27 -24 -50.5 -42t-28.5 -18q-2 0 -3 0.5t-1 1.5q0 5 25.5 29t55.5 61q14 16 27.5 34.5t24.5 37.5v0z" />
    <glyph glyph-name="Ugrave" unicode="&#xd9;" horiz-adv-x="834" 
d="M1156 684l50 3l-200 -313q-6 -9 -11.5 -17.5t-11.5 -17.5q-4 -7 -9 -14l-10 -14q-58 -88 -106.5 -165t-47.5 -114q0 -10 5.5 -18t16.5 -8q20 0 45 18t55 46q38 35 54.5 57t20.5 22q3 0 4.5 -1t2.5 -2v-1.5v-0.5q0 -1 -13 -16.5t-30 -33.5v-0.5t-1 -0.5q-3 -4 -6 -7.5
t-6 -6.5q-6 -7 -13.5 -14.5t-16.5 -14.5q-8 -7 -17 -14.5t-18 -13.5q-16 -12 -32.5 -19.5t-27.5 -7.5q-23 0 -33 15t-10 43q0 33 7 60t19 54q3 8 7.5 17t8.5 18l-2 2q-12 -17 -34 -41.5t-49 -50.5q-16 -16 -34.5 -32t-36.5 -30q-32 -24 -62.5 -39.5t-54.5 -15.5
q-22 0 -37.5 16.5t-15.5 45.5q0 52 30.5 112t72.5 122l18 26l18 26q52 75 95.5 143t43.5 118q0 40 -28 60t-62 23h-4.5h-5.5q-11 0 -22.5 -1t-23.5 -3q22 -18 31 -44t9 -55q0 -13 -1.5 -26t-5.5 -27q-20 -80 -90 -147.5t-158 -67.5q-47 0 -69.5 28t-22.5 69q0 5 0.5 9.5
t0.5 9.5q10 80 88.5 151.5t169.5 99.5q5 2 9 3l8 2q-15 8 -35 12.5t-46 4.5q-113 0 -210 -102.5t-111 -245.5v-2v-2q-1 -5 -2 -7t-4 -2q-4 0 -5 4t-1 10q0 11 5 35t13 51q4 10 7.5 20t7.5 19q41 91 121.5 162.5t178.5 71.5q32 0 56.5 -6.5t42.5 -17.5q14 3 27 4.5t26 1.5
q65 0 100.5 -32t35.5 -99q0 -46 -23.5 -99t-58.5 -108q-13 -21 -27.5 -42t-29.5 -42q-52 -74 -95.5 -138t-43.5 -105q0 -16 6 -22t22 -6q29 0 93 44t134 122q25 28 49 59t47 66q163 249 203.5 314.5t56.5 70.5q2 1 4.5 1.5t4.5 0.5v0zM658 603q0 23 -9 43t-29 33
q-89 -19 -164.5 -79t-101.5 -128q-6 -14 -8.5 -27.5t-2.5 -26.5q0 -36 18.5 -61t52.5 -25q17 0 35 5.5t36 14.5q49 26 93 76t65 104q7 18 11 36t4 35v0zM904 912q16 0 22.5 -10.5t10.5 -27.5q3 -11 6.5 -24t10.5 -26q2 -5 4.5 -9t5.5 -8q5 -7 10 -13t11 -11
q13 -12 23.5 -19.5t10.5 -11.5q0 -2 -0.5 -2.5t-2.5 -0.5q0 -1 -0.5 -1h-1.5q-7 0 -25.5 12.5t-39.5 31.5q-10 9 -20.5 20t-19.5 22q-12 15 -20 29.5t-8 26.5q0 2 0.5 3.5t0.5 3.5q2 5 7.5 10t14.5 5v0z" />
    <glyph glyph-name="circumflex" unicode="&#x2dc;" horiz-adv-x="222" 
d="M364 492h14q5 -25 13.5 -48.5t17.5 -43.5q14 -30 25 -49t11 -21q0 -1 -0.5 -1.5t-1.5 -0.5q-6 0 -16.5 11.5t-21.5 26.5l-6 8l-6 8q-11 16 -20 30.5t-11 20.5l-12.5 -12.5l-13.5 -13.5q-5 -5 -10.5 -9.5t-11.5 -9.5q-27 -24 -50.5 -42t-28.5 -18q-2 0 -3 0.5t-1 1.5
q0 5 25.5 29t55.5 61q14 16 27.5 34.5t24.5 37.5v0z" />
    <glyph glyph-name="tilde" unicode="&#x2c6;" horiz-adv-x="222" 
d="M288 449q17 0 35 -5.5t37 -12.5t37 -12.5t33 -5.5q18 0 27.5 7t14.5 16q3 4 5 9t4 8q2 2 3 3.5t3 1.5t3 -2t1 -5t-3 -13.5t-10 -22.5q-8 -15 -24 -26.5t-41 -11.5q-16 0 -33.5 5t-34.5 12t-33.5 12t-32.5 5q-15 0 -24 -6.5t-15 -14.5q-5 -7 -8 -12.5t-6 -8.5
q-1 0 -1.5 -0.5t-1.5 -0.5q-2 0 -3 2t-1 5t4 13.5t11 23.5q9 14 22.5 25.5t31.5 11.5v0z" />
    <glyph glyph-name="cedilla" unicode="&#xb8;" horiz-adv-x="222" 
d="M202 10l-27 -62h16q41 1 62.5 -12.5t21.5 -38.5q0 -33 -36.5 -53t-100.5 -20q-40 0 -49.5 2.5t-9.5 5.5q0 2 1.5 4t4.5 2h0.5h0.5q2 0 3.5 -0.5t3.5 -0.5q3 0 6.5 -0.5t8.5 -0.5q50 0 87.5 12.5t37.5 45.5q0 16 -11 25.5t-35 9.5l-35 -1l39 82h11v0z" />
    <glyph glyph-name="Scaron" unicode="&#x160;" horiz-adv-x="500" 
 />
    <glyph glyph-name="scaron" unicode="&#x161;" horiz-adv-x="500" 
 />
    <glyph glyph-name="Zcaron" unicode="&#x17d;" horiz-adv-x="500" 
 />
    <glyph glyph-name="zcaron" unicode="&#x17e;" horiz-adv-x="500" 
 />
    <glyph glyph-name="brokenbar" unicode="&#xa6;" horiz-adv-x="500" 
 />
    <glyph glyph-name="Eth" unicode="&#xd0;" horiz-adv-x="890" 
d="M728 300h-140l6 16h143q41 74 78 129.5t74 96.5q18 21 36 39t37 33q-17 18 -41 31.5t-50 23.5q-25 9 -49.5 13.5t-41.5 4.5h-25.5t-20.5 -2q-6 0 -12.5 -1.5t-14.5 -3.5q15 -14 25 -34t15 -41q2 -11 3.5 -22.5t1.5 -21.5q0 -85 -64 -149t-153 -64q-54 0 -78.5 27.5
t-24.5 66.5q0 77 64 138t140 91q12 4 23.5 8t23.5 7q-15 12 -35.5 17.5t-41.5 7.5h-7.5h-7.5q-64 0 -114 -32t-82 -78q-37 -53 -47.5 -99.5t-15.5 -65.5q-2 -5 -3.5 -8t-3.5 -3t-3 1.5t-1 4.5q2 4 8 40.5t25 80.5q4 9 9 18.5t11 18.5q43 67 100 100.5t118 33.5h8.5t8.5 -1
q24 -2 46.5 -10t40.5 -22q20 5 40.5 7t41.5 2q19 0 46.5 -5.5t56.5 -16.5q24 -10 47.5 -23.5t42.5 -31.5q9 7 19.5 14.5t20.5 14.5q31 20 57.5 34t28.5 14t3.5 -2.5t1.5 -6.5t-34 -20t-75 -55l-4 -4l-4 -4q35 -38 53 -86.5t20 -98.5v-5.5v-5.5q0 -209 -155.5 -312.5
t-346.5 -103.5q-10 0 -20 1t-21 2q-10 1 -20 1.5t-21 0.5q-13 0 -26 -0.5t-26 -1.5t-25.5 -2t-25.5 -1q-57 0 -84.5 7.5t-27.5 24.5q0 10 10.5 13.5t31.5 3.5q26 0 49 -3.5t44 -8.5q7 -2 15 -3.5t16 -2.5q12 -3 25 -4.5t27 -1.5q62 0 117 70t103 154q8 14 15.5 28t15.5 28v0
zM804 316h162l-6 -16h-165q-2 -4 -4.5 -8.5t-5.5 -9.5q-12 -20 -26 -41t-30 -43q-47 -61 -109 -115.5t-131 -72.5v-2h2h2h18.5t21.5 -1q9 0 19.5 -0.5t23.5 -0.5q182 0 326 105.5t144 294.5q0 11 -0.5 22.5t-2.5 22.5q-5 41 -21 80t-45 68q-40 -46 -71 -98.5t-60 -106.5
q-3 -7 -6.5 -13.5t-7.5 -13.5q-7 -13 -14 -25.5t-14 -25.5v0zM482 440q0 -40 15 -60t39 -20q83 0 143.5 59t60.5 137q0 7 -0.5 14t-1.5 15q-4 25 -14.5 49.5t-28.5 42.5q-61 -21 -108.5 -61.5t-74.5 -84.5q-14 -24 -22 -47.5t-8 -43.5v0z" />
    <glyph glyph-name="eth" unicode="&#xf0;" horiz-adv-x="333" 
d="M429 460l137 52h0.5t1.5 1h1.5h1.5q2 0 3 -1.5t1 -3.5q0 -3 -0.5 -5t-2.5 -4l-140 -52q8 -28 13 -61.5t6 -71.5q0 -16 -0.5 -32t-2.5 -33q-5 -48 -20.5 -93t-42.5 -72q2 -1 4.5 -1.5t6.5 -0.5q26 0 50 13.5t43 35.5q9 10 12 13t5 4h0.5h0.5q3 0 4 -1.5t1 -3.5
q0 -1 -4 -6.5t-22 -23.5q-19 -19 -44.5 -31t-54.5 -12h-8t-5 1l-1.5 -1.5l-1.5 -1.5q-23 -25 -53.5 -46.5t-71.5 -21.5q-30 0 -46 24.5t-16 64.5q0 14 1 22.5t2 14.5q0 6 1 9.5t1 5.5q0 3 -0.5 4.5t-2.5 1.5q-3 0 -6 -2.5t-5 -5.5t-4 -5.5t-3 -2.5q-2 0 -4 1.5t-2 3.5
q0 3 11 15t25 26q1 1 2 2.5t3 2.5l8.5 8.5l8.5 8.5q7 7 14 12.5t14 11.5q37 28 72.5 41.5t63.5 13.5q14 0 26.5 -5.5t19.5 -19.5h2q0 3 0.5 6t0.5 6v2v2q1 8 1.5 17.5t0.5 23.5q0 36 -4 69.5t-12 62.5l-129 -49h-0.5h-1.5q-1 -1 -1.5 -1h-1.5t-2.5 1.5t-1.5 3.5q0 3 1 5t2 3
l132 50q-10 43 -26 77t-36 59q0 1 -0.5 1.5t-1.5 0.5q-1 1 -1.5 2.5t-0.5 2.5q0 2 2 3.5t5 1.5q2 0 3.5 -1.5l3.5 -3.5q0 -1 0.5 -1.5l0.5 -0.5l6 -8t7 -9q14 -21 27.5 -51t23.5 -68v0zM224 49q0 -21 8 -29t18 -8q8 0 16 1.5t15 4.5q42 14 79 57.5t53 92.5q4 14 6.5 27
t2.5 26q0 18 -8 31.5t-27 13.5q-10 0 -21 -3.5t-22 -10.5q-30 -18 -57.5 -53.5t-44.5 -74.5q-8 -20 -13 -39t-5 -36v0z" />
    <glyph glyph-name="Yacute" unicode="&#xdd;" horiz-adv-x="194" 
 />
    <glyph glyph-name="yacute" unicode="&#xfd;" horiz-adv-x="194" 
 />
    <glyph glyph-name="Thorn" unicode="&#xde;" horiz-adv-x="779" 
d="M978 397q0 50 -30 83t-69 50q-3 -4 -6 -9t-6 -9q-29 -48 -59.5 -104.5t-65.5 -117.5q-67 -117 -171 -206t-220 -89q-46 0 -82 19t-36 62q0 17 9.5 29.5t27.5 12.5q17 0 29 -10.5t12 -27.5q0 -7 -1.5 -12t-3.5 -8q-1 -3 -2 -5l-2 -4q0 -1 -0.5 -2.5t-0.5 -3.5
q0 -16 15 -27.5t49 -11.5q93 0 161.5 69.5t117.5 153.5q22 36 40 71t34 64q13 24 28 49t34 51q14 20 30.5 40t34.5 40q-8 4 -17 6.5t-18 4.5q-18 4 -34 5t-28 1q-35 0 -59.5 -4t-43.5 -9q-3 0 -5.5 -0.5t-4.5 -1.5q19 -21 27.5 -46.5t8.5 -51.5q0 -8 -1 -17t-2 -17
q-15 -80 -83.5 -146t-153.5 -66q-36 0 -62 22t-26 66q0 69 57 129t125 96q23 12 45 21t42 14q-2 1 -3.5 2t-2.5 2q-19 11 -39 16t-46 5h-6.5h-7.5q-42 -3 -82 -22.5t-66 -47.5q-48 -51 -59 -79t-15 -33q0 -1 -0.5 -1.5t-1.5 -0.5q-3 0 -4.5 2t-1.5 4q0 5 13 33t41 62
q30 35 78.5 65t116.5 30h7.5t7.5 -1q27 -2 51 -11.5t34 -20.5q19 6 43.5 11t50.5 7q7 0 14.5 0.5t14.5 0.5q33 0 61.5 -4.5t46.5 -10.5q28 29 58 53.5t63 45.5q2 1 4 2.5t4 2.5q19 12 34.5 21.5t17.5 9.5t3 -1.5t1 -3.5q0 -3 -13.5 -11.5t-31.5 -21.5q-4 -3 -8 -5.5t-8 -5.5
q-29 -23 -50 -46.5t-40 -50.5q65 -24 103 -74t38 -112q0 -66 -52 -115t-115 -62q-10 -2 -19.5 -3t-18.5 -1q-4 0 -8 0.5t-7 1.5q-13 2 -24.5 7t-20.5 10q-10 6 -15.5 11t-5.5 7t1.5 3.5t4.5 1.5q2 0 7 -4t13 -9t18.5 -9t23.5 -4q62 0 103.5 48t54.5 106q3 12 4.5 24t1.5 23
v0zM355 292q0 -37 18.5 -57.5t49.5 -20.5q7 0 14.5 1t15.5 2q66 14 123 77t67 136q1 7 1.5 13.5t0.5 12.5q0 30 -7 51.5t-18 34.5q-93 -26 -166.5 -86t-92.5 -126q-3 -10 -4.5 -19.5t-1.5 -18.5v0z" />
    <glyph glyph-name="thorn" unicode="&#xfe;" 
d="M489 597l53 6l-305 -510l2 -2q11 14 31 37.5t44 49.5q12 13 24.5 25t24.5 23q25 22 48.5 37t42.5 15q20 0 28.5 -15.5t8.5 -36.5q0 -19 -11 -40t-27 -43q-4 -5 -7.5 -10.5t-7.5 -10.5q-21 -27 -37.5 -51.5t-16.5 -44.5q0 -7 4.5 -10.5t11.5 -3.5q16 0 43 17t74 69
q29 32 36 41t9 10h1v0q2 0 3 -1l2 -2v-1.5v-0.5v-1v-1q-1 -3 -6.5 -8.5t-24.5 -27.5q-52 -61 -85 -83.5t-55 -22.5q-23 0 -33 18t-10 46q0 30 16.5 57.5t37.5 51.5q20 24 36.5 44.5t16.5 35.5q0 5 -4 9t-9 4q-28 0 -123.5 -91.5t-203.5 -278.5q-1 -2 -2 -3.5t-2 -3.5
l-83 -147l-67 -4l29 46l314 511l-2 2q-11 -13 -23 -27.5t-25 -29.5l-1.5 -1.5t-0.5 -1.5q-32 -39 -59 -71.5t-29 -32.5q-3 0 -4.5 1.5t-1.5 3.5v0.5v0.5q1 3 10.5 13.5t48.5 57.5q21 25 37 45t30 38l6 8l6 8q31 41 69.5 101t117.5 187v0z" />
    <glyph glyph-name="multiply" unicode="&#xd7;" horiz-adv-x="500" 
 />
    <glyph glyph-name="onesuperior" unicode="&#xb9;" horiz-adv-x="233" 
d="M268 188q11 16 21.5 31.5t21.5 30.5q35 50 69 97.5t59 88.5l-1 2q-19 -16 -50 -44.5t-75 -60.5q-25 -19 -35.5 -25.5t-14.5 -6.5q-2 0 -3.5 1.5t-1.5 5.5t17.5 14.5t74.5 55.5q61 48 81 71t32 23q3 0 4.5 -1.5t1.5 -4.5q0 -6 -29.5 -64t-66.5 -126q-3 -6 -6.5 -12
t-6.5 -11q-9 -16 -17.5 -31.5t-16.5 -29.5q-17 0 -29.5 -1t-23.5 -2q-1 -1 -2.5 -1h-2.5v0z" />
    <glyph glyph-name="twosuperior" unicode="&#xb2;" horiz-adv-x="233" 
d="M336 184q-20 0 -28 10.5t-10 23.5q-1 8 -3.5 14t-10.5 6q-6 0 -14.5 -4t-17.5 -10q-7 -5 -13.5 -10t-11.5 -11q-8 -9 -11 -13.5t-6 -6.5q-1 0 -2 -0.5t-3 -0.5t-3 1.5t-1 3.5q0 3 4.5 13t12.5 22q4 5 9 10.5t10 10.5q6 5 12 9.5t12 9.5q20 14 47 30t65 41
q16 10 28.5 24.5t20.5 29.5q7 12 10.5 23t3.5 21q0 17 -10 23t-29 6q-34 0 -62 -20.5t-34 -44.5q-1 -3 -1.5 -6t-0.5 -6q0 -10 7 -17.5t17 -7.5q16 0 30.5 12t24.5 26q5 6 8.5 12.5t5.5 11.5q5 13 7.5 17t3.5 4h0.5h0.5l1.5 -1.5t0.5 -2.5q0 -7 -2 -15t-5 -17
q-9 -22 -29 -40.5t-46 -18.5q-15 0 -26 8.5t-11 26.5q0 3 0.5 6t0.5 6q7 30 39 54.5t72 24.5q33 0 52 -14.5t19 -40.5q0 -47 -33.5 -71.5t-72.5 -42.5q-5 -2 -9 -3.5t-9 -3.5q-10 -5 -19.5 -9.5t-18.5 -9.5q-28 -15 -42.5 -25.5t-25.5 -20.5l2 -2q4 2 8.5 5t9.5 7
q8 5 17.5 9t20.5 4q3 0 5.5 -0.5t5.5 -0.5q11 -3 20 -11.5t9 -24.5q0 -9 3 -13t12 -4q7 0 16.5 6t19.5 16l8.5 8.5l8.5 8.5q3 4 6 7.5t6 6.5l7 7t3 2h0.5h0.5h0.5h0.5q2 0 2.5 -0.5t0.5 -2.5v0v0q0 -2 -3 -7t-21 -25q-2 -2 -4.5 -5t-5.5 -5q-9 -9 -20.5 -17t-23.5 -12
q-5 -2 -9.5 -3t-9.5 -1v0z" />
    <glyph glyph-name="threesuperior" unicode="&#xb3;" horiz-adv-x="233" 
d="M376 339v-2h1.5h1.5q17 -3 31.5 -16t14.5 -34v-1.5v-1.5q-2 -34 -40 -63.5t-83 -32.5h-4h-4q-36 0 -51 13.5t-17 30.5q-1 2 -1 3.5v3.5v3.5t1 2.5q2 9 8.5 16t15.5 7q11 0 16 -5.5t5 -12.5t-3 -13t-14 -9h-1t-1 -1q-3 -1 -5 -2.5t-2 -4.5q0 -9 9.5 -14.5t31.5 -5.5
q7 0 15 2t15 6q21 10 40 29t28 40q3 7 5 14t2 14q0 11 -7 15.5t-18 4.5q-10 0 -18 -2.5t-14 -5.5q-6 -4 -10 -6.5t-6 -2.5l-1 0.5l-1 0.5q-1 1 -2 2.5t-2 3.5v1v1v1.5t1 0.5q2 3 13.5 7.5t37.5 20.5q46 26 62.5 48t16.5 42q0 14 -7 18.5t-21 4.5q-33 0 -60.5 -19t-27.5 -43
q0 -6 4 -9t10 -3q4 0 7.5 0.5t7.5 1.5q13 5 25.5 15t22.5 25q4 6 5 9.5t2 5.5q0 1 0.5 1.5t2.5 0.5t2 -1.5v-3.5q0 -5 -1 -10t-3 -10q-7 -17 -24.5 -31.5t-39.5 -14.5q-14 0 -23.5 6.5t-9.5 19.5q0 6 2.5 12t6.5 13q13 17 38 32t55 15h4.5t4.5 -1q19 -2 35 -13t16 -31
q0 -25 -17.5 -40.5t-37.5 -25.5q-13 -6 -24.5 -11t-19.5 -10l-0.5 -0.5t-1.5 -0.5v0z" />
    <glyph glyph-name="onehalf" unicode="&#xbd;" horiz-adv-x="584" 
d="M698 472h30l-472 -478h-30l472 478v0zM605 -4q-20 1 -28 11t-10 23q-1 8 -3.5 14t-10.5 6q-6 0 -15 -4.5t-19 -10.5q-6 -5 -12.5 -10t-11.5 -10q-8 -9 -11 -13t-6 -6q-1 0 -2 -0.5t-3 -0.5t-3 1.5t-1 3.5t4.5 12t13.5 22q4 5 8.5 10.5t10.5 10.5t12 9.5t12 9.5
q20 14 47 30t65 41q16 10 28.5 24.5t20.5 29.5q7 12 10.5 23t3.5 21q0 17 -10 23t-29 6q-34 0 -62 -20.5t-34 -44.5q-1 -3 -1.5 -6t-0.5 -6q0 -10 7 -17.5t17 -7.5q16 0 30.5 12t24.5 26q5 6 8.5 12.5t5.5 11.5q5 13 7.5 17t3.5 4h0.5h0.5l1.5 -1.5t0.5 -2.5q0 -7 -2 -15
t-5 -17q-9 -22 -29 -40.5t-46 -18.5q-15 0 -26 8.5t-11 26.5q0 3 0.5 6t0.5 6q7 30 39 54.5t72 24.5q33 0 52 -14.5t19 -40.5q0 -47 -33.5 -71.5t-72.5 -42.5q-5 -2 -9 -3.5t-9 -3.5q-10 -5 -19.5 -9.5t-18.5 -9.5q-28 -15 -42.5 -25.5t-25.5 -20.5l2 -2q4 2 8.5 5t9.5 7
q8 5 17.5 9t20.5 4q3 0 5.5 -0.5t5.5 -0.5q11 -3 20 -11.5t9 -24.5q0 -9 3 -13t12 -4q7 0 16.5 6t19.5 16l8.5 8.5l8.5 8.5q3 4 6 7.5t6 6.5l7 7t3 2h0.5h0.5h0.5h0.5q2 0 2.5 -0.5t0.5 -2.5v0v0q0 -2 -3 -7t-21 -25q-2 -2 -4.5 -5t-5.5 -5q-9 -9 -20.5 -17t-23.5 -12
q-5 -1 -9.5 -2t-9.5 -1v-1zM268 188q11 16 21.5 31.5t21.5 30.5q35 50 69 97.5t59 88.5l-1 2q-19 -16 -50 -44.5t-75 -60.5q-25 -19 -35.5 -25.5t-14.5 -6.5q-2 0 -3.5 1.5t-1.5 5.5t17.5 14.5t74.5 55.5q61 48 81 71t32 23q3 0 4.5 -1.5t1.5 -4.5q0 -6 -29.5 -64
t-66.5 -126q-3 -6 -6.5 -12t-6.5 -11q-9 -16 -17.5 -31.5t-16.5 -29.5q-17 0 -29.5 -1t-23.5 -2q-1 -1 -2.5 -1h-2.5v0z" />
    <glyph glyph-name="onequarter" unicode="&#xbc;" horiz-adv-x="584" 
d="M714 472h30l-472 -478h-30l472 478v0zM645 280l56 4q-12 -16 -24.5 -33t-25.5 -34q-5 -6 -10 -13t-10 -13q-27 -35 -53.5 -67t-49.5 -54l2 -2q2 0 4.5 0.5t5.5 0.5t6.5 0.5t7.5 0.5q10 0 19 -0.5t17 -1.5t14.5 -1.5t10.5 -0.5h2.5h1.5h1.5h0.5q70 98 85 119.5t19 22.5
h0.5h0.5q2 0 3 -0.5t1 -2.5t-12.5 -23t-61.5 -115q11 0 19.5 3t15.5 7l1.5 1.5t1.5 0.5t2 1t2 1q8 3 9.5 5t2.5 2v0v0q2 0 2.5 -0.5t0.5 -2.5t-3.5 -6t-9.5 -8q-8 -6 -21 -11t-29 -5l-27 -54h-10.5t-13.5 -1h-16.5h-11.5l42 54q-11 0 -18 0.5t-13 1.5q-1 0 -2 0.5t-2 0.5
q-5 1 -11 1.5t-15 -0.5q-10 0 -17 -2t-12 -4t-9 -4t-7 -2q-1 0 -1.5 0.5l-0.5 0.5q-2 1 -2.5 2.5t-0.5 4.5q0 8 38 52.5t105 173.5v0zM268 188q11 16 21.5 31.5t21.5 30.5q35 50 69 97.5t59 88.5l-1 2q-19 -16 -50 -44.5t-75 -60.5q-25 -19 -35.5 -25.5t-14.5 -6.5
q-2 0 -3.5 1.5t-1.5 5.5t17.5 14.5t74.5 55.5q61 48 81 71t32 23q3 0 4.5 -1.5t1.5 -4.5q0 -6 -29.5 -64t-66.5 -126q-3 -6 -6.5 -12t-6.5 -11q-9 -16 -17.5 -31.5t-16.5 -29.5q-17 0 -29.5 -1t-23.5 -2q-1 -1 -2.5 -1h-2.5v0z" />
    <glyph glyph-name="threequarters" unicode="&#xbe;" horiz-adv-x="584" 
d="M726 472h30l-472 -478h-30l472 478v0zM645 280l56 4q-12 -16 -24.5 -33t-25.5 -34q-5 -6 -10 -13t-10 -13q-27 -35 -53.5 -67t-49.5 -54l2 -2q2 0 4.5 0.5t5.5 0.5t6.5 0.5t7.5 0.5q10 0 19 -0.5t17 -1.5t14.5 -1.5t10.5 -0.5h2.5h1.5h1.5h0.5q70 98 85 119.5t19 22.5
h0.5h0.5q2 0 3 -0.5t1 -2.5t-12.5 -23t-61.5 -115q11 0 19.5 3t15.5 7l1.5 1.5t1.5 0.5t2 1t2 1q8 3 9.5 5t2.5 2v0v0q2 0 2.5 -0.5t0.5 -2.5t-3.5 -6t-9.5 -8q-8 -6 -21 -11t-29 -5l-27 -54h-10.5t-13.5 -1h-16.5h-11.5l42 54q-11 0 -18 0.5t-13 1.5q-1 0 -2 0.5t-2 0.5
q-5 1 -11 1.5t-15 -0.5q-10 0 -17 -2t-12 -4t-9 -4t-7 -2q-1 0 -1.5 0.5l-0.5 0.5q-2 1 -2.5 2.5t-0.5 4.5q0 8 38 52.5t105 173.5v0zM388 339v-2h1.5h1.5q17 -3 31.5 -16t14.5 -34v-1.5v-1.5q-2 -34 -40 -63.5t-83 -32.5h-4h-4q-36 0 -51 13.5t-17 30.5q-1 2 -1 3.5v3.5
v3.5t1 2.5q2 9 8.5 16t15.5 7q11 0 16 -5.5t5 -12.5t-3 -13t-14 -9h-1t-1 -1q-3 -1 -5 -2.5t-2 -4.5q0 -9 9.5 -14.5t31.5 -5.5q7 0 15 2t15 6q21 10 40 29t28 40q3 7 5 14t2 14q0 11 -7 15.5t-18 4.5q-10 0 -18 -2.5t-14 -5.5q-6 -4 -10 -6.5t-6 -2.5l-1 0.5l-1 0.5
q-1 1 -2 2.5t-2 3.5v1v1v1.5t1 0.5q2 3 13.5 7.5t37.5 20.5q46 26 62.5 48t16.5 42q0 14 -7 18.5t-21 4.5q-33 0 -60.5 -19t-27.5 -43q0 -6 4 -9t10 -3q4 0 7.5 0.5t7.5 1.5q13 5 25.5 15t22.5 25q4 6 5 9.5t2 5.5q0 1 0.5 1.5t2.5 0.5t2 -1.5v-3.5q0 -5 -1 -10t-3 -10
q-7 -17 -24.5 -31.5t-39.5 -14.5q-14 0 -23.5 6.5t-9.5 19.5q0 6 2.5 12t6.5 13q13 17 38 32t55 15h4.5t4.5 -1q19 -2 35 -13t16 -31q0 -25 -17.5 -40.5t-37.5 -25.5q-13 -6 -24.5 -11t-19.5 -10l-0.5 -0.5t-1.5 -0.5v0z" />
    <glyph glyph-name="endash" unicode="&#x2013;" horiz-adv-x="501" 
d="M680 158l-12 -38h-501l12 38h501v0z" />
    <glyph glyph-name="sfthyphen" unicode="&#xad;" horiz-adv-x="500" 
 />
    <glyph glyph-name="filledbox" unicode="&#x25a0;" horiz-adv-x="500" 
 />
    <glyph glyph-name="bullet" unicode="&#x2022;" horiz-adv-x="501" 
d="M335 346q0 72 50.5 123t123.5 51q72 0 122.5 -51t50.5 -123t-50.5 -122.5t-122.5 -50.5q-73 0 -123.5 50.5t-50.5 122.5v0z" />
    <glyph glyph-name="overstore" unicode="&#xaf;" horiz-adv-x="194" 
 />
    <glyph glyph-name="degree" unicode="&#xb0;" horiz-adv-x="500" 
 />
    <glyph glyph-name="middot" unicode="&#xb7;" horiz-adv-x="194" 
 />
    <glyph glyph-name="invcircle" unicode="&#x25d9;" horiz-adv-x="194" 
 />
    <glyph glyph-name="Rcaron" unicode="&#x158;" horiz-adv-x="194" 
 />
    <glyph glyph-name="Ncaron" unicode="&#x147;" horiz-adv-x="194" 
 />
    <glyph glyph-name="2510" unicode="&#x2510;" horiz-adv-x="194" 
 />
  </font>
</defs>
</svg>
